G04 Layer_Color=16711935*
%FSTAX42Y42*%
%MOMM*%
G71*
G01*
G75*
%ADD18C,0.01*%
%ADD19C,0.25*%
D18*
X02658Y027062D02*
G03*
X026505Y026987I0J-000075D01*
G01*
Y026967D02*
G03*
X02658Y026892I000075J0D01*
G01*
Y026447D02*
G03*
X026505Y026372I0J-000075D01*
G01*
X026505Y026352D02*
G03*
X02658Y026277I000075J0D01*
G01*
X027379Y026785D02*
G03*
X027406Y026782I000028J000096D01*
G01*
X027406Y026557D02*
G03*
X027379Y026554I0J-0001D01*
G01*
X02702Y026277D02*
G03*
X027044Y026293I0J000025D01*
G01*
X027076Y026339D02*
G03*
X027055Y026323I000002J-000025D01*
G01*
X027739Y026343D02*
G03*
X027667Y026373I-000072J-000069D01*
G01*
X02793Y026144D02*
G03*
X028005Y026113I000072J000069D01*
G01*
X028311Y026003D02*
G03*
X02834Y025957I00005J0D01*
G01*
X02834Y025957D02*
G03*
X028396Y025957I000028J000061D01*
G01*
X028396Y025957D02*
G03*
X028425Y026003I-000021J000046D01*
G01*
Y026193D02*
G03*
X028375Y026243I-00005J0D01*
G01*
X027988Y026276D02*
G03*
X028062Y026243I000074J000067D01*
G01*
X02786Y026445D02*
G03*
X027894Y026379I0001J00001D01*
G01*
X027883Y026989D02*
G03*
X02786Y026924I000076J-000065D01*
G01*
X028048Y02713D02*
G03*
X027974Y027095I000003J-0001D01*
G01*
X028192Y027134D02*
G03*
X028241Y027185I-000001J00005D01*
G01*
X028235Y0274D02*
G03*
X028205Y027445I-00005J-000001D01*
G01*
X028205Y027445D02*
G03*
X028151Y027444I-000026J-000062D01*
G01*
X028151Y027444D02*
G03*
X028122Y027396I000021J-000045D01*
G01*
X027986Y027259D02*
G03*
X027913Y027224I000003J-0001D01*
G01*
X027647Y026966D02*
G03*
X027723Y027001I0J0001D01*
G01*
X027055Y027016D02*
G03*
X027076Y027I00002J000004D01*
G01*
X027044Y027046D02*
G03*
X02702Y027062I-000023J-000009D01*
G01*
X027739Y026682D02*
G03*
X027639Y026782I-0001J0D01*
G01*
Y026557D02*
G03*
X027739Y026657I0J0001D01*
G01*
X02658Y026892D02*
X027005D01*
X026505Y026967D02*
X026505Y026987D01*
X02658Y027062D02*
X02702D01*
X026505Y026352D02*
Y026372D01*
X027352Y026364D02*
X027451Y026372D01*
X027076Y026339D02*
X027284Y026358D01*
X027319Y026361D01*
X027352Y026364D01*
X027464Y026966D02*
X027557Y026966D01*
X02658Y026447D02*
X027005D01*
X02658Y026277D02*
X02702D01*
X027406Y026782D02*
X027639D01*
X027739Y026657D02*
Y026682D01*
X027044Y026293D02*
X027055Y026323D01*
X027451Y026372D02*
X027464Y026373D01*
X027606Y026373D01*
X027667D01*
X027739Y026343D02*
X02793Y026144D01*
X028005Y026113D02*
X028311D01*
Y026003D02*
Y026113D01*
X028425Y026003D02*
Y026193D01*
X028164Y026243D02*
X028375Y026243D01*
X028062D02*
X028164Y026243D01*
X027983Y026282D02*
X027988Y026276D01*
X027957Y02631D02*
X027983Y026282D01*
X027905Y026367D02*
X027957Y02631D01*
X027894Y026379D02*
X027905Y026367D01*
X02786Y026445D02*
Y026924D01*
X027883Y026989D02*
X027917Y027028D01*
X027966Y027086D01*
X027974Y027095D01*
X028048Y02713D02*
X028192Y027134D01*
X028235Y0274D02*
X028241Y027185D01*
X028122Y027396D02*
X028128Y027262D01*
X027986Y027259D02*
X028128Y027262D01*
X027723Y027001D02*
X027913Y027224D01*
X027606Y026966D02*
X027647D01*
X027557D02*
X027606D01*
X027319Y026978D02*
X027464Y026966D01*
X027076Y027D02*
X027319Y026978D01*
X027044Y027046D02*
X027055Y027016D01*
X027005Y026892D02*
X027379Y026785D01*
X027406Y026557D02*
X027639D01*
X027005Y026447D02*
X027379Y026554D01*
D19*
X026168Y024824D02*
Y024471D01*
X026344D01*
X026403Y02453D01*
Y024589D01*
X026344Y024648D01*
X026168D01*
X026344D01*
X026403Y024706D01*
Y024765D01*
X026344Y024824D01*
X026168D01*
X026579Y024471D02*
X026696D01*
X026755Y02453D01*
Y024648D01*
X026696Y024706D01*
X026579D01*
X02652Y024648D01*
Y02453D01*
X026579Y024471D01*
X026931Y024706D02*
X027048D01*
X027107Y024648D01*
Y024471D01*
X026931D01*
X026872Y02453D01*
X026931Y024589D01*
X027107D01*
X027225Y024706D02*
Y024471D01*
Y024589D01*
X027283Y024648D01*
X027342Y024706D01*
X027401D01*
X027812Y024824D02*
Y024471D01*
X027636D01*
X027577Y02453D01*
Y024648D01*
X027636Y024706D01*
X027812D01*
X02834Y024471D02*
X028458D01*
X028516Y02453D01*
Y024648D01*
X028458Y024706D01*
X02834D01*
X028281Y024648D01*
Y02453D01*
X02834Y024471D01*
X028634Y024706D02*
Y02453D01*
X028692Y024471D01*
X028869D01*
Y024706D01*
X029045Y024765D02*
Y024706D01*
X028986D01*
X029103D01*
X029045D01*
Y02453D01*
X029103Y024471D01*
X02928D02*
X029397D01*
X029338D01*
Y024824D01*
X02928D01*
X029573Y024471D02*
X029691D01*
X029632D01*
Y024706D01*
X029573D01*
X029867Y024471D02*
Y024706D01*
X030043D01*
X030102Y024648D01*
Y024471D01*
X030395D02*
X030278D01*
X030219Y02453D01*
Y024648D01*
X030278Y024706D01*
X030395D01*
X030454Y024648D01*
Y024589D01*
X030219D01*
M02*
