G04 Layer_Color=16711935*
%FSTAX42Y42*%
%MOMM*%
G71*
G01*
G75*
%ADD18C,0.20*%
D18*
X028236Y027401D02*
G03*
X028205Y027446I-00005J-000001D01*
G01*
D02*
G03*
X028151Y027445I-000026J-000062D01*
G01*
Y027445D02*
G03*
X028122Y027397I000021J-000045D01*
G01*
X028193Y027135D02*
G03*
X028242Y027185I-000001J00005D01*
G01*
X028048Y027131D02*
G03*
X027975Y027096I000003J-0001D01*
G01*
X027987Y02726D02*
G03*
X027913Y027225I000003J-0001D01*
G01*
X027884Y02699D02*
G03*
X02786Y026925I000076J-000065D01*
G01*
X028423Y026205D02*
G03*
X028372Y026254I-00005J-000001D01*
G01*
X027984Y026276D02*
G03*
X028059Y026246I000072J000069D01*
G01*
X0284Y025968D02*
G03*
X028428Y026013I-000022J000045D01*
G01*
X028314Y026012D02*
G03*
X028345Y025967I00005J000001D01*
G01*
X028345Y025967D02*
G03*
X0284Y025968I000026J000062D01*
G01*
X02786Y026446D02*
G03*
X027888Y026376I0001J0D01*
G01*
X02793Y026145D02*
G03*
X028005Y026114I000072J000069D01*
G01*
X027647Y026967D02*
G03*
X027724Y027002I0J0001D01*
G01*
X027458Y026696D02*
G03*
X027393Y026783I-00009J0D01*
G01*
X027044Y027046D02*
G03*
X027012Y027061I-000023J-000009D01*
G01*
X027056Y027017D02*
G03*
X027077Y027001I000023J000009D01*
G01*
X026965Y027044D02*
G03*
X026951Y027011I000009J-000023D01*
G01*
X026989Y026909D02*
G03*
X027006Y026893I000023J000009D01*
G01*
X027393Y026558D02*
G03*
X027458Y026645I-000025J000087D01*
G01*
X027739Y026344D02*
G03*
X027667Y026374I-000072J-000069D01*
G01*
X027006Y026447D02*
G03*
X026989Y026432I000007J-000024D01*
G01*
X027077Y02634D02*
G03*
X027056Y026324I000002J-000025D01*
G01*
X027012Y02628D02*
G03*
X027044Y026294I000009J000023D01*
G01*
X026951Y026329D02*
G03*
X026965Y026297I000023J-000009D01*
G01*
X028236Y027401D02*
X028242Y027186D01*
X028122Y027397D02*
X028129Y027263D01*
X027987Y02726D02*
X028129Y027263D01*
X028048Y027131D02*
X028193Y027135D01*
X027967Y027087D02*
X027975Y027096D01*
X027917Y027029D02*
X027967Y027087D01*
X027884Y02699D02*
X027917Y027029D01*
X027724Y027002D02*
X027913Y027225D01*
X027714Y026759D02*
X027734Y026755D01*
X027777Y026711D02*
X027781Y026691D01*
X027781Y026659D02*
Y026682D01*
X027777Y02663D02*
X027781Y026649D01*
X027741Y026752D02*
X027758Y026741D01*
X027763Y026735D02*
X027774Y026718D01*
X028161Y026248D02*
X028372Y026254D01*
X028423Y026205D02*
X028428Y026015D01*
X028059Y026246D02*
X028161Y026248D01*
X028005Y026114D02*
X028312Y026122D01*
X028314Y026012D01*
X02786Y026446D02*
Y026925D01*
X027763Y026606D02*
X027774Y026623D01*
X027741Y026589D02*
X027758Y0266D01*
X027714Y026582D02*
X027734Y026586D01*
X027953Y026309D02*
X027979Y026282D01*
X027898Y026366D02*
X027953Y026309D01*
X027888Y026376D02*
X027898Y026366D01*
X027739Y026344D02*
X02793Y026145D01*
X027613Y026758D02*
X02771Y026759D01*
X027584Y026755D02*
X027604Y026759D01*
X027464Y026967D02*
X027647D01*
X027319Y026979D02*
X027464Y026967D01*
X02756Y026741D02*
X027577Y026752D01*
X027544Y026718D02*
X027555Y026735D01*
X027537Y026691D02*
X027541Y026711D01*
X027536Y026687D02*
X027537Y026658D01*
X027537Y026649D02*
X027541Y02663D01*
X027044Y027046D02*
X027056Y027017D01*
X026965Y027044D02*
X027012Y027061D01*
X027006Y026893D02*
X027393Y026783D01*
X027077Y027001D02*
X027319Y026979D01*
X027458Y026645D02*
Y026696D01*
X026951Y027011D02*
X026989Y026909D01*
X027613Y026583D02*
X027705D01*
X02756Y0266D02*
X027577Y026589D01*
X027584Y026586D02*
X027604Y026582D01*
X027544Y026623D02*
X027555Y026606D01*
X027464Y026374D02*
X027667D01*
X027451Y026373D02*
X027464Y026374D01*
X027006Y026447D02*
X027393Y026558D01*
X027352Y026364D02*
X027451Y026373D01*
X027319Y026362D02*
X027352Y026364D01*
X027285Y026359D02*
X027319Y026362D01*
X027077Y02634D02*
X027285Y026359D01*
X026951Y026329D02*
X026989Y026432D01*
X027044Y026294D02*
X027056Y026324D01*
X026965Y026297D02*
X027012Y02628D01*
M02*
