G04 Layer_Color=16711935*
%FSTAX42Y42*%
%MOMM*%
G71*
G01*
G75*
%ADD17C,0.13*%
D17*
X027008Y026448D02*
G03*
X027029Y026336I000016J-000055D01*
G01*
X027028Y027005D02*
G03*
X027007Y026893I-000005J-000057D01*
G01*
X0282Y027364D02*
G03*
X0282Y027364I-00002J0D01*
G01*
X02839Y026057D02*
G03*
X02839Y026057I-00002J0D01*
G01*
X027648Y026967D02*
G03*
X027724Y027002I0J0001D01*
G01*
X027987Y02726D02*
G03*
X027913Y027225I000003J-0001D01*
G01*
X028152Y027445D02*
G03*
X028122Y027397I000021J-000045D01*
G01*
X028205Y027446D02*
G03*
X028152Y027445I-000026J-000062D01*
G01*
X028236Y027401D02*
G03*
X028205Y027446I-00005J-000001D01*
G01*
X028193Y027135D02*
G03*
X028242Y027186I-000001J00005D01*
G01*
X028048Y027131D02*
G03*
X027975Y027096I000003J-0001D01*
G01*
X027884Y02699D02*
G03*
X02786Y026925I000076J-000065D01*
G01*
Y026446D02*
G03*
X027888Y026377I0001J0D01*
G01*
X027984Y026276D02*
G03*
X028059Y026246I000072J000069D01*
G01*
X028424Y026205D02*
G03*
X028372Y026254I-00005J-000001D01*
G01*
X0284Y025968D02*
G03*
X028428Y026015I-000022J000045D01*
G01*
X028345Y025967D02*
G03*
X0284Y025968I000026J000062D01*
G01*
X028315Y026012D02*
G03*
X028345Y025967I00005J000001D01*
G01*
X02793Y026145D02*
G03*
X028005Y026114I000072J000069D01*
G01*
X027739Y026344D02*
G03*
X027667Y026374I-000072J-000069D01*
G01*
X027393Y026558D02*
G03*
X027458Y026645I-000025J000087D01*
G01*
Y026696D02*
G03*
X027393Y026783I-00009J0D01*
G01*
X02706Y026397D02*
G03*
X02706Y026397I-00002J0D01*
G01*
X02706Y026944D02*
G03*
X02706Y026944I-00002J0D01*
G01*
X027319Y026979D02*
X027464Y026967D01*
X027558D01*
X027607D01*
X027648D01*
X027724Y027002D02*
X027913Y027225D01*
X027987Y02726D02*
X028129Y027263D01*
X028122Y027397D02*
X028129Y027263D01*
X028236Y027401D02*
X028242Y027186D01*
X028048Y027131D02*
X028193Y027135D01*
X027967Y027087D02*
X027975Y027096D01*
X027917Y027029D02*
X027967Y027087D01*
X027884Y02699D02*
X027917Y027029D01*
X02786Y026446D02*
Y026925D01*
X027888Y026377D02*
X027899Y026366D01*
X027953Y026309D01*
X027979Y026282D01*
X027984Y026276D01*
X028059Y026246D02*
X028161Y026248D01*
X028372Y026254D01*
X028424Y026205D02*
X028428Y026015D01*
X028312Y026122D02*
X028315Y026012D01*
X028005Y026114D02*
X028312Y026122D01*
X027739Y026344D02*
X02793Y026145D01*
X027607Y026374D02*
X027667D01*
X027464D02*
X027607D01*
X027451Y026373D02*
X027464Y026374D01*
X027353Y026365D02*
X027451Y026373D01*
X027319Y026362D02*
X027353Y026365D01*
X027008Y026448D02*
X027393Y026558D01*
X027458Y026645D02*
Y026696D01*
X027007Y026893D02*
X027393Y026783D01*
X027028Y027005D02*
X027319Y026979D01*
X027285Y026359D02*
X027319Y026362D01*
X027029Y026336D02*
X027285Y026359D01*
M02*
