G04 Layer_Physical_Order=1*
G04 Layer_Color=255*
%FSTAX42Y42*%
%MOMM*%
G71*
G01*
G75*
%ADD10C,0.61*%
G04:AMPARAMS|DCode=11|XSize=1mm|YSize=1.25mm|CornerRadius=0mm|HoleSize=0mm|Usage=FLASHONLY|Rotation=280.000|XOffset=0mm|YOffset=0mm|HoleType=Round|Shape=Round|*
%AMOVALD11*
21,1,0.25,1.00,0.00,0.00,10.0*
1,1,1.00,-0.12,-0.02*
1,1,1.00,0.12,0.02*
%
%ADD11OVALD11*%

G04:AMPARAMS|DCode=12|XSize=1mm|YSize=1.25mm|CornerRadius=0mm|HoleSize=0mm|Usage=FLASHONLY|Rotation=2.000|XOffset=0mm|YOffset=0mm|HoleType=Round|Shape=Round|*
%AMOVALD12*
21,1,0.25,1.00,0.00,0.00,92.0*
1,1,1.00,0.00,-0.12*
1,1,1.00,-0.00,0.12*
%
%ADD12OVALD12*%

G04:AMPARAMS|DCode=13|XSize=1mm|YSize=1.25mm|CornerRadius=0mm|HoleSize=0mm|Usage=FLASHONLY|Rotation=80.000|XOffset=0mm|YOffset=0mm|HoleType=Round|Shape=Round|*
%AMOVALD13*
21,1,0.25,1.00,0.00,0.00,170.0*
1,1,1.00,0.12,-0.02*
1,1,1.00,-0.12,0.02*
%
%ADD13OVALD13*%

G36*
X027081Y026458D02*
X027101Y026444D01*
X027115Y026423D01*
X02712Y026399D01*
X027115Y026375D01*
X027101Y026354D01*
X027081Y026341D01*
X027076Y02634D01*
X027076Y02634D01*
X027077Y02634D01*
X027069Y026339D01*
X027061Y026333D01*
X027055Y026325D01*
X027055Y026324D01*
X027056Y026324D01*
X027056D01*
X027044Y026294D01*
X027045Y026294D01*
X027045Y026293D01*
X027039Y026285D01*
X027031Y02628D01*
X027021Y026278D01*
X027012Y026279D01*
X027012Y02628D01*
X027012D01*
X027012Y02628D01*
Y02628D01*
X026965Y026297D01*
X026964Y026297D01*
X026956Y026303D01*
X026951Y026311D01*
X026949Y026321D01*
X02695Y02633D01*
X026951Y026329D01*
Y026329D01*
X026989Y026432D01*
X026989Y026432D01*
X026989Y026433D01*
X026995Y026441D01*
X027003Y026447D01*
X027006Y026448D01*
X027006Y026447D01*
X027053Y026461D01*
X027053Y026462D01*
X027056Y026462D01*
X027081Y026458D01*
D02*
G37*
G36*
X028394Y026121D02*
X028414Y026108D01*
X028427Y026088D01*
X028426Y026088D01*
X028426Y026088D01*
X028429Y026015D01*
X028429Y026013D01*
X028425Y025994D01*
X028414Y025977D01*
X0284Y025968D01*
X0284Y025968D01*
D01*
X0284Y025968D01*
X0284Y025968D01*
X028388Y025963D01*
X028371Y025961D01*
X028353Y025963D01*
X028345Y025967D01*
X028345Y025966D01*
X028328Y025977D01*
X028317Y025993D01*
X028314Y026012D01*
X028314Y026012D01*
X028312Y026087D01*
X028311Y026088D01*
X028325Y026108D01*
X028345Y026121D01*
X028369Y026126D01*
X028394Y026121D01*
D02*
G37*
G36*
X02704Y026884D02*
X027039Y026884D01*
X027039Y026884D01*
X02704Y026884D01*
D02*
G37*
G36*
X028197Y027449D02*
X028205Y027446D01*
X028206Y027446D01*
X028222Y027436D01*
X028233Y027419D01*
X028237Y027401D01*
X028236Y027401D01*
Y027401D01*
Y027401D01*
D01*
X028238Y027332D01*
X028239Y027332D01*
X028226Y027312D01*
X028205Y027298D01*
X028181Y027294D01*
X028156Y027298D01*
X028136Y027312D01*
X028125Y027328D01*
X028126Y027328D01*
X028122Y027397D01*
X028122Y027397D01*
X028121Y027399D01*
X028125Y027419D01*
X028136Y027435D01*
X028151Y027445D01*
X028151Y027445D01*
D01*
X028151Y027445D01*
X028151Y027445D01*
X028162Y027449D01*
X028179Y027451D01*
X028197Y027449D01*
D02*
G37*
G36*
X027031Y027061D02*
X027039Y027056D01*
X027044Y027047D01*
X027045Y027047D01*
X027044Y027046D01*
X027056Y027017D01*
X027055Y027017D01*
X027055Y027016D01*
X027061Y027007D01*
X027069Y027002D01*
X027077Y027D01*
X027077Y027001D01*
X027077Y027001D01*
X027093Y02699D01*
X027107Y026969D01*
X027112Y026945D01*
X027107Y026921D01*
X027093Y0269D01*
X027073Y026887D01*
X027049Y026882D01*
X02704Y026884D01*
X027041Y026883D01*
X02704Y026884D01*
X02704Y026884D01*
X027006Y026893D01*
X027003Y026894D01*
X026995Y026899D01*
X026989Y026908D01*
X026989Y026909D01*
X026989Y026909D01*
X026951Y027011D01*
X02695Y027011D01*
X026949Y02702D01*
X026951Y02703D01*
X026956Y027038D01*
X026964Y027044D01*
X026965Y027044D01*
X026965Y027044D01*
X026965D01*
X027012Y027061D01*
X027012Y027061D01*
X027021Y027063D01*
X027031Y027061D01*
D02*
G37*
D10*
X02704Y026398D02*
X027532Y026488D01*
X027988Y02618D02*
X028365Y026188D01*
X028183Y027365D02*
X028188Y027203D01*
X028366Y026187D02*
X028373Y026052D01*
X027682Y026853D02*
X027975Y027195D01*
X027975Y027195D02*
X028188Y027202D01*
X027693Y026488D02*
X02799Y02618D01*
X027533Y026488D02*
X027693Y02649D01*
X02704Y026942D02*
X027532Y026852D01*
X027527Y026852D02*
X02768D01*
D11*
X02704Y026397D02*
D03*
D12*
X02837Y026057D02*
D03*
X02818Y027363D02*
D03*
D13*
X02704Y026944D02*
D03*
M02*
