G04 Layer_Color=8388736*
%FSTAX42Y42*%
%MOMM*%
G71*
G01*
G75*
G04:AMPARAMS|DCode=15|XSize=1.14mm|YSize=1.39mm|CornerRadius=0mm|HoleSize=0mm|Usage=FLASHONLY|Rotation=80.000|XOffset=0mm|YOffset=0mm|HoleType=Round|Shape=Round|*
%AMOVALD15*
21,1,0.25,1.14,0.00,0.00,170.0*
1,1,1.14,0.12,-0.02*
1,1,1.14,-0.12,0.02*
%
%ADD15OVALD15*%

G04:AMPARAMS|DCode=16|XSize=1.14mm|YSize=1.39mm|CornerRadius=0mm|HoleSize=0mm|Usage=FLASHONLY|Rotation=2.000|XOffset=0mm|YOffset=0mm|HoleType=Round|Shape=Round|*
%AMOVALD16*
21,1,0.25,1.14,0.00,0.00,92.0*
1,1,1.14,0.00,-0.12*
1,1,1.14,-0.00,0.12*
%
%ADD16OVALD16*%

G04:AMPARAMS|DCode=17|XSize=1.14mm|YSize=1.39mm|CornerRadius=0mm|HoleSize=0mm|Usage=FLASHONLY|Rotation=280.000|XOffset=0mm|YOffset=0mm|HoleType=Round|Shape=Round|*
%AMOVALD17*
21,1,0.25,1.14,0.00,0.00,10.0*
1,1,1.14,-0.12,-0.02*
1,1,1.14,0.12,0.02*
%
%ADD17OVALD17*%

G36*
X028185Y027458D02*
X028186Y027458D01*
X028186Y027458D01*
X028186Y027458D01*
X028186Y027458D01*
X028187Y027458D01*
X0282Y027455D01*
X0282Y027455D01*
X028201Y027455D01*
X028201Y027455D01*
X028201Y027455D01*
X028202Y027455D01*
X028202Y027455D01*
X028208Y027452D01*
X028208Y027452D01*
X028215Y027449D01*
X028215Y027449D01*
X028216Y027449D01*
X028216Y027449D01*
X028216Y027449D01*
X028216Y027449D01*
X028216Y027448D01*
X028228Y027439D01*
X028228Y027439D01*
X028228Y027439D01*
X028228Y027438D01*
X028228Y027438D01*
X028229Y027438D01*
X028229Y027438D01*
X028237Y027426D01*
X028237Y027425D01*
X028238Y027425D01*
X028238Y027425D01*
X028238Y027425D01*
X028238Y027424D01*
X028238Y027424D01*
X028242Y02741D01*
X028243Y02741D01*
X028243Y027409D01*
X028243Y027409D01*
X028243Y027409D01*
X028243Y027409D01*
X028243Y027408D01*
X028243Y027401D01*
X028245Y027334D01*
X028245Y027333D01*
X028245Y027333D01*
X028245Y027333D01*
X028245Y027333D01*
X028245Y027332D01*
X028245Y027332D01*
X028245Y027332D01*
X028245Y027332D01*
X028245Y027331D01*
X028245Y027331D01*
X028245Y027331D01*
X028245Y02733D01*
X028245Y02733D01*
X028245Y02733D01*
X028245Y02733D01*
X028244Y027329D01*
X028244Y027329D01*
X028244Y027329D01*
X028244Y027329D01*
X028244Y027328D01*
X028244Y027328D01*
X028244Y027328D01*
X028244Y027328D01*
X028243Y027328D01*
X028241Y027322D01*
X028241Y027321D01*
X02824Y027321D01*
X02824Y027321D01*
X02824Y027321D01*
X02824Y02732D01*
X02824Y02732D01*
X028229Y027306D01*
X028228Y027306D01*
X028228Y027306D01*
X028228Y027306D01*
X028228Y027305D01*
X028227Y027305D01*
X028227Y027305D01*
X028213Y027295D01*
X028212Y027295D01*
X028212Y027294D01*
X028212Y027294D01*
X028212Y027294D01*
X028211Y027294D01*
X028211Y027294D01*
X028194Y027288D01*
X028194Y027288D01*
X028193Y027288D01*
X028193Y027288D01*
X028193Y027288D01*
X028193Y027288D01*
X028192Y027288D01*
X028174Y027287D01*
X028174Y027288D01*
X028174Y027288D01*
X028173Y027288D01*
X028173Y027288D01*
X028173Y027288D01*
X028173Y027288D01*
X028155Y027292D01*
X028155Y027292D01*
X028155Y027292D01*
X028154Y027292D01*
X028154Y027292D01*
X028154Y027293D01*
X028154Y027293D01*
X028138Y027302D01*
X028138Y027302D01*
X028138Y027302D01*
X028138Y027302D01*
X028137Y027302D01*
X028137Y027303D01*
X028137Y027303D01*
X028125Y027316D01*
X028124Y027316D01*
X028124Y027316D01*
X028124Y027316D01*
X028124Y027316D01*
X028124Y027317D01*
X028123Y027317D01*
X028119Y027325D01*
X028119Y027325D01*
X028119Y027325D01*
X028119Y027325D01*
X028119Y027326D01*
X028119Y027326D01*
X028119Y027326D01*
X028119Y027326D01*
X028119Y027326D01*
X028119Y027326D01*
X028119Y027327D01*
X028119Y027327D01*
X028119Y027327D01*
X028119Y027327D01*
X028119Y027327D01*
X028119Y027328D01*
X028119Y027328D01*
X028115Y027397D01*
Y027397D01*
X028115Y027404D01*
X028115Y027405D01*
X028115Y027405D01*
X028115Y027405D01*
X028115Y027405D01*
X028115Y027406D01*
X028115Y027406D01*
X028119Y027421D01*
X028119Y027421D01*
X028119Y027422D01*
X028119Y027422D01*
X028119Y027422D01*
X02812Y027422D01*
X02812Y027423D01*
X028128Y027435D01*
X028128Y027436D01*
X028128Y027436D01*
X028128Y027436D01*
X028128Y027436D01*
X028128Y027437D01*
X028129Y027437D01*
X02814Y027447D01*
X02814Y027447D01*
X028141Y027447D01*
X028141Y027448D01*
X028141Y027448D01*
X028141Y027448D01*
X028142Y027448D01*
X028149Y027451D01*
X028149Y027451D01*
X028155Y027454D01*
X028155Y027454D01*
X028155Y027454D01*
X028156Y027454D01*
X028156Y027454D01*
X028156Y027454D01*
X028156Y027455D01*
X02817Y027458D01*
X02817Y027458D01*
X02817Y027458D01*
X028171Y027458D01*
X028171Y027458D01*
X028171Y027458D01*
X028171Y027458D01*
X028185Y027458D01*
X028185Y027458D01*
D02*
G37*
G36*
X027027Y02707D02*
X027027Y02707D01*
X027028Y027069D01*
X027028Y027069D01*
X027028Y027069D01*
X027028Y027069D01*
X027029Y027069D01*
X027029Y027069D01*
X027029Y027069D01*
X027029Y027069D01*
X02703Y027069D01*
X027039Y027065D01*
X027039Y027065D01*
X027039Y027065D01*
X027039Y027064D01*
X02704Y027064D01*
X02704Y027064D01*
X02704Y027064D01*
X02704Y027064D01*
X027041Y027064D01*
X027041Y027063D01*
X027041Y027063D01*
X027048Y027056D01*
X027048Y027056D01*
X027048Y027056D01*
X027048Y027055D01*
X027048Y027055D01*
X027049Y027055D01*
X027049Y027055D01*
X027049Y027054D01*
X027049Y027054D01*
X027049Y027054D01*
X027049Y027054D01*
X027051Y027049D01*
X027051Y027049D01*
X027062Y027019D01*
X027063Y027017D01*
X027066Y027013D01*
X02707Y02701D01*
X027075Y027008D01*
X027077Y027008D01*
X027078Y027008D01*
X027078Y027007D01*
X027078Y027007D01*
X027078Y027007D01*
X027079Y027007D01*
X027079Y027007D01*
X027079Y027007D01*
X02708Y027007D01*
X02708Y027007D01*
X02708Y027007D01*
X02708Y027007D01*
X02709Y027002D01*
X02709Y027002D01*
X02709Y027002D01*
X027091Y027001D01*
X027091Y027001D01*
X027091Y027001D01*
X027091Y027001D01*
X027091Y027001D01*
X027092Y027D01*
X027092Y027D01*
X027092Y027D01*
X027107Y026984D01*
X027107Y026984D01*
X027107Y026984D01*
X027107Y026983D01*
X027108Y026983D01*
X027108Y026983D01*
X027108Y026983D01*
X027108Y026983D01*
X027108Y026982D01*
X027108Y026982D01*
X027108Y026982D01*
X027117Y026961D01*
X027117Y026961D01*
X027117Y026961D01*
X027117Y026961D01*
X027117Y02696D01*
X027117Y02696D01*
X027117Y02696D01*
X027117Y02696D01*
X027117Y026959D01*
Y026959D01*
X027117Y026959D01*
X027118Y026937D01*
X027118Y026937D01*
X027118Y026937D01*
X027118Y026936D01*
X027118Y026936D01*
X027118Y026936D01*
X027118Y026936D01*
X027118Y026935D01*
X027118Y026935D01*
X027118Y026935D01*
X027118Y026934D01*
X027111Y026913D01*
X027111Y026913D01*
X027111Y026913D01*
X027111Y026913D01*
X027111Y026912D01*
X027111Y026912D01*
X027111Y026912D01*
X02711Y026912D01*
X02711Y026911D01*
X02711Y026911D01*
X02711Y026911D01*
X027096Y026894D01*
X027096Y026894D01*
X027096Y026894D01*
X027096Y026893D01*
X027095Y026893D01*
X027095Y026893D01*
X027095Y026893D01*
X027095Y026893D01*
X027095Y026892D01*
X027094Y026892D01*
X027094Y026892D01*
X027075Y026881D01*
X027075Y02688D01*
X027075Y02688D01*
X027075Y02688D01*
X027075Y02688D01*
X027074Y02688D01*
X027074Y02688D01*
X027074Y02688D01*
X027073Y02688D01*
X027073Y02688D01*
X027073Y02688D01*
X027051Y026875D01*
X027051Y026875D01*
X027051Y026875D01*
X027051Y026875D01*
X02705Y026875D01*
X02705Y026875D01*
X02705Y026875D01*
X02705Y026875D01*
X027049Y026875D01*
X027049Y026875D01*
X027049Y026875D01*
X027041Y026876D01*
X027041Y026876D01*
X027041Y026876D01*
X02704Y026876D01*
X02704Y026876D01*
X02704Y026876D01*
X02704Y026876D01*
X027039Y026877D01*
X027039Y026877D01*
X027037Y026877D01*
X027037Y026877D01*
X027037Y026877D01*
X027037Y026877D01*
X027037Y026877D01*
X027037Y026877D01*
X027004Y026887D01*
X027001Y026887D01*
X027001Y026888D01*
X027001Y026888D01*
X027Y026888D01*
X027Y026888D01*
X027Y026888D01*
X027Y026888D01*
X026994Y026891D01*
X026994Y026891D01*
X026994Y026891D01*
X026994Y026891D01*
X026994Y026892D01*
X026993Y026892D01*
X026993Y026892D01*
X026989Y026896D01*
X026989Y026896D01*
X026989Y026896D01*
X026988Y026896D01*
X026988Y026897D01*
X026988Y026897D01*
X026988Y026897D01*
X026985Y026902D01*
X026984Y026902D01*
X026984Y026902D01*
X026984Y026903D01*
X026984Y026903D01*
X026984Y026903D01*
X026984Y026903D01*
X026983Y026906D01*
X026983Y026906D01*
X026944Y027009D01*
X026944Y027009D01*
X026942Y027013D01*
X026942Y027014D01*
X026942Y027014D01*
X026942Y027014D01*
X026942Y027015D01*
X026942Y027015D01*
X026942Y027015D01*
X026942Y027015D01*
X026942Y027016D01*
X026942Y027016D01*
X026942Y027016D01*
X026942Y027026D01*
X026942Y027026D01*
X026942Y027027D01*
X026942Y027027D01*
X026942Y027027D01*
X026943Y027027D01*
X026943Y027028D01*
X026943Y027028D01*
X026943Y027028D01*
X026943Y027029D01*
X026943Y027029D01*
X026947Y027038D01*
X026947Y027038D01*
X026947Y027038D01*
X026947Y027039D01*
X026948Y027039D01*
X026948Y027039D01*
X026948Y027039D01*
X026948Y027039D01*
X026948Y02704D01*
X026948Y02704D01*
X026949Y02704D01*
X026956Y027047D01*
X026956Y027047D01*
X026956Y027047D01*
X026957Y027047D01*
X026957Y027048D01*
X026957Y027048D01*
X026957Y027048D01*
X026957Y027048D01*
X026958Y027048D01*
X026958Y027048D01*
X026958Y027048D01*
X026963Y02705D01*
X02701Y027068D01*
X02701Y027068D01*
X027014Y027069D01*
X027015Y027069D01*
X027015Y02707D01*
X027015Y02707D01*
X027015Y02707D01*
X027016Y02707D01*
X027016Y02707D01*
X027016Y02707D01*
X027016Y02707D01*
X027017Y02707D01*
X027017Y02707D01*
X027027Y02707D01*
D02*
G37*
G36*
X027065Y026469D02*
X027065Y026469D01*
X027065Y026469D01*
X027065Y026469D01*
X027066Y026469D01*
X027066Y026468D01*
X027066Y026468D01*
X027067Y026468D01*
X027088Y026462D01*
X027088Y026462D01*
X027088Y026461D01*
X027089Y026461D01*
X027089Y026461D01*
X027089Y026461D01*
X027089Y026461D01*
X02709Y026461D01*
X02709Y026461D01*
X02709Y026461D01*
X02709Y02646D01*
X027108Y026447D01*
X027108Y026446D01*
X027108Y026446D01*
X027109Y026446D01*
X027109Y026446D01*
X027109Y026446D01*
X027109Y026446D01*
X027109Y026445D01*
X027109Y026445D01*
X02711Y026445D01*
X02711Y026445D01*
X027121Y026425D01*
X027121Y026425D01*
X027122Y026425D01*
X027122Y026425D01*
X027122Y026424D01*
X027122Y026424D01*
X027122Y026424D01*
X027122Y026424D01*
X027122Y026423D01*
X027122Y026423D01*
X027122Y026423D01*
X027126Y026401D01*
X027127Y026401D01*
X027127Y026401D01*
X027127Y0264D01*
X027127Y0264D01*
X027127Y0264D01*
X027127Y0264D01*
X027127Y026399D01*
X027127Y026399D01*
X027127Y026399D01*
X027127Y026398D01*
X027123Y026376D01*
X027123Y026376D01*
X027123Y026376D01*
X027123Y026376D01*
X027122Y026375D01*
X027122Y026375D01*
X027122Y026375D01*
X027122Y026374D01*
X027122Y026374D01*
X027122Y026374D01*
X027122Y026374D01*
X02711Y026354D01*
X02711Y026354D01*
X02711Y026354D01*
X02711Y026354D01*
X02711Y026354D01*
X02711Y026353D01*
X02711Y026353D01*
X027109Y026353D01*
X027109Y026353D01*
X027109Y026353D01*
X027109Y026353D01*
X027091Y026338D01*
X027091Y026338D01*
X027091Y026338D01*
X027091Y026338D01*
X02709Y026338D01*
X02709Y026338D01*
X02709Y026338D01*
X02709Y026337D01*
X027089Y026337D01*
X027089Y026337D01*
X027089Y026337D01*
X02708Y026334D01*
X02708Y026334D01*
X027079Y026334D01*
X027079Y026334D01*
X027079Y026334D01*
X027079Y026334D01*
X027078Y026333D01*
X027078Y026333D01*
X027077Y026333D01*
X027077Y026333D01*
X027077Y026333D01*
X027077Y026333D01*
X027077Y026333D01*
X027077Y026333D01*
X027076Y026333D01*
X027075Y026333D01*
X02707Y026331D01*
X027066Y026328D01*
X027063Y026324D01*
X027062Y026322D01*
X027051Y026292D01*
Y026292D01*
X027051Y026292D01*
X027049Y026287D01*
X027049Y026287D01*
X027049Y026287D01*
X027049Y026286D01*
X027049Y026286D01*
X027049Y026286D01*
X027048Y026286D01*
X027048Y026285D01*
X027048Y026285D01*
X027048Y026285D01*
X027048Y026285D01*
X027041Y026278D01*
X027041Y026277D01*
X027041Y026277D01*
X02704Y026277D01*
X02704Y026277D01*
X02704Y026277D01*
X02704Y026276D01*
X027039Y026276D01*
X027039Y026276D01*
X027039Y026276D01*
X027039Y026276D01*
X02703Y026272D01*
X027029Y026272D01*
X027029Y026272D01*
X027029Y026272D01*
X027029Y026271D01*
X027028Y026271D01*
X027028Y026271D01*
X027028Y026271D01*
X027028Y026271D01*
X027027Y026271D01*
X027027Y026271D01*
X027017Y026271D01*
X027017Y026271D01*
X027017Y026271D01*
X027016Y026271D01*
X027016Y026271D01*
X027016Y026271D01*
X027015Y026271D01*
X027015Y026271D01*
X027015Y026271D01*
X027015Y026271D01*
X027014Y026271D01*
X02701Y026273D01*
X02701Y026273D01*
X026963Y026291D01*
X026963Y026291D01*
X026958Y026292D01*
X026958Y026293D01*
X026958Y026293D01*
X026957Y026293D01*
X026957Y026293D01*
X026957Y026293D01*
X026957Y026293D01*
X026957Y026293D01*
X026956Y026294D01*
X026956Y026294D01*
X026956Y026294D01*
X026949Y026301D01*
X026948Y026301D01*
X026948Y026301D01*
X026948Y026301D01*
X026948Y026301D01*
X026948Y026302D01*
X026948Y026302D01*
X026947Y026302D01*
X026947Y026302D01*
X026947Y026303D01*
X026947Y026303D01*
X026943Y026312D01*
X026943Y026312D01*
X026943Y026312D01*
X026943Y026313D01*
X026943Y026313D01*
X026943Y026313D01*
X026942Y026314D01*
X026942Y026314D01*
X026942Y026314D01*
X026942Y026314D01*
X026942Y026315D01*
X026942Y026325D01*
X026942Y026325D01*
X026942Y026325D01*
X026942Y026325D01*
X026942Y026326D01*
X026942Y026326D01*
X026942Y026326D01*
X026942Y026326D01*
X026942Y026327D01*
X026942Y026327D01*
X026942Y026327D01*
X026944Y026332D01*
X026944Y026332D01*
X026983Y026435D01*
X026983Y026435D01*
X026984Y026437D01*
X026984Y026438D01*
X026984Y026438D01*
X026984Y026438D01*
X026984Y026438D01*
X026984Y026439D01*
X026985Y026439D01*
X026988Y026444D01*
X026988Y026444D01*
X026988Y026444D01*
X026988Y026444D01*
X026989Y026445D01*
X026989Y026445D01*
X026989Y026445D01*
X026993Y026449D01*
X026993Y026449D01*
X026994Y026449D01*
X026994Y026449D01*
X026994Y02645D01*
X026994Y02645D01*
X026995Y02645D01*
X027Y026453D01*
X027Y026453D01*
X027Y026453D01*
X027Y026453D01*
X027001Y026453D01*
X027001Y026453D01*
X027001Y026453D01*
X027004Y026454D01*
X027004Y026454D01*
X027051Y026468D01*
X027051Y026468D01*
X027051Y026468D01*
X027051Y026468D01*
X027051Y026468D01*
X027052Y026468D01*
X027052Y026468D01*
X027052Y026468D01*
X027053Y026468D01*
X027053Y026468D01*
X027064Y026469D01*
X027064Y026469D01*
X027064Y026469D01*
X027065Y026469D01*
D02*
G37*
G36*
X028375Y026132D02*
X028376Y026132D01*
X028376Y026132D01*
X028376Y026132D01*
X028376Y026132D01*
X028377Y026132D01*
X028394Y026128D01*
X028395Y026128D01*
X028395Y026128D01*
X028395Y026128D01*
X028395Y026128D01*
X028396Y026128D01*
X028396Y026127D01*
X028412Y026118D01*
X028412Y026118D01*
X028413Y026118D01*
X028413Y026118D01*
X028413Y026118D01*
X028413Y026117D01*
X028414Y026117D01*
X028426Y026104D01*
X028426Y026103D01*
X028427Y026103D01*
X028427Y026103D01*
X028427Y026103D01*
X028427Y026102D01*
X028427Y026102D01*
X028431Y026094D01*
X028431Y026094D01*
X028431Y026094D01*
X028431Y026094D01*
X028431Y026093D01*
X028432Y026093D01*
X028432Y026093D01*
X028432Y026093D01*
X028432Y026092D01*
X028432Y026092D01*
X028432Y026092D01*
X028432Y026092D01*
X028432Y026091D01*
X028432Y026091D01*
X028432Y026091D01*
X028432Y026091D01*
Y026003D01*
X028432Y025995D01*
X028432Y025995D01*
X028432Y025994D01*
X028432Y025994D01*
X028432Y025994D01*
X028432Y025994D01*
X028432Y025993D01*
X028428Y02598D01*
X028428Y025979D01*
X028427Y025979D01*
X028427Y025979D01*
X028427Y025979D01*
X028427Y025978D01*
X028427Y025978D01*
X028419Y025966D01*
X028419Y025965D01*
X028419Y025965D01*
X028418Y025965D01*
X028418Y025965D01*
X028418Y025964D01*
X028418Y025964D01*
X028407Y025955D01*
X028406Y025954D01*
X028406Y025954D01*
X028406Y025954D01*
X028406Y025954D01*
X028406Y025954D01*
X028405Y025954D01*
X028399Y025951D01*
X028399Y025951D01*
X028392Y025948D01*
X028392Y025948D01*
X028392Y025948D01*
X028391Y025947D01*
X028391Y025947D01*
X028391Y025947D01*
X028391Y025947D01*
X028377Y025944D01*
X028376Y025944D01*
X028376Y025944D01*
X028376Y025944D01*
X028376Y025944D01*
X028375Y025944D01*
X028375Y025944D01*
X028361Y025944D01*
X028361Y025944D01*
X028361Y025944D01*
X02836Y025944D01*
X02836Y025944D01*
X02836Y025944D01*
X028359Y025944D01*
X028346Y025947D01*
X028345Y025947D01*
X028345Y025947D01*
X028345Y025947D01*
X028344Y025948D01*
X028344Y025948D01*
X028344Y025948D01*
X028338Y025951D01*
X028338Y025951D01*
X028331Y025954D01*
X028331Y025954D01*
X02833Y025954D01*
X02833Y025954D01*
X02833Y025954D01*
X02833Y025954D01*
X028329Y025955D01*
X028318Y025964D01*
X028318Y025964D01*
X028318Y025965D01*
X028318Y025965D01*
X028318Y025965D01*
X028317Y025965D01*
X028317Y025966D01*
X028309Y025978D01*
X028309Y025978D01*
X028309Y025979D01*
X028309Y025979D01*
X028309Y025979D01*
X028309Y025979D01*
X028308Y02598D01*
X028304Y025993D01*
X028304Y025994D01*
X028304Y025994D01*
X028304Y025994D01*
X028304Y025994D01*
X028304Y025995D01*
X028304Y025995D01*
Y026003D01*
Y026084D01*
X028304Y026084D01*
X028304Y026085D01*
X028304Y026085D01*
X028304Y026086D01*
X028304Y026086D01*
X028304Y026086D01*
X028304Y026086D01*
X028304Y026087D01*
X028304Y026087D01*
X028304Y026087D01*
X028305Y026087D01*
X028305Y026088D01*
X028305Y026088D01*
X028308Y026095D01*
X028308Y026096D01*
X028308Y026096D01*
X028308Y026096D01*
X028308Y026096D01*
X028308Y026097D01*
X028309Y026097D01*
X028319Y026112D01*
X02832Y026112D01*
X02832Y026112D01*
X02832Y026112D01*
X02832Y026112D01*
X028321Y026113D01*
X028321Y026113D01*
X028335Y026124D01*
X028336Y026124D01*
X028336Y026124D01*
X028336Y026124D01*
X028336Y026124D01*
X028337Y026125D01*
X028337Y026125D01*
X028354Y026131D01*
X028355Y026131D01*
X028355Y026131D01*
X028355Y026131D01*
X028355Y026131D01*
X028356Y026131D01*
X028356Y026131D01*
X028375Y026132D01*
X028375Y026132D01*
D02*
G37*
D15*
X02704Y026944D02*
D03*
D16*
X02818Y027363D02*
D03*
X02837Y026057D02*
D03*
D17*
X02704Y026397D02*
D03*
M02*
