G04 Layer_Color=127485*
%FSTAX42Y42*%
%MOMM*%
G71*
G01*
G75*
%ADD10C,0.61*%
%ADD18C,0.20*%
%ADD19C,0.13*%
%ADD20C,0.20*%
%ADD21C,0.13*%
%ADD22C,0.13*%
%ADD23C,0.60*%
%ADD24C,0.38*%
%ADD25C,0.25*%
%ADD26C,0.01*%
%ADD27C,0.00*%
%ADD28C,0.41*%
G36*
X044992Y025925D02*
X044941Y026075D01*
X045043D01*
X044992Y025925D01*
D02*
G37*
G36*
X045048Y028421D02*
X044946D01*
X044997Y028571D01*
X045048Y028421D01*
D02*
G37*
D10*
X038926Y027947D02*
Y02857D01*
D18*
X028236Y027401D02*
G03*
X028205Y027446I-00005J-000001D01*
G01*
D02*
G03*
X028151Y027445I-000026J-000062D01*
G01*
Y027445D02*
G03*
X028122Y027397I000021J-000045D01*
G01*
X028193Y027135D02*
G03*
X028242Y027185I-000001J00005D01*
G01*
X028048Y027131D02*
G03*
X027975Y027096I000003J-0001D01*
G01*
X027987Y02726D02*
G03*
X027913Y027225I000003J-0001D01*
G01*
X027884Y02699D02*
G03*
X02786Y026925I000076J-000065D01*
G01*
X028423Y026205D02*
G03*
X028372Y026254I-00005J-000001D01*
G01*
X0284Y025968D02*
G03*
X028428Y026013I-000022J000045D01*
G01*
X028345Y025967D02*
G03*
X0284Y025968I000026J000062D01*
G01*
X028314Y026012D02*
G03*
X028345Y025967I00005J000001D01*
G01*
X02786Y026446D02*
G03*
X027888Y026376I0001J0D01*
G01*
X027984Y026276D02*
G03*
X028059Y026246I000072J000069D01*
G01*
X02793Y026145D02*
G03*
X028005Y026114I000072J000069D01*
G01*
X027647Y026967D02*
G03*
X027724Y027002I0J0001D01*
G01*
X027393Y026558D02*
G03*
X027458Y026645I-000025J000087D01*
G01*
Y026696D02*
G03*
X027393Y026783I-00009J0D01*
G01*
X027044Y027046D02*
G03*
X027012Y027061I-000023J-000009D01*
G01*
X026965Y027044D02*
G03*
X026951Y027011I000009J-000023D01*
G01*
X027056Y027017D02*
G03*
X027077Y027001I000023J000009D01*
G01*
X026989Y026909D02*
G03*
X027006Y026893I000023J000009D01*
G01*
X027739Y026344D02*
G03*
X027667Y026374I-000072J-000069D01*
G01*
X027006Y026447D02*
G03*
X026989Y026432I000007J-000024D01*
G01*
X027077Y02634D02*
G03*
X027056Y026324I000002J-000025D01*
G01*
X026951Y026329D02*
G03*
X026965Y026297I000023J-000009D01*
G01*
X027012Y02628D02*
G03*
X027044Y026294I000009J000023D01*
G01*
X028236Y027401D02*
X028242Y027186D01*
X028122Y027397D02*
X028129Y027263D01*
X027987Y02726D02*
X028129Y027263D01*
X028048Y027131D02*
X028193Y027135D01*
X027917Y027029D02*
X027967Y027087D01*
X027724Y027002D02*
X027913Y027225D01*
X027884Y02699D02*
X027917Y027029D01*
X02786Y026446D02*
Y026925D01*
X028423Y026205D02*
X028428Y026015D01*
X028161Y026248D02*
X028372Y026254D01*
X028005Y026114D02*
X028312Y026122D01*
X028314Y026012D01*
X027898Y026366D02*
X027953Y026309D01*
X027979Y026282D01*
X027739Y026344D02*
X02793Y026145D01*
X028059Y026246D02*
X028161Y026248D01*
X027464Y026967D02*
X027647D01*
X027077Y027001D02*
X027319Y026979D01*
X027464Y026967D01*
X027458Y026645D02*
Y026696D01*
X027006Y026893D02*
X027393Y026783D01*
X027044Y027046D02*
X027056Y027017D01*
X026965Y027044D02*
X027012Y027061D01*
X026951Y027011D02*
X026989Y026909D01*
X027464Y026374D02*
X027667D01*
X027006Y026447D02*
X027393Y026558D01*
X027352Y026364D02*
X027451Y026373D01*
X027319Y026362D02*
X027352Y026364D01*
X027285Y026359D02*
X027319Y026362D01*
X027077Y02634D02*
X027285Y026359D01*
X026951Y026329D02*
X026989Y026432D01*
X027044Y026294D02*
X027056Y026324D01*
X026965Y026297D02*
X027012Y02628D01*
D19*
X02699Y026893D02*
Y026994D01*
X027091D01*
Y026893D01*
X02699D01*
X028129Y027312D02*
Y027414D01*
X028231D01*
Y027312D01*
X028129D01*
X028319Y026007D02*
Y026108D01*
X028421D01*
Y026007D01*
X028319D01*
X02699Y026347D02*
Y026448D01*
X027091D01*
Y026347D01*
X02699D01*
D20*
X02776Y026687D02*
G03*
X02771Y026737I-00005J0D01*
G01*
Y026603D02*
G03*
X02776Y026653I0J00005D01*
G01*
X027608Y026737D02*
G03*
X027558Y026687I0J-00005D01*
G01*
Y026653D02*
G03*
X027608Y026603I00005J0D01*
G01*
X02776Y026653D02*
Y026687D01*
X027608Y026603D02*
X02771D01*
X027608Y026737D02*
X02771D01*
X027558Y026653D02*
Y026687D01*
D21*
X05786Y021475D02*
G03*
X057691Y021644I-000169J-0D01*
G01*
Y020968D02*
G03*
X05786Y021137I0J000169D01*
G01*
X057353Y021644D02*
G03*
X057184Y021475I0J-000169D01*
G01*
X057522Y021558D02*
G03*
X05727Y021306I0J-000252D01*
G01*
D02*
G03*
X057522Y021053I000252J-0D01*
G01*
D02*
G03*
X057774Y021306I-0J000252D01*
G01*
D02*
G03*
X057522Y021558I-000252J-0D01*
G01*
X057634Y021165D02*
G03*
X057674Y021215I-000073J0001D01*
G01*
X057589Y021143D02*
G03*
X057634Y021165I-00004J00014D01*
G01*
X057576Y02114D02*
G03*
X057589Y021143I-000028J000146D01*
G01*
X057419Y021159D02*
G03*
X057469Y02114I000076J000123D01*
G01*
X05738Y021197D02*
G03*
X057419Y021159I000103J000068D01*
G01*
X057372Y021211D02*
G03*
X05738Y021197I000119J000059D01*
G01*
X057353Y021306D02*
G03*
X057353Y021294I000327J-0D01*
G01*
X059036Y021053D02*
G03*
X059063Y021044I000035J000067D01*
G01*
X059015Y021069D02*
G03*
X059029Y021057I000046J000036D01*
G01*
X05901Y021077D02*
G03*
X059015Y021069I000053J00003D01*
G01*
X059008Y021083D02*
G03*
X05901Y021077I000062J000027D01*
G01*
X059Y021127D02*
G03*
X059Y021121I000167J-0D01*
G01*
X059084Y021142D02*
G03*
X059084Y021141I000048J-0D01*
G01*
X059086Y02113D02*
G03*
X059087Y021128I000018J000008D01*
G01*
X059087D02*
G03*
X059092Y021123I000015J000008D01*
G01*
X059092D02*
G03*
X059093Y021122I000011J000014D01*
G01*
X059094Y021121D02*
G03*
X059101Y021119I000011J000019D01*
G01*
X059149Y021241D02*
G03*
X059346Y021044I000197J0D01*
G01*
Y021438D02*
G03*
X059149Y021241I-0J-000197D01*
G01*
X059542D02*
G03*
X059346Y021438I-000197J-0D01*
G01*
Y021044D02*
G03*
X059542Y021241I-0J000197D01*
G01*
X059346Y021363D02*
G03*
X059284Y021343I0J-000106D01*
G01*
Y021343D02*
G03*
X059253Y02131I000068J-000096D01*
G01*
D02*
G03*
X059233Y021241I000109J-000069D01*
G01*
D02*
G03*
X059235Y021215I000133J-0D01*
G01*
Y021215D02*
G03*
X059268Y021151I000123J000023D01*
G01*
X059268Y021151D02*
G03*
X059346Y021118I000078J000074D01*
G01*
Y021118D02*
G03*
X059407Y021138I-0J000106D01*
G01*
D02*
G03*
X059438Y021171I-000068J000096D01*
G01*
D02*
G03*
X059458Y021241I-000109J000069D01*
G01*
D02*
G03*
X059456Y021266I-000133J0D01*
G01*
D02*
G03*
X059423Y02133I-000123J-000023D01*
G01*
Y02133D02*
G03*
X059346Y021363I-000078J-000075D01*
G01*
X058853Y021053D02*
G03*
X05888Y021044I000035J000067D01*
G01*
X058833Y021069D02*
G03*
X058846Y021057I000046J000036D01*
G01*
X058828Y021077D02*
G03*
X058833Y021069I000053J00003D01*
G01*
X058825Y021083D02*
G03*
X058828Y021077I000062J000027D01*
G01*
X058817Y021127D02*
G03*
X058817Y021121I000167J-0D01*
G01*
X058904Y02113D02*
G03*
X058904Y021128I000018J000008D01*
G01*
D02*
G03*
X058908Y021123I000015J000008D01*
G01*
D02*
G03*
X05891Y021122I000011J000013D01*
G01*
X058911Y021122D02*
G03*
X058918Y021119I000011J000019D01*
G01*
X058527Y021305D02*
G03*
X058519Y02128I000164J-000065D01*
G01*
X058568Y021356D02*
G03*
X058548Y021342I000024J-000054D01*
G01*
X058573Y021358D02*
G03*
X058568Y021356I000021J-000062D01*
G01*
X058682Y021356D02*
G03*
X058679Y021357I-000015J-000023D01*
G01*
X058688Y02135D02*
G03*
X058682Y021356I-000019J-000014D01*
G01*
X05869Y021347D02*
G03*
X058688Y02135I-000021J-000011D01*
G01*
X058694Y021329D02*
G03*
X058693Y021337I-00008J-000008D01*
G01*
X05869Y021285D02*
G03*
X058694Y021301I-000056J000023D01*
G01*
X058686Y021277D02*
G03*
X058688Y021281I-000015J000014D01*
G01*
X058684Y021276D02*
G03*
X058686Y021277I-000014J000016D01*
G01*
X058683Y021117D02*
G03*
X058703Y02112I-00002J000178D01*
G01*
X058541Y021136D02*
G03*
X058557Y021124I000035J000031D01*
G01*
X058537Y021141D02*
G03*
X058541Y021136I000042J000029D01*
G01*
X058521Y021193D02*
G03*
X058521Y021192I000022J-000001D01*
G01*
X058522Y021197D02*
G03*
X058522Y021196I000005J-000002D01*
G01*
X058523Y021198D02*
G03*
X058522Y021197I000002J-000003D01*
G01*
X058523Y021199D02*
G03*
X058523Y021198I000002J-000003D01*
G01*
X058524Y021199D02*
G03*
X058523Y021199I000002J-000004D01*
G01*
X058744Y021218D02*
G03*
X05875Y021222I-000035J00006D01*
G01*
D02*
G03*
X058767Y021241I-000032J000045D01*
G01*
X05877Y02138D02*
G03*
X058761Y021396I-000062J-000022D01*
G01*
D02*
G03*
X058755Y021404I-000057J-000042D01*
G01*
X058755D02*
G03*
X05875Y021409I-000057J-000054D01*
G01*
D02*
G03*
X058743Y021414I-000056J-000066D01*
G01*
X05872Y021426D02*
G03*
X058708Y02143I-000047J-000124D01*
G01*
X058543Y021431D02*
G03*
X058472Y021391I00004J-000154D01*
G01*
X058472Y021391D02*
G03*
X058457Y021375I000099J-000102D01*
G01*
Y021375D02*
G03*
X058442Y021349I000098J-000074D01*
G01*
X058428Y021239D02*
G03*
X058428Y021236I030034J-000002D01*
G01*
D02*
G03*
X058428Y021233I010259J-0D01*
G01*
X058439Y021131D02*
G03*
X058455Y0211I000101J000034D01*
G01*
X058455Y0211D02*
G03*
X058469Y021085I000091J00007D01*
G01*
Y021085D02*
G03*
X058482Y021075I000086J000095D01*
G01*
D02*
G03*
X058496Y021066I000081J000116D01*
G01*
D02*
G03*
X058515Y021057I000074J000138D01*
G01*
X058694Y021047D02*
G03*
X058715Y021051I-00003J00021D01*
G01*
X058114Y021248D02*
G03*
X058114Y021241I000494J-000007D01*
G01*
X058143Y021346D02*
G03*
X058132Y021335I000034J-000042D01*
G01*
X058153Y021353D02*
G03*
X058143Y021346I000026J-000051D01*
G01*
X058159Y021355D02*
G03*
X058153Y021353I000023J-000058D01*
G01*
X058265Y021353D02*
G03*
X058259Y021356I-000026J-000053D01*
G01*
X058281Y02134D02*
G03*
X058265Y021353I-000038J-000032D01*
G01*
X058285Y021336D02*
G03*
X058281Y02134I-000044J-000029D01*
G01*
X058363Y021384D02*
G03*
X058334Y021416I-000082J-000046D01*
G01*
X058328Y02142D02*
G03*
X058309Y021429I-000061J-000102D01*
G01*
X058309Y021429D02*
G03*
X058297Y021433I-000044J-000118D01*
G01*
X058182Y021435D02*
G03*
X058149Y021422I00002J-000097D01*
G01*
X058149Y021422D02*
G03*
X05814Y021415I000058J-00009D01*
G01*
X058072Y021579D02*
G03*
X058029Y021536I0J-000042D01*
G01*
D22*
X058901Y021142D02*
D03*
X058522Y021197D02*
D03*
D23*
X038925Y025924D02*
Y027521D01*
Y026423D02*
X043571D01*
X038925D02*
Y02802D01*
X038904Y026421D02*
X043545D01*
X038904Y025923D02*
X043545D01*
X03893Y026921D02*
X043571D01*
X038932Y027456D02*
X043573D01*
X038926Y02857D02*
X043563D01*
X038925Y02802D02*
X043571D01*
D24*
X024924Y033191D02*
X034777D01*
X024924Y03281D02*
X034777D01*
X024924Y032429D02*
X034777D01*
Y033572D01*
X024924D02*
X034777D01*
X024924Y032429D02*
Y033572D01*
X033377Y032429D02*
Y033572D01*
X031514Y032429D02*
Y033572D01*
X028096Y032429D02*
Y033572D01*
X026323Y032429D02*
Y033572D01*
D25*
X025161Y032925D02*
X025224Y033052D01*
X025097D02*
X025224D01*
X025097D02*
X025161Y032925D01*
X039406Y026256D02*
X039381Y026281D01*
X03933D01*
X039305Y026256D01*
Y026154D01*
X03933Y026129D01*
X039381D01*
X039406Y026154D01*
X039482Y026129D02*
X039533D01*
X039559Y026154D01*
Y026205D01*
X039533Y02623D01*
X039482D01*
X039457Y026205D01*
Y026154D01*
X039482Y026129D01*
X039609Y02623D02*
X03966Y026129D01*
X039711Y02623D01*
X039838Y026129D02*
X039787D01*
X039762Y026154D01*
Y026205D01*
X039787Y02623D01*
X039838D01*
X039863Y026205D01*
Y02618D01*
X039762D01*
X039914Y02623D02*
Y026129D01*
Y02618D01*
X039939Y026205D01*
X039965Y02623D01*
X03999D01*
X040066Y026129D02*
X040117D01*
X040092D01*
Y026281D01*
X040066D01*
X040219Y02623D02*
X04027D01*
X040295Y026205D01*
Y026129D01*
X040219D01*
X040193Y026154D01*
X040219Y02618D01*
X040295D01*
X040346Y02623D02*
Y026154D01*
X040371Y026129D01*
X040447D01*
Y026103D01*
X040422Y026078D01*
X040397D01*
X040447Y026129D02*
Y02623D01*
X040854Y026129D02*
X040803Y02618D01*
Y02623D01*
X040854Y026281D01*
X04093Y026129D02*
Y026154D01*
X040955D01*
Y026129D01*
X04093D01*
X041057Y026256D02*
X041082Y026281D01*
X041133D01*
X041158Y026256D01*
Y026154D01*
X041133Y026129D01*
X041082D01*
X041057Y026154D01*
Y026256D01*
X041209Y026129D02*
X04126D01*
X041234D01*
Y026281D01*
X041209Y026256D01*
X041438Y026129D02*
X041336D01*
X041438Y02623D01*
Y026256D01*
X041412Y026281D01*
X041361D01*
X041336Y026256D01*
X04159Y026281D02*
X041488D01*
Y026205D01*
X041539Y02623D01*
X041565D01*
X04159Y026205D01*
Y026154D01*
X041565Y026129D01*
X041514D01*
X041488Y026154D01*
X041641Y026129D02*
Y02623D01*
X041666D01*
X041692Y026205D01*
Y026129D01*
Y026205D01*
X041717Y02623D01*
X041742Y026205D01*
Y026129D01*
X041793D02*
Y02623D01*
X041818D01*
X041844Y026205D01*
Y026129D01*
Y026205D01*
X041869Y02623D01*
X041895Y026205D01*
Y026129D01*
X041945D02*
X041996Y02618D01*
Y02623D01*
X041945Y026281D01*
X033492Y032925D02*
Y033077D01*
X033568D01*
X033593Y033052D01*
Y033001D01*
X033568Y032975D01*
X033492D01*
X033644Y033077D02*
X033746D01*
X033695D01*
Y032925D01*
X033796Y033077D02*
Y032925D01*
Y033001D01*
X033898D01*
Y033077D01*
Y032925D01*
X031628D02*
Y033077D01*
X031704D01*
X031729Y033052D01*
Y033001D01*
X031704Y032975D01*
X031628D01*
X031679D02*
X031729Y032925D01*
X031806D02*
X031856D01*
X031882Y03295D01*
Y033001D01*
X031856Y033026D01*
X031806D01*
X03178Y033001D01*
Y03295D01*
X031806Y032925D01*
X031933Y033026D02*
Y03295D01*
X031958Y032925D01*
X032034D01*
Y033026D01*
X032085Y032925D02*
Y033026D01*
X032161D01*
X032186Y033001D01*
Y032925D01*
X032339Y033077D02*
Y032925D01*
X032263D01*
X032237Y03295D01*
Y033001D01*
X032263Y033026D01*
X032339D01*
X02821Y033052D02*
X028235Y033077D01*
X028286D01*
X028312Y033052D01*
Y03295D01*
X028286Y032925D01*
X028235D01*
X02821Y03295D01*
Y033052D01*
X028362Y032925D02*
Y03295D01*
X028388D01*
Y032925D01*
X028362D01*
X028565D02*
Y033077D01*
X028489Y033001D01*
X028591D01*
X028642Y032925D02*
Y033026D01*
X028667D01*
X028692Y033001D01*
Y032925D01*
Y033001D01*
X028718Y033026D01*
X028743Y033001D01*
Y032925D01*
X028794D02*
Y033026D01*
X028819D01*
X028845Y033001D01*
Y032925D01*
Y033001D01*
X02887Y033026D01*
X028896Y033001D01*
Y032925D01*
X026514Y032544D02*
Y032696D01*
X026438Y03262D01*
X026539D01*
X026742Y032696D02*
X026844D01*
X026793D01*
Y032544D01*
X02692D02*
X026971D01*
X026996Y032569D01*
Y03262D01*
X026971Y032645D01*
X02692D01*
X026895Y03262D01*
Y032569D01*
X02692Y032544D01*
X027072Y032671D02*
Y032645D01*
X027047D01*
X027098D01*
X027072D01*
Y032569D01*
X027098Y032544D01*
X027199Y032645D02*
X02725D01*
X027275Y03262D01*
Y032544D01*
X027199D01*
X027174Y032569D01*
X027199Y032594D01*
X027275D01*
X027326Y032544D02*
X027377D01*
X027352D01*
Y032696D01*
X027326D01*
X026514Y032925D02*
Y033077D01*
X026438Y033001D01*
X026539D01*
X025132Y041224D02*
X025183D01*
X025158D01*
Y041376D01*
X025132Y041351D01*
X025259Y041224D02*
Y041249D01*
X025285D01*
Y041224D01*
X025259D01*
X025539D02*
Y041376D01*
X025589Y041326D01*
X02564Y041376D01*
Y041224D01*
X025716Y041326D02*
X025767D01*
X025792Y0413D01*
Y041224D01*
X025716D01*
X025691Y041249D01*
X025716Y041275D01*
X025792D01*
X025869Y041351D02*
Y041326D01*
X025843D01*
X025894D01*
X025869D01*
Y041249D01*
X025894Y041224D01*
X026046D02*
X025996D01*
X02597Y041249D01*
Y0413D01*
X025996Y041326D01*
X026046D01*
X026072Y0413D01*
Y041275D01*
X02597D01*
X026123Y041326D02*
Y041224D01*
Y041275D01*
X026148Y0413D01*
X026173Y041326D01*
X026199D01*
X026275Y041224D02*
X026326D01*
X0263D01*
Y041326D01*
X026275D01*
X026427D02*
X026478D01*
X026503Y0413D01*
Y041224D01*
X026427D01*
X026402Y041249D01*
X026427Y041275D01*
X026503D01*
X026554Y041224D02*
X026605D01*
X02658D01*
Y041376D01*
X026554D01*
X026681Y041326D02*
X026707D01*
Y0413D01*
X026681D01*
Y041326D01*
Y041249D02*
X026707D01*
Y041224D01*
X026681D01*
Y041249D01*
X025213Y040821D02*
X025111D01*
X025213Y040922D01*
Y040948D01*
X025187Y040973D01*
X025136D01*
X025111Y040948D01*
X025263Y040821D02*
Y040846D01*
X025289D01*
Y040821D01*
X025263D01*
X025543D02*
Y040973D01*
X025644Y040821D01*
Y040973D01*
X025695Y040922D02*
Y040846D01*
X02572Y040821D01*
X025797D01*
Y040922D01*
X025847Y040821D02*
Y040922D01*
X025873D01*
X025898Y040897D01*
Y040821D01*
Y040897D01*
X025923Y040922D01*
X025949Y040897D01*
Y040821D01*
X026Y040973D02*
Y040821D01*
X026076D01*
X026101Y040846D01*
Y040871D01*
Y040897D01*
X026076Y040922D01*
X026D01*
X026228Y040821D02*
X026177D01*
X026152Y040846D01*
Y040897D01*
X026177Y040922D01*
X026228D01*
X026254Y040897D01*
Y040871D01*
X026152D01*
X026304Y040922D02*
Y040821D01*
Y040871D01*
X02633Y040897D01*
X026355Y040922D01*
X026381D01*
X026634Y040821D02*
X026685D01*
X026711Y040846D01*
Y040897D01*
X026685Y040922D01*
X026634D01*
X026609Y040897D01*
Y040846D01*
X026634Y040821D01*
X026787D02*
Y040948D01*
Y040897D01*
X026761D01*
X026812D01*
X026787D01*
Y040948D01*
X026812Y040973D01*
X027117Y040821D02*
X027066D01*
X027041Y040846D01*
Y040897D01*
X027066Y040922D01*
X027117D01*
X027142Y040897D01*
Y040871D01*
X027041D01*
X027193Y040821D02*
X027244D01*
X027218D01*
Y040973D01*
X027193D01*
X027396Y040821D02*
X027345D01*
X02732Y040846D01*
Y040897D01*
X027345Y040922D01*
X027396D01*
X027422Y040897D01*
Y040871D01*
X02732D01*
X027574Y040922D02*
X027498D01*
X027472Y040897D01*
Y040846D01*
X027498Y040821D01*
X027574D01*
X02765Y040948D02*
Y040922D01*
X027625D01*
X027676D01*
X02765D01*
Y040846D01*
X027676Y040821D01*
X027752Y040922D02*
Y040821D01*
Y040871D01*
X027777Y040897D01*
X027802Y040922D01*
X027828D01*
X027904Y040821D02*
X027955D01*
X027929D01*
Y040922D01*
X027904D01*
X028133D02*
X028056D01*
X028031Y040897D01*
Y040846D01*
X028056Y040821D01*
X028133D01*
X028209Y040922D02*
X02826D01*
X028285Y040897D01*
Y040821D01*
X028209D01*
X028183Y040846D01*
X028209Y040871D01*
X028285D01*
X028336Y040821D02*
X028386D01*
X028361D01*
Y040973D01*
X028336D01*
X028615Y040821D02*
X028666D01*
X02864D01*
Y040973D01*
X028615D01*
X028767Y040922D02*
X028818D01*
X028844Y040897D01*
Y040821D01*
X028767D01*
X028742Y040846D01*
X028767Y040871D01*
X028844D01*
X028894Y040922D02*
Y040846D01*
X02892Y040821D01*
X028996D01*
Y040795D01*
X02897Y04077D01*
X028945D01*
X028996Y040821D02*
Y040922D01*
X029123Y040821D02*
X029072D01*
X029047Y040846D01*
Y040897D01*
X029072Y040922D01*
X029123D01*
X029148Y040897D01*
Y040871D01*
X029047D01*
X029199Y040922D02*
Y040821D01*
Y040871D01*
X029224Y040897D01*
X02925Y040922D01*
X029275D01*
X029351Y040821D02*
X029428D01*
X029453Y040846D01*
X029428Y040871D01*
X029377D01*
X029351Y040897D01*
X029377Y040922D01*
X029453D01*
X029504D02*
X029529D01*
Y040897D01*
X029504D01*
Y040922D01*
Y040846D02*
X029529D01*
Y040821D01*
X029504D01*
Y040846D01*
X029783Y040821D02*
X029834D01*
X029808D01*
Y040973D01*
X029783Y040948D01*
X025114Y040576D02*
X025139Y040602D01*
X02519D01*
X025215Y040576D01*
Y040551D01*
X02519Y040526D01*
X025164D01*
X02519D01*
X025215Y0405D01*
Y040475D01*
X02519Y040449D01*
X025139D01*
X025114Y040475D01*
X025266Y040449D02*
Y040475D01*
X025291D01*
Y040449D01*
X025266D01*
X025545Y040602D02*
X025647D01*
X025596D01*
Y040449D01*
X025698Y040551D02*
Y040449D01*
Y0405D01*
X025723Y040526D01*
X025748Y040551D01*
X025774D01*
X025875D02*
X025926D01*
X025952Y040526D01*
Y040449D01*
X025875D01*
X02585Y040475D01*
X025875Y0405D01*
X025952D01*
X026104Y040551D02*
X026028D01*
X026002Y040526D01*
Y040475D01*
X026028Y040449D01*
X026104D01*
X026231D02*
X02618D01*
X026155Y040475D01*
Y040526D01*
X02618Y040551D01*
X026231D01*
X026256Y040526D01*
Y0405D01*
X026155D01*
X026459Y040449D02*
X026561Y040551D01*
X026866Y040576D02*
X02684Y040602D01*
X026789D01*
X026764Y040576D01*
Y040551D01*
X026789Y040526D01*
X02684D01*
X026866Y0405D01*
Y040475D01*
X02684Y040449D01*
X026789D01*
X026764Y040475D01*
X026916Y040399D02*
Y040551D01*
X026993D01*
X027018Y040526D01*
Y040475D01*
X026993Y040449D01*
X026916D01*
X027094Y040551D02*
X027145D01*
X02717Y040526D01*
Y040449D01*
X027094D01*
X027069Y040475D01*
X027094Y0405D01*
X02717D01*
X027323Y040551D02*
X027247D01*
X027221Y040526D01*
Y040475D01*
X027247Y040449D01*
X027323D01*
X02745D02*
X027399D01*
X027373Y040475D01*
Y040526D01*
X027399Y040551D01*
X02745D01*
X027475Y040526D01*
Y0405D01*
X027373D01*
X027678Y040449D02*
Y040551D01*
X027704D01*
X027729Y040526D01*
Y040449D01*
Y040526D01*
X027754Y040551D01*
X02778Y040526D01*
Y040449D01*
X027831D02*
X027881D01*
X027856D01*
Y040551D01*
X027831D01*
X027957Y040449D02*
Y040551D01*
X028034D01*
X028059Y040526D01*
Y040449D01*
X02811D02*
X028161D01*
X028135D01*
Y040551D01*
X02811D01*
X028237Y040449D02*
Y040551D01*
X028262D01*
X028288Y040526D01*
Y040449D01*
Y040526D01*
X028313Y040551D01*
X028338Y040526D01*
Y040449D01*
X028389Y040551D02*
Y040475D01*
X028415Y040449D01*
X028491D01*
Y040551D01*
X028542Y040449D02*
Y040551D01*
X028567D01*
X028592Y040526D01*
Y040449D01*
Y040526D01*
X028618Y040551D01*
X028643Y040526D01*
Y040449D01*
X028694Y040551D02*
X028719D01*
Y040526D01*
X028694D01*
Y040551D01*
Y040475D02*
X028719D01*
Y040449D01*
X028694D01*
Y040475D01*
X029075Y040602D02*
X028973D01*
Y040526D01*
X029024Y040551D01*
X029049D01*
X029075Y040526D01*
Y040475D01*
X029049Y040449D01*
X028999D01*
X028973Y040475D01*
X029126Y040449D02*
Y040551D01*
X029151D01*
X029176Y040526D01*
Y040449D01*
Y040526D01*
X029202Y040551D01*
X029227Y040526D01*
Y040449D01*
X029278D02*
X029329D01*
X029303D01*
Y040551D01*
X029278D01*
X029405Y040449D02*
X029456D01*
X02943D01*
Y040602D01*
X029405D01*
X029735Y040449D02*
X029684Y0405D01*
Y040551D01*
X029735Y040602D01*
X029836Y040551D02*
X029887D01*
X029913Y040526D01*
Y040449D01*
X029836D01*
X029811Y040475D01*
X029836Y0405D01*
X029913D01*
X029963Y040449D02*
X030014D01*
X029989D01*
Y040602D01*
X029963D01*
X03009Y040449D02*
X030141D01*
X030116D01*
Y040602D01*
X03009D01*
X03037Y040449D02*
X030421D01*
X030395D01*
Y040602D01*
X03037D01*
X030522Y040551D02*
X030573D01*
X030598Y040526D01*
Y040449D01*
X030522D01*
X030497Y040475D01*
X030522Y0405D01*
X030598D01*
X030649Y040551D02*
Y040475D01*
X030674Y040449D01*
X030751D01*
Y040424D01*
X030725Y040399D01*
X0307D01*
X030751Y040449D02*
Y040551D01*
X030878Y040449D02*
X030827D01*
X030801Y040475D01*
Y040526D01*
X030827Y040551D01*
X030878D01*
X030903Y040526D01*
Y0405D01*
X030801D01*
X030954Y040551D02*
Y040449D01*
Y0405D01*
X030979Y040526D01*
X031005Y040551D01*
X03103D01*
X031106Y040449D02*
X031182D01*
X031208Y040475D01*
X031182Y0405D01*
X031131D01*
X031106Y040526D01*
X031131Y040551D01*
X031208D01*
X031258Y040449D02*
X031309Y0405D01*
Y040551D01*
X031258Y040602D01*
X02519Y040081D02*
Y040233D01*
X025114Y040157D01*
X025215D01*
X025266Y040081D02*
Y040106D01*
X025291D01*
Y040081D01*
X025266D01*
X025545Y040233D02*
X025647D01*
X025596D01*
Y040081D01*
X025698Y040233D02*
Y040081D01*
Y040157D01*
X025723Y040182D01*
X025774D01*
X025799Y040157D01*
Y040081D01*
X02585D02*
X025901D01*
X025875D01*
Y040182D01*
X02585D01*
X026079D02*
X026002D01*
X025977Y040157D01*
Y040106D01*
X026002Y040081D01*
X026079D01*
X026129D02*
Y040233D01*
Y040132D02*
X026205Y040182D01*
X026129Y040132D02*
X026205Y040081D01*
X026282D02*
Y040182D01*
X026358D01*
X026383Y040157D01*
Y040081D01*
X02651D02*
X026459D01*
X026434Y040106D01*
Y040157D01*
X026459Y040182D01*
X02651D01*
X026536Y040157D01*
Y040132D01*
X026434D01*
X026586Y040081D02*
X026663D01*
X026688Y040106D01*
X026663Y040132D01*
X026612D01*
X026586Y040157D01*
X026612Y040182D01*
X026688D01*
X026739Y040081D02*
X026815D01*
X02684Y040106D01*
X026815Y040132D01*
X026764D01*
X026739Y040157D01*
X026764Y040182D01*
X02684D01*
X026891D02*
X026916D01*
Y040157D01*
X026891D01*
Y040182D01*
Y040106D02*
X026916D01*
Y040081D01*
X026891D01*
Y040106D01*
X02717Y040208D02*
X027196Y040233D01*
X027247D01*
X027272Y040208D01*
Y040106D01*
X027247Y040081D01*
X027196D01*
X02717Y040106D01*
Y040208D01*
X027323Y040081D02*
Y040106D01*
X027348D01*
Y040081D01*
X027323D01*
X02745Y040208D02*
X027475Y040233D01*
X027526D01*
X027551Y040208D01*
Y040106D01*
X027526Y040081D01*
X027475D01*
X02745Y040106D01*
Y040208D01*
X027602Y040106D02*
X027627Y040081D01*
X027678D01*
X027704Y040106D01*
Y040208D01*
X027678Y040233D01*
X027627D01*
X027602Y040208D01*
Y040182D01*
X027627Y040157D01*
X027704D01*
X027831Y040081D02*
Y040233D01*
X027754Y040157D01*
X027856D01*
X028059Y040081D02*
Y040182D01*
X028084D01*
X02811Y040157D01*
Y040081D01*
Y040157D01*
X028135Y040182D01*
X028161Y040157D01*
Y040081D01*
X028211D02*
Y040182D01*
X028237D01*
X028262Y040157D01*
Y040081D01*
Y040157D01*
X028288Y040182D01*
X028313Y040157D01*
Y040081D01*
X028516Y040157D02*
X028618D01*
X028567Y040208D02*
Y040106D01*
X028668Y040081D02*
X02877Y040182D01*
X028821Y040157D02*
X028922D01*
X029126Y040208D02*
X029151Y040233D01*
X029202D01*
X029227Y040208D01*
Y040106D01*
X029202Y040081D01*
X029151D01*
X029126Y040106D01*
Y040208D01*
X029278Y040081D02*
Y040106D01*
X029303D01*
Y040081D01*
X029278D01*
X029405D02*
X029456D01*
X02943D01*
Y040233D01*
X029405Y040208D01*
X029532Y040081D02*
Y040182D01*
X029557D01*
X029583Y040157D01*
Y040081D01*
Y040157D01*
X029608Y040182D01*
X029633Y040157D01*
Y040081D01*
X029684D02*
Y040182D01*
X02971D01*
X029735Y040157D01*
Y040081D01*
Y040157D01*
X02976Y040182D01*
X029786Y040157D01*
Y040081D01*
X03004D02*
X029989Y040132D01*
Y040182D01*
X03004Y040233D01*
X030141Y040081D02*
Y040208D01*
Y040157D01*
X030116D01*
X030167D01*
X030141D01*
Y040208D01*
X030167Y040233D01*
X030243Y040081D02*
X030294D01*
X030268D01*
Y040182D01*
X030243D01*
X03037Y040081D02*
Y040182D01*
X030446D01*
X030471Y040157D01*
Y040081D01*
X030522D02*
X030573D01*
X030547D01*
Y040182D01*
X030522D01*
X030649Y040081D02*
X030725D01*
X030751Y040106D01*
X030725Y040132D01*
X030674D01*
X030649Y040157D01*
X030674Y040182D01*
X030751D01*
X030801Y040233D02*
Y040081D01*
Y040157D01*
X030827Y040182D01*
X030878D01*
X030903Y040157D01*
Y040081D01*
X03103D02*
X030979D01*
X030954Y040106D01*
Y040157D01*
X030979Y040182D01*
X03103D01*
X031055Y040157D01*
Y040132D01*
X030954D01*
X031208Y040233D02*
Y040081D01*
X031131D01*
X031106Y040106D01*
Y040157D01*
X031131Y040182D01*
X031208D01*
X031258Y040081D02*
X031309Y040132D01*
Y040182D01*
X031258Y040233D01*
X031411Y040056D02*
X031436Y040081D01*
Y040106D01*
X031411D01*
Y040081D01*
X031436D01*
X031411Y040056D01*
X031385Y04003D01*
X03169Y040081D02*
X031766D01*
X031792Y040106D01*
X031766Y040132D01*
X031715D01*
X03169Y040157D01*
X031715Y040182D01*
X031792D01*
X031919Y040081D02*
X031868D01*
X031842Y040106D01*
Y040157D01*
X031868Y040182D01*
X031919D01*
X031944Y040157D01*
Y040132D01*
X031842D01*
X032071Y040081D02*
X03202D01*
X031995Y040106D01*
Y040157D01*
X03202Y040182D01*
X032071D01*
X032096Y040157D01*
Y040132D01*
X031995D01*
X032299Y040233D02*
Y040081D01*
X032376D01*
X032401Y040106D01*
Y040132D01*
Y040157D01*
X032376Y040182D01*
X032299D01*
X032477Y040081D02*
X032528D01*
X032553Y040106D01*
Y040157D01*
X032528Y040182D01*
X032477D01*
X032452Y040157D01*
Y040106D01*
X032477Y040081D01*
X03263Y040208D02*
Y040182D01*
X032604D01*
X032655D01*
X03263D01*
Y040106D01*
X032655Y040081D01*
X032757Y040208D02*
Y040182D01*
X032731D01*
X032782D01*
X032757D01*
Y040106D01*
X032782Y040081D01*
X032884D02*
X032934D01*
X03296Y040106D01*
Y040157D01*
X032934Y040182D01*
X032884D01*
X032858Y040157D01*
Y040106D01*
X032884Y040081D01*
X03301D02*
Y040182D01*
X033036D01*
X033061Y040157D01*
Y040081D01*
Y040157D01*
X033087Y040182D01*
X033112Y040157D01*
Y040081D01*
X033315Y040182D02*
Y040081D01*
Y040132D01*
X033341Y040157D01*
X033366Y040182D01*
X033391D01*
X033468Y040081D02*
X033518D01*
X033493D01*
Y040182D01*
X033468D01*
X033645Y04003D02*
X033671D01*
X033696Y040056D01*
Y040182D01*
X03362D01*
X033594Y040157D01*
Y040106D01*
X03362Y040081D01*
X033696D01*
X033747Y040233D02*
Y040081D01*
Y040157D01*
X033772Y040182D01*
X033823D01*
X033848Y040157D01*
Y040081D01*
X033925Y040208D02*
Y040182D01*
X033899D01*
X03395D01*
X033925D01*
Y040106D01*
X03395Y040081D01*
X034178D02*
X034229D01*
X034204D01*
Y040233D01*
X034178D01*
X034331Y040182D02*
X034382D01*
X034407Y040157D01*
Y040081D01*
X034331D01*
X034305Y040106D01*
X034331Y040132D01*
X034407D01*
X034458Y040182D02*
Y040106D01*
X034483Y040081D01*
X034559D01*
Y040056D01*
X034534Y04003D01*
X034509D01*
X034559Y040081D02*
Y040182D01*
X034686Y040081D02*
X034636D01*
X03461Y040106D01*
Y040157D01*
X034636Y040182D01*
X034686D01*
X034712Y040157D01*
Y040132D01*
X03461D01*
X034762Y040182D02*
Y040081D01*
Y040132D01*
X034788Y040157D01*
X034813Y040182D01*
X034839D01*
X035169D02*
X035093D01*
X035067Y040157D01*
Y040106D01*
X035093Y040081D01*
X035169D01*
X03522Y040233D02*
Y040081D01*
Y040157D01*
X035245Y040182D01*
X035296D01*
X035321Y040157D01*
Y040081D01*
X035397Y040182D02*
X035448D01*
X035473Y040157D01*
Y040081D01*
X035397D01*
X035372Y040106D01*
X035397Y040132D01*
X035473D01*
X035524Y040182D02*
Y040081D01*
Y040132D01*
X03555Y040157D01*
X035575Y040182D01*
X0356D01*
X035702Y040208D02*
Y040182D01*
X035677D01*
X035727D01*
X035702D01*
Y040106D01*
X035727Y040081D01*
X025105Y038635D02*
X02513Y03866D01*
X025181D01*
X025206Y038635D01*
Y038609D01*
X025181Y038584D01*
X025206Y038558D01*
Y038533D01*
X025181Y038508D01*
X02513D01*
X025105Y038533D01*
Y038558D01*
X02513Y038584D01*
X025105Y038609D01*
Y038635D01*
X02513Y038584D02*
X025181D01*
X025257Y038508D02*
Y038533D01*
X025282D01*
Y038508D01*
X025257D01*
X025536Y03866D02*
Y038508D01*
X025613D01*
X025638Y038533D01*
Y038558D01*
X025613Y038584D01*
X025536D01*
X025613D01*
X025638Y038609D01*
Y038635D01*
X025613Y03866D01*
X025536D01*
X025714Y038508D02*
X025765D01*
X02579Y038533D01*
Y038584D01*
X025765Y038609D01*
X025714D01*
X025689Y038584D01*
Y038533D01*
X025714Y038508D01*
X025866Y038609D02*
X025917D01*
X025943Y038584D01*
Y038508D01*
X025866D01*
X025841Y038533D01*
X025866Y038558D01*
X025943D01*
X025993Y038609D02*
Y038508D01*
Y038558D01*
X026019Y038584D01*
X026044Y038609D01*
X02607D01*
X026247Y03866D02*
Y038508D01*
X026171D01*
X026146Y038533D01*
Y038584D01*
X026171Y038609D01*
X026247D01*
X02645Y038508D02*
Y038609D01*
X026476D01*
X026501Y038584D01*
Y038508D01*
Y038584D01*
X026527Y038609D01*
X026552Y038584D01*
Y038508D01*
X026603Y038609D02*
Y038533D01*
X026628Y038508D01*
X026704D01*
Y038609D01*
X026755Y038508D02*
X026831D01*
X026857Y038533D01*
X026831Y038558D01*
X026781D01*
X026755Y038584D01*
X026781Y038609D01*
X026857D01*
X026933Y038635D02*
Y038609D01*
X026908D01*
X026958D01*
X026933D01*
Y038533D01*
X026958Y038508D01*
X027187Y03866D02*
Y038508D01*
X027263D01*
X027288Y038533D01*
Y038558D01*
Y038584D01*
X027263Y038609D01*
X027187D01*
X027415Y038508D02*
X027365D01*
X027339Y038533D01*
Y038584D01*
X027365Y038609D01*
X027415D01*
X027441Y038584D01*
Y038558D01*
X027339D01*
X027644Y038508D02*
X027695D01*
X027669D01*
Y03866D01*
X027644D01*
X027847Y038508D02*
X027796D01*
X027771Y038533D01*
Y038584D01*
X027796Y038609D01*
X027847D01*
X027872Y038584D01*
Y038558D01*
X027771D01*
X027949Y038609D02*
X027999D01*
X028025Y038584D01*
Y038508D01*
X027949D01*
X027923Y038533D01*
X027949Y038558D01*
X028025D01*
X028177Y03866D02*
Y038508D01*
X028101D01*
X028076Y038533D01*
Y038584D01*
X028101Y038609D01*
X028177D01*
X028406Y038508D02*
Y038635D01*
Y038584D01*
X02838D01*
X028431D01*
X028406D01*
Y038635D01*
X028431Y03866D01*
X028507Y038609D02*
Y038508D01*
Y038558D01*
X028533Y038584D01*
X028558Y038609D01*
X028583D01*
X028736Y038508D02*
X028685D01*
X02866Y038533D01*
Y038584D01*
X028685Y038609D01*
X028736D01*
X028761Y038584D01*
Y038558D01*
X02866D01*
X028888Y038508D02*
X028837D01*
X028812Y038533D01*
Y038584D01*
X028837Y038609D01*
X028888D01*
X028913Y038584D01*
Y038558D01*
X028812D01*
X029117Y038457D02*
Y038609D01*
X029193D01*
X029218Y038584D01*
Y038533D01*
X029193Y038508D01*
X029117D01*
X029269Y038609D02*
Y038508D01*
Y038558D01*
X029294Y038584D01*
X02932Y038609D01*
X029345D01*
X029447Y038508D02*
X029497D01*
X029523Y038533D01*
Y038584D01*
X029497Y038609D01*
X029447D01*
X029421Y038584D01*
Y038533D01*
X029447Y038508D01*
X029675Y038609D02*
X029599D01*
X029574Y038584D01*
Y038533D01*
X029599Y038508D01*
X029675D01*
X029802D02*
X029751D01*
X029726Y038533D01*
Y038584D01*
X029751Y038609D01*
X029802D01*
X029828Y038584D01*
Y038558D01*
X029726D01*
X029878Y038508D02*
X029955D01*
X02998Y038533D01*
X029955Y038558D01*
X029904D01*
X029878Y038584D01*
X029904Y038609D01*
X02998D01*
X030031Y038508D02*
X030107D01*
X030132Y038533D01*
X030107Y038558D01*
X030056D01*
X030031Y038584D01*
X030056Y038609D01*
X030132D01*
X030437D02*
X030361D01*
X030335Y038584D01*
Y038533D01*
X030361Y038508D01*
X030437D01*
X030513D02*
X030564D01*
X030589Y038533D01*
Y038584D01*
X030564Y038609D01*
X030513D01*
X030488Y038584D01*
Y038533D01*
X030513Y038508D01*
X03064D02*
Y038609D01*
X030666D01*
X030691Y038584D01*
Y038508D01*
Y038584D01*
X030716Y038609D01*
X030742Y038584D01*
Y038508D01*
X030792Y038457D02*
Y038609D01*
X030869D01*
X030894Y038584D01*
Y038533D01*
X030869Y038508D01*
X030792D01*
X03097Y038609D02*
X031021D01*
X031046Y038584D01*
Y038508D01*
X03097D01*
X030945Y038533D01*
X03097Y038558D01*
X031046D01*
X031123Y038635D02*
Y038609D01*
X031097D01*
X031148D01*
X031123D01*
Y038533D01*
X031148Y038508D01*
X031224D02*
X031275D01*
X03125D01*
Y038609D01*
X031224D01*
X031351Y03866D02*
Y038508D01*
X031427D01*
X031453Y038533D01*
Y038558D01*
Y038584D01*
X031427Y038609D01*
X031351D01*
X031503Y038508D02*
X031554D01*
X031529D01*
Y03866D01*
X031503D01*
X031707Y038508D02*
X031656D01*
X03163Y038533D01*
Y038584D01*
X031656Y038609D01*
X031707D01*
X031732Y038584D01*
Y038558D01*
X03163D01*
X031783Y038508D02*
Y038533D01*
X031808D01*
Y038508D01*
X031783D01*
X025103Y03812D02*
X025128Y038095D01*
X025179D01*
X025204Y03812D01*
Y038222D01*
X025179Y038247D01*
X025128D01*
X025103Y038222D01*
Y038196D01*
X025128Y038171D01*
X025204D01*
X025255Y038095D02*
Y03812D01*
X02528D01*
Y038095D01*
X025255D01*
X025534D02*
Y038196D01*
X02556D01*
X025585Y038171D01*
Y038095D01*
Y038171D01*
X02561Y038196D01*
X025636Y038171D01*
Y038095D01*
X025712D02*
X025763D01*
X025788Y03812D01*
Y038171D01*
X025763Y038196D01*
X025712D01*
X025687Y038171D01*
Y03812D01*
X025712Y038095D01*
X025839Y038196D02*
Y03812D01*
X025864Y038095D01*
X02594D01*
Y038196D01*
X025991Y038095D02*
X026067D01*
X026093Y03812D01*
X026067Y038146D01*
X026017D01*
X025991Y038171D01*
X026017Y038196D01*
X026093D01*
X02622Y038095D02*
X026169D01*
X026144Y03812D01*
Y038171D01*
X026169Y038196D01*
X02622D01*
X026245Y038171D01*
Y038146D01*
X026144D01*
X026296Y038247D02*
Y038095D01*
X026372D01*
X026397Y03812D01*
Y038146D01*
Y038171D01*
X026372Y038196D01*
X026296D01*
X026448Y038095D02*
X026499D01*
X026474D01*
Y038196D01*
X026448D01*
X026601Y038222D02*
Y038196D01*
X026575D01*
X026626D01*
X026601D01*
Y03812D01*
X026626Y038095D01*
X026778D02*
X026728D01*
X026702Y03812D01*
Y038171D01*
X026728Y038196D01*
X026778D01*
X026804Y038171D01*
Y038146D01*
X026702D01*
X026855Y038095D02*
X026931D01*
X026956Y03812D01*
X026931Y038146D01*
X02688D01*
X026855Y038171D01*
X02688Y038196D01*
X026956D01*
X027159Y038095D02*
X027235D01*
X027261Y03812D01*
X027235Y038146D01*
X027185D01*
X027159Y038171D01*
X027185Y038196D01*
X027261D01*
X027312Y038247D02*
Y038095D01*
Y038171D01*
X027337Y038196D01*
X027388D01*
X027413Y038171D01*
Y038095D01*
X027489Y038196D02*
X02754D01*
X027566Y038171D01*
Y038095D01*
X027489D01*
X027464Y03812D01*
X027489Y038146D01*
X027566D01*
X027616Y038095D02*
X027667D01*
X027642D01*
Y038247D01*
X027616D01*
X027743Y038095D02*
X027794D01*
X027769D01*
Y038247D01*
X027743D01*
X028023D02*
Y038095D01*
X028099D01*
X028124Y03812D01*
Y038146D01*
Y038171D01*
X028099Y038196D01*
X028023D01*
X028251Y038095D02*
X0282D01*
X028175Y03812D01*
Y038171D01*
X0282Y038196D01*
X028251D01*
X028276Y038171D01*
Y038146D01*
X028175D01*
X02848Y038095D02*
Y038196D01*
X028556D01*
X028581Y038171D01*
Y038095D01*
X028657D02*
X028708D01*
X028734Y03812D01*
Y038171D01*
X028708Y038196D01*
X028657D01*
X028632Y038171D01*
Y03812D01*
X028657Y038095D01*
X028937D02*
X028987D01*
X028962D01*
Y038247D01*
X028937D01*
X029089Y038196D02*
X02914D01*
X029165Y038171D01*
Y038095D01*
X029089D01*
X029064Y03812D01*
X029089Y038146D01*
X029165D01*
X029216Y038196D02*
Y038095D01*
Y038146D01*
X029241Y038171D01*
X029267Y038196D01*
X029292D01*
X029419Y038044D02*
X029445D01*
X02947Y038069D01*
Y038196D01*
X029394D01*
X029368Y038171D01*
Y03812D01*
X029394Y038095D01*
X02947D01*
X029597D02*
X029546D01*
X029521Y03812D01*
Y038171D01*
X029546Y038196D01*
X029597D01*
X029622Y038171D01*
Y038146D01*
X029521D01*
X029673Y038196D02*
Y038095D01*
Y038146D01*
X029698Y038171D01*
X029724Y038196D01*
X029749D01*
X030003Y038222D02*
Y038196D01*
X029978D01*
X030029D01*
X030003D01*
Y03812D01*
X030029Y038095D01*
X030105Y038247D02*
Y038095D01*
Y038171D01*
X03013Y038196D01*
X030181D01*
X030206Y038171D01*
Y038095D01*
X030282Y038196D02*
X030333D01*
X030359Y038171D01*
Y038095D01*
X030282D01*
X030257Y03812D01*
X030282Y038146D01*
X030359D01*
X030409Y038095D02*
Y038196D01*
X030486D01*
X030511Y038171D01*
Y038095D01*
X030714Y038222D02*
X030739Y038247D01*
X03079D01*
X030816Y038222D01*
Y03812D01*
X03079Y038095D01*
X030739D01*
X030714Y03812D01*
Y038222D01*
X030866Y038095D02*
Y03812D01*
X030892D01*
Y038095D01*
X030866D01*
X030993Y038222D02*
X031019Y038247D01*
X03107D01*
X031095Y038222D01*
Y03812D01*
X03107Y038095D01*
X031019D01*
X030993Y03812D01*
Y038222D01*
X031247Y038247D02*
X031146D01*
Y038171D01*
X031197Y038196D01*
X031222D01*
X031247Y038171D01*
Y03812D01*
X031222Y038095D01*
X031171D01*
X031146Y03812D01*
X03145Y038095D02*
Y038196D01*
X031476D01*
X031501Y038171D01*
Y038095D01*
Y038171D01*
X031527Y038196D01*
X031552Y038171D01*
Y038095D01*
X031603D02*
Y038196D01*
X031628D01*
X031654Y038171D01*
Y038095D01*
Y038171D01*
X031679Y038196D01*
X031704Y038171D01*
Y038095D01*
X025368Y042245D02*
X025133D01*
Y042069D01*
X02525D01*
X025133D01*
Y041893D01*
X025544Y042128D02*
X025661D01*
X02572Y042069D01*
Y041893D01*
X025544D01*
X025485Y041952D01*
X025544Y04201D01*
X02572D01*
X025838Y042245D02*
Y041893D01*
X026014D01*
X026072Y041952D01*
Y04201D01*
Y042069D01*
X026014Y042128D01*
X025838D01*
X02619D02*
Y041893D01*
Y04201D01*
X026249Y042069D01*
X026307Y042128D01*
X026366D01*
X026542Y041893D02*
X02666D01*
X026601D01*
Y042128D01*
X026542D01*
X027071D02*
X026894D01*
X026836Y042069D01*
Y041952D01*
X026894Y041893D01*
X027071D01*
X027247Y042128D02*
X027364D01*
X027423Y042069D01*
Y041893D01*
X027247D01*
X027188Y041952D01*
X027247Y04201D01*
X027423D01*
X027599Y042186D02*
Y042128D01*
X02754D01*
X027658D01*
X027599D01*
Y041952D01*
X027658Y041893D01*
X027834D02*
X027951D01*
X027893D01*
Y042128D01*
X027834D01*
X028186Y041893D02*
X028304D01*
X028362Y041952D01*
Y042069D01*
X028304Y042128D01*
X028186D01*
X028127Y042069D01*
Y041952D01*
X028186Y041893D01*
X02848D02*
Y042128D01*
X028656D01*
X028715Y042069D01*
Y041893D01*
X029184D02*
Y042245D01*
X029419Y041893D01*
Y042245D01*
X029595Y041893D02*
X029713D01*
X029771Y041952D01*
Y042069D01*
X029713Y042128D01*
X029595D01*
X029537Y042069D01*
Y041952D01*
X029595Y041893D01*
X029948Y042186D02*
Y042128D01*
X029889D01*
X030006D01*
X029948D01*
Y041952D01*
X030006Y041893D01*
X030359D02*
X030241D01*
X030182Y041952D01*
Y042069D01*
X030241Y042128D01*
X030359D01*
X030417Y042069D01*
Y04201D01*
X030182D01*
X030535Y041893D02*
X030711D01*
X03077Y041952D01*
X030711Y04201D01*
X030593D01*
X030535Y042069D01*
X030593Y042128D01*
X03077D01*
X056715Y01768D02*
X056582D01*
X056715Y017813D01*
Y017847D01*
X056682Y01788D01*
X056615D01*
X056582Y017847D01*
X056782D02*
X056815Y01788D01*
X056882D01*
X056915Y017847D01*
Y017713D01*
X056882Y01768D01*
X056815D01*
X056782Y017713D01*
Y017847D01*
X056982Y01768D02*
X057048D01*
X057015D01*
Y01788D01*
X056982Y017847D01*
X057148Y01778D02*
X057281D01*
X057348Y017847D02*
X057381Y01788D01*
X057448D01*
X057481Y017847D01*
Y017713D01*
X057448Y01768D01*
X057381D01*
X057348Y017713D01*
Y017847D01*
X057548D02*
X057581Y01788D01*
X057648D01*
X057681Y017847D01*
Y017713D01*
X057648Y01768D01*
X057581D01*
X057548Y017713D01*
Y017847D01*
X057748D02*
X057781Y01788D01*
X057848D01*
X057881Y017847D01*
Y017713D01*
X057848Y01768D01*
X057781D01*
X057748Y017713D01*
Y017847D01*
X057948D02*
X057981Y01788D01*
X058048D01*
X058081Y017847D01*
Y017713D01*
X058048Y01768D01*
X057981D01*
X057948Y017713D01*
Y017847D01*
X058148D02*
X058181Y01788D01*
X058248D01*
X058281Y017847D01*
Y017813D01*
X058248Y01778D01*
X058281Y017747D01*
Y017713D01*
X058248Y01768D01*
X058181D01*
X058148Y017713D01*
Y017747D01*
X058181Y01778D01*
X058148Y017813D01*
Y017847D01*
X058181Y01778D02*
X058248D01*
X058348D02*
X058481D01*
X058548Y017847D02*
X058581Y01788D01*
X058648D01*
X058681Y017847D01*
Y017713D01*
X058648Y01768D01*
X058581D01*
X058548Y017713D01*
Y017847D01*
X058748Y01768D02*
X058814D01*
X058781D01*
Y01788D01*
X058748Y017847D01*
X053221Y020651D02*
X053246Y020676D01*
X053297D01*
X053323Y020651D01*
Y020549D01*
X053297Y020524D01*
X053246D01*
X053221Y020549D01*
Y020651D01*
X053373D02*
X053399Y020676D01*
X05345D01*
X053475Y020651D01*
Y020626D01*
X05345Y0206D01*
X053475Y020575D01*
Y020549D01*
X05345Y020524D01*
X053399D01*
X053373Y020549D01*
Y020575D01*
X053399Y0206D01*
X053373Y020626D01*
Y020651D01*
X053399Y0206D02*
X05345D01*
X053526Y020524D02*
X053627Y020626D01*
X05378Y020524D02*
X053678D01*
X05378Y020626D01*
Y020651D01*
X053754Y020676D01*
X053703D01*
X053678Y020651D01*
X053907Y020524D02*
Y020676D01*
X05383Y0206D01*
X053932D01*
X053983Y020524D02*
X054084Y020626D01*
X054135Y020524D02*
X054186D01*
X05416D01*
Y020676D01*
X054135Y020651D01*
X054364Y020676D02*
X054262D01*
Y0206D01*
X054313Y020626D01*
X054338D01*
X054364Y0206D01*
Y020549D01*
X054338Y020524D01*
X054287D01*
X054262Y020549D01*
X027063Y041383D02*
X026961D01*
Y041307D01*
X027012D01*
X026961D01*
Y041231D01*
X027114D02*
X027164D01*
X027139D01*
Y041383D01*
X027114D01*
X027317Y041231D02*
X027266D01*
X027241Y041256D01*
Y041307D01*
X027266Y041332D01*
X027317D01*
X027342Y041307D01*
Y041281D01*
X027241D01*
X027393Y041332D02*
X027495Y041231D01*
X027444Y041281D01*
X027495Y041332D01*
X027393Y041231D01*
X027545Y041307D02*
X027647D01*
X027723Y041231D02*
X027774D01*
X027799Y041256D01*
Y041307D01*
X027774Y041332D01*
X027723D01*
X027698Y041307D01*
Y041256D01*
X027723Y041231D01*
X02785D02*
Y041332D01*
X027926D01*
X027952Y041307D01*
Y041231D01*
X028002D02*
X028053D01*
X028028D01*
Y041383D01*
X028002D01*
X028129Y041332D02*
Y041256D01*
X028155Y041231D01*
X028231D01*
Y041205D01*
X028205Y04118D01*
X02818D01*
X028231Y041231D02*
Y041332D01*
X028282Y041231D02*
Y041256D01*
X028307D01*
Y041231D01*
X028282D01*
X025218Y03983D02*
X025116D01*
Y039754D01*
X025167Y039779D01*
X025192D01*
X025218Y039754D01*
Y039703D01*
X025192Y039678D01*
X025142D01*
X025116Y039703D01*
X025269Y039678D02*
Y039703D01*
X025294D01*
Y039678D01*
X025269D01*
X02565Y03983D02*
X025548D01*
Y039754D01*
X025599D01*
X025548D01*
Y039678D01*
X0257D02*
X025751D01*
X025726D01*
Y039779D01*
X0257D01*
X025827Y039678D02*
Y039779D01*
X025903D01*
X025929Y039754D01*
Y039678D01*
X02598D02*
X02603D01*
X026005D01*
Y039779D01*
X02598D01*
X026107Y039678D02*
X026183D01*
X026208Y039703D01*
X026183Y039728D01*
X026132D01*
X026107Y039754D01*
X026132Y039779D01*
X026208D01*
X026259Y03983D02*
Y039678D01*
Y039754D01*
X026284Y039779D01*
X026335D01*
X02636Y039754D01*
Y039678D01*
X026411Y039779D02*
X026437D01*
Y039754D01*
X026411D01*
Y039779D01*
Y039703D02*
X026437D01*
Y039678D01*
X026411D01*
Y039703D01*
X026944Y03983D02*
X026843D01*
Y039678D01*
X026944D01*
X026843Y039754D02*
X026894D01*
X026995Y039678D02*
Y03983D01*
X027097Y039678D01*
Y03983D01*
X027148D02*
X027198D01*
X027173D01*
Y039678D01*
X027148D01*
X027198D01*
X027376Y039805D02*
X027351Y03983D01*
X0273D01*
X027275Y039805D01*
Y039703D01*
X0273Y039678D01*
X027351D01*
X027376Y039703D01*
Y039754D01*
X027325D01*
X027579Y039627D02*
Y039779D01*
X027655D01*
X027681Y039754D01*
Y039703D01*
X027655Y039678D01*
X027579D01*
X027732D02*
X027782D01*
X027757D01*
Y03983D01*
X027732D01*
X027884Y039779D02*
X027935D01*
X02796Y039754D01*
Y039678D01*
X027884D01*
X027859Y039703D01*
X027884Y039728D01*
X02796D01*
X028036Y039805D02*
Y039779D01*
X028011D01*
X028062D01*
X028036D01*
Y039703D01*
X028062Y039678D01*
X028138D02*
X028189D01*
X028163D01*
Y039779D01*
X028138D01*
X028265Y039678D02*
Y039779D01*
X028341D01*
X028366Y039754D01*
Y039678D01*
X028468Y039627D02*
X028493D01*
X028519Y039652D01*
Y039779D01*
X028443D01*
X028417Y039754D01*
Y039703D01*
X028443Y039678D01*
X028519D01*
X028747D02*
X028798D01*
X028823Y039703D01*
Y039754D01*
X028798Y039779D01*
X028747D01*
X028722Y039754D01*
Y039703D01*
X028747Y039678D01*
X028874D02*
Y039779D01*
X02895D01*
X028976Y039754D01*
Y039678D01*
X029255D02*
X029204D01*
X029179Y039703D01*
Y039754D01*
X029204Y039779D01*
X029255D01*
X029281Y039754D01*
Y039728D01*
X029179D01*
X029331Y039779D02*
X029433Y039678D01*
X029382Y039728D01*
X029433Y039779D01*
X029331Y039678D01*
X029484Y039627D02*
Y039779D01*
X02956D01*
X029585Y039754D01*
Y039703D01*
X02956Y039678D01*
X029484D01*
X029661D02*
X029712D01*
X029738Y039703D01*
Y039754D01*
X029712Y039779D01*
X029661D01*
X029636Y039754D01*
Y039703D01*
X029661Y039678D01*
X029788D02*
X029865D01*
X02989Y039703D01*
X029865Y039728D01*
X029814D01*
X029788Y039754D01*
X029814Y039779D01*
X02989D01*
X030017Y039678D02*
X029966D01*
X029941Y039703D01*
Y039754D01*
X029966Y039779D01*
X030017D01*
X030042Y039754D01*
Y039728D01*
X029941D01*
X030195Y03983D02*
Y039678D01*
X030118D01*
X030093Y039703D01*
Y039754D01*
X030118Y039779D01*
X030195D01*
X030499D02*
X030423D01*
X030398Y039754D01*
Y039703D01*
X030423Y039678D01*
X030499D01*
X030576D02*
X030626D01*
X030652Y039703D01*
Y039754D01*
X030626Y039779D01*
X030576D01*
X03055Y039754D01*
Y039703D01*
X030576Y039678D01*
X030702Y039627D02*
Y039779D01*
X030779D01*
X030804Y039754D01*
Y039703D01*
X030779Y039678D01*
X030702D01*
X030855Y039627D02*
Y039779D01*
X030931D01*
X030956Y039754D01*
Y039703D01*
X030931Y039678D01*
X030855D01*
X031083D02*
X031033D01*
X031007Y039703D01*
Y039754D01*
X031033Y039779D01*
X031083D01*
X031109Y039754D01*
Y039728D01*
X031007D01*
X03116Y039779D02*
Y039678D01*
Y039728D01*
X031185Y039754D01*
X03121Y039779D01*
X031236D01*
X025221Y03948D02*
X02517Y039455D01*
X025119Y039404D01*
Y039353D01*
X025144Y039328D01*
X025195D01*
X025221Y039353D01*
Y039379D01*
X025195Y039404D01*
X025119D01*
X025271Y039328D02*
Y039353D01*
X025297D01*
Y039328D01*
X025271D01*
X025652Y039455D02*
X025627Y03948D01*
X025576D01*
X025551Y039455D01*
Y039429D01*
X025576Y039404D01*
X025627D01*
X025652Y039379D01*
Y039353D01*
X025627Y039328D01*
X025576D01*
X025551Y039353D01*
X025728Y039328D02*
X025779D01*
X025805Y039353D01*
Y039404D01*
X025779Y039429D01*
X025728D01*
X025703Y039404D01*
Y039353D01*
X025728Y039328D01*
X025855D02*
X025906D01*
X025881D01*
Y03948D01*
X025855D01*
X026084D02*
Y039328D01*
X026008D01*
X025982Y039353D01*
Y039404D01*
X026008Y039429D01*
X026084D01*
X026211Y039328D02*
X02616D01*
X026135Y039353D01*
Y039404D01*
X02616Y039429D01*
X026211D01*
X026236Y039404D01*
Y039379D01*
X026135D01*
X026287Y039429D02*
Y039328D01*
Y039379D01*
X026312Y039404D01*
X026338Y039429D01*
X026363D01*
X026439Y039328D02*
Y039429D01*
X026465D01*
X02649Y039404D01*
Y039328D01*
Y039404D01*
X026516Y039429D01*
X026541Y039404D01*
Y039328D01*
X026617Y039429D02*
X026668D01*
X026693Y039404D01*
Y039328D01*
X026617D01*
X026592Y039353D01*
X026617Y039379D01*
X026693D01*
X026744Y039328D02*
X02682D01*
X026846Y039353D01*
X02682Y039379D01*
X026769D01*
X026744Y039404D01*
X026769Y039429D01*
X026846D01*
X026896Y039328D02*
Y03948D01*
Y039379D02*
X026973Y039429D01*
X026896Y039379D02*
X026973Y039328D01*
X027049Y039429D02*
X027074D01*
Y039404D01*
X027049D01*
Y039429D01*
Y039353D02*
X027074D01*
Y039328D01*
X027049D01*
Y039353D01*
X027328Y039277D02*
Y039429D01*
X027404D01*
X02743Y039404D01*
Y039353D01*
X027404Y039328D01*
X027328D01*
X027557D02*
X027506D01*
X02748Y039353D01*
Y039404D01*
X027506Y039429D01*
X027557D01*
X027582Y039404D01*
Y039379D01*
X02748D01*
X027633Y039429D02*
Y039328D01*
Y039379D01*
X027658Y039404D01*
X027684Y039429D01*
X027709D01*
X027937Y03948D02*
X027988D01*
X027963D01*
Y039328D01*
X027937D01*
X027988D01*
X028064D02*
Y03948D01*
X028141D01*
X028166Y039455D01*
Y039404D01*
X028141Y039379D01*
X028064D01*
X028318Y039455D02*
X028293Y03948D01*
X028242D01*
X028217Y039455D01*
Y039353D01*
X028242Y039328D01*
X028293D01*
X028318Y039353D01*
X028369Y039404D02*
X028471D01*
X028623Y039455D02*
X028598Y03948D01*
X028547D01*
X028521Y039455D01*
Y039429D01*
X028547Y039404D01*
X028598D01*
X028623Y039379D01*
Y039353D01*
X028598Y039328D01*
X028547D01*
X028521Y039353D01*
X028674Y039328D02*
Y03948D01*
X028725Y039429D01*
X028775Y03948D01*
Y039328D01*
X028826Y039404D02*
X028928D01*
X028979Y039455D02*
X029004Y03948D01*
X029055D01*
X02908Y039455D01*
Y039429D01*
X029055Y039404D01*
X02908Y039379D01*
Y039353D01*
X029055Y039328D01*
X029004D01*
X028979Y039353D01*
Y039379D01*
X029004Y039404D01*
X028979Y039429D01*
Y039455D01*
X029004Y039404D02*
X029055D01*
X029207Y039328D02*
Y03948D01*
X029131Y039404D01*
X029232D01*
X029283Y039455D02*
X029309Y03948D01*
X029359D01*
X029385Y039455D01*
Y039353D01*
X029359Y039328D01*
X029309D01*
X029283Y039353D01*
Y039455D01*
X029461Y039302D02*
X029486Y039328D01*
Y039353D01*
X029461D01*
Y039328D01*
X029486D01*
X029461Y039302D01*
X029436Y039277D01*
X029842Y039429D02*
X029766D01*
X02974Y039404D01*
Y039353D01*
X029766Y039328D01*
X029842D01*
X029918D02*
X029969D01*
X029994Y039353D01*
Y039404D01*
X029969Y039429D01*
X029918D01*
X029893Y039404D01*
Y039353D01*
X029918Y039328D01*
X030045D02*
X030096D01*
X03007D01*
Y03948D01*
X030045D01*
X030197Y039328D02*
X030248D01*
X030273Y039353D01*
Y039404D01*
X030248Y039429D01*
X030197D01*
X030172Y039404D01*
Y039353D01*
X030197Y039328D01*
X030324Y039429D02*
Y039328D01*
Y039379D01*
X03035Y039404D01*
X030375Y039429D01*
X0304D01*
X030629Y03948D02*
Y039328D01*
X030705D01*
X030731Y039353D01*
Y039379D01*
Y039404D01*
X030705Y039429D01*
X030629D01*
X030781Y039328D02*
X030832D01*
X030807D01*
Y03948D01*
X030781D01*
X030934Y039429D02*
X030984D01*
X03101Y039404D01*
Y039328D01*
X030934D01*
X030908Y039353D01*
X030934Y039379D01*
X03101D01*
X031162Y039429D02*
X031086D01*
X031061Y039404D01*
Y039353D01*
X031086Y039328D01*
X031162D01*
X031213D02*
Y03948D01*
Y039379D02*
X031289Y039429D01*
X031213Y039379D02*
X031289Y039328D01*
X031391Y039302D02*
X031416Y039328D01*
Y039353D01*
X031391D01*
Y039328D01*
X031416D01*
X031391Y039302D01*
X031365Y039277D01*
X03167Y039429D02*
Y039328D01*
Y039379D01*
X031695Y039404D01*
X031721Y039429D01*
X031746D01*
X031899Y039328D02*
X031848D01*
X031822Y039353D01*
Y039404D01*
X031848Y039429D01*
X031899D01*
X031924Y039404D01*
Y039379D01*
X031822D01*
X032026Y039277D02*
X032051D01*
X032076Y039302D01*
Y039429D01*
X032D01*
X031975Y039404D01*
Y039353D01*
X032Y039328D01*
X032076D01*
X032127D02*
X032178D01*
X032152D01*
Y039429D01*
X032127D01*
X032254Y039328D02*
X03233D01*
X032356Y039353D01*
X03233Y039379D01*
X032279D01*
X032254Y039404D01*
X032279Y039429D01*
X032356D01*
X032432Y039455D02*
Y039429D01*
X032406D01*
X032457D01*
X032432D01*
Y039353D01*
X032457Y039328D01*
X032533Y039429D02*
Y039328D01*
Y039379D01*
X032559Y039404D01*
X032584Y039429D01*
X03261D01*
X032711D02*
X032762D01*
X032787Y039404D01*
Y039328D01*
X032711D01*
X032686Y039353D01*
X032711Y039379D01*
X032787D01*
X032863Y039455D02*
Y039429D01*
X032838D01*
X032889D01*
X032863D01*
Y039353D01*
X032889Y039328D01*
X032965D02*
X033016D01*
X03299D01*
Y039429D01*
X032965D01*
X033117Y039328D02*
X033168D01*
X033194Y039353D01*
Y039404D01*
X033168Y039429D01*
X033117D01*
X033092Y039404D01*
Y039353D01*
X033117Y039328D01*
X033244D02*
Y039429D01*
X033321D01*
X033346Y039404D01*
Y039328D01*
X033549Y039429D02*
Y039353D01*
X033574Y039328D01*
X0336Y039353D01*
X033625Y039328D01*
X033651Y039353D01*
Y039429D01*
X033701Y039328D02*
X033752D01*
X033727D01*
Y039429D01*
X033701D01*
X033854Y039455D02*
Y039429D01*
X033828D01*
X033879D01*
X033854D01*
Y039353D01*
X033879Y039328D01*
X033955Y03948D02*
Y039328D01*
Y039404D01*
X033981Y039429D01*
X034031D01*
X034057Y039404D01*
Y039328D01*
X034108D02*
X034158D01*
X034133D01*
Y039429D01*
X034108D01*
X034235Y039328D02*
Y039429D01*
X034311D01*
X034336Y039404D01*
Y039328D01*
X034539Y039404D02*
X034641D01*
X03459Y039455D02*
Y039353D01*
X034692Y039328D02*
X034793Y039429D01*
X034844Y039404D02*
X034946D01*
X035149Y03948D02*
X03525D01*
Y039455D01*
X035149Y039353D01*
Y039328D01*
X035403Y03948D02*
X035352Y039455D01*
X035301Y039404D01*
Y039353D01*
X035326Y039328D01*
X035377D01*
X035403Y039353D01*
Y039379D01*
X035377Y039404D01*
X035301D01*
X035453Y039429D02*
Y039353D01*
X035479Y039328D01*
X035555D01*
Y039429D01*
X035606Y039328D02*
Y039429D01*
X035631D01*
X035657Y039404D01*
Y039328D01*
Y039404D01*
X035682Y039429D01*
X035707Y039404D01*
Y039328D01*
X035936D02*
X035987D01*
X036012Y039353D01*
Y039404D01*
X035987Y039429D01*
X035936D01*
X03591Y039404D01*
Y039353D01*
X035936Y039328D01*
X036088D02*
Y039455D01*
Y039404D01*
X036063D01*
X036114D01*
X036088D01*
Y039455D01*
X036114Y03948D01*
X036444Y039429D02*
X036368D01*
X036342Y039404D01*
Y039353D01*
X036368Y039328D01*
X036444D01*
X036494D02*
X036545D01*
X03652D01*
Y039429D01*
X036494D01*
X036621D02*
Y039328D01*
Y039379D01*
X036647Y039404D01*
X036672Y039429D01*
X036698D01*
X036875D02*
X036799D01*
X036774Y039404D01*
Y039353D01*
X036799Y039328D01*
X036875D01*
X036926Y039429D02*
Y039353D01*
X036952Y039328D01*
X037028D01*
Y039429D01*
X037078Y039328D02*
X037129D01*
X037104D01*
Y039429D01*
X037078D01*
X037231Y039455D02*
Y039429D01*
X037205D01*
X037256D01*
X037231D01*
Y039353D01*
X037256Y039328D01*
X037485D02*
X037536D01*
X03751D01*
Y03948D01*
X037485D01*
X037637Y039429D02*
X037688D01*
X037713Y039404D01*
Y039328D01*
X037637D01*
X037612Y039353D01*
X037637Y039379D01*
X037713D01*
X037764Y039429D02*
Y039353D01*
X037789Y039328D01*
X037866D01*
Y039302D01*
X03784Y039277D01*
X037815D01*
X037866Y039328D02*
Y039429D01*
X037993Y039328D02*
X037942D01*
X037916Y039353D01*
Y039404D01*
X037942Y039429D01*
X037993D01*
X038018Y039404D01*
Y039379D01*
X037916D01*
X038069Y039429D02*
Y039328D01*
Y039379D01*
X038094Y039404D01*
X03812Y039429D01*
X038145D01*
X025119Y039056D02*
X025221D01*
Y03903D01*
X025119Y038929D01*
Y038903D01*
X025271D02*
Y038929D01*
X025297D01*
Y038903D01*
X025271D01*
X025652Y03903D02*
X025627Y039056D01*
X025576D01*
X025551Y03903D01*
Y039005D01*
X025576Y038979D01*
X025627D01*
X025652Y038954D01*
Y038929D01*
X025627Y038903D01*
X025576D01*
X025551Y038929D01*
X025703Y038903D02*
X025754D01*
X025728D01*
Y039005D01*
X025703D01*
X02583Y038903D02*
X025881D01*
X025855D01*
Y039056D01*
X02583D01*
X025957Y038903D02*
Y039056D01*
Y038954D02*
X026033Y039005D01*
X025957Y038954D02*
X026033Y038903D01*
X026109D02*
X026185D01*
X026211Y038929D01*
X026185Y038954D01*
X026135D01*
X026109Y038979D01*
X026135Y039005D01*
X026211D01*
X026363D02*
X026287D01*
X026262Y038979D01*
Y038929D01*
X026287Y038903D01*
X026363D01*
X026414Y039005D02*
Y038903D01*
Y038954D01*
X026439Y038979D01*
X026465Y039005D01*
X02649D01*
X026642Y038903D02*
X026592D01*
X026566Y038929D01*
Y038979D01*
X026592Y039005D01*
X026642D01*
X026668Y038979D01*
Y038954D01*
X026566D01*
X026795Y038903D02*
X026744D01*
X026719Y038929D01*
Y038979D01*
X026744Y039005D01*
X026795D01*
X02682Y038979D01*
Y038954D01*
X026719D01*
X026871Y038903D02*
Y039005D01*
X026947D01*
X026973Y038979D01*
Y038903D01*
X027049Y038878D02*
X027074Y038903D01*
Y038929D01*
X027049D01*
Y038903D01*
X027074D01*
X027049Y038878D01*
X027023Y038853D01*
X027328Y038903D02*
X027379D01*
X027353D01*
Y039005D01*
X027328D01*
X02748Y038903D02*
Y03903D01*
Y038979D01*
X027455D01*
X027506D01*
X02748D01*
Y03903D01*
X027506Y039056D01*
X027734Y038853D02*
Y039005D01*
X02781D01*
X027836Y038979D01*
Y038929D01*
X02781Y038903D01*
X027734D01*
X027887Y039005D02*
Y038903D01*
Y038954D01*
X027912Y038979D01*
X027937Y039005D01*
X027963D01*
X028115Y038903D02*
X028064D01*
X028039Y038929D01*
Y038979D01*
X028064Y039005D01*
X028115D01*
X028141Y038979D01*
Y038954D01*
X028039D01*
X028191Y038903D02*
X028268D01*
X028293Y038929D01*
X028268Y038954D01*
X028217D01*
X028191Y038979D01*
X028217Y039005D01*
X028293D01*
X02842Y038903D02*
X028369D01*
X028344Y038929D01*
Y038979D01*
X028369Y039005D01*
X02842D01*
X028445Y038979D01*
Y038954D01*
X028344D01*
X028496Y038903D02*
Y039005D01*
X028572D01*
X028598Y038979D01*
Y038903D01*
X028674Y03903D02*
Y039005D01*
X028648D01*
X028699D01*
X028674D01*
Y038929D01*
X028699Y038903D01*
X028801Y038878D02*
X028826Y038903D01*
Y038929D01*
X028801D01*
Y038903D01*
X028826D01*
X028801Y038878D01*
X028775Y038853D01*
X02908D02*
Y039005D01*
X029156D01*
X029182Y038979D01*
Y038929D01*
X029156Y038903D01*
X02908D01*
X029232Y039005D02*
Y038903D01*
Y038954D01*
X029258Y038979D01*
X029283Y039005D01*
X029309D01*
X029385Y038903D02*
X029436D01*
X02941D01*
Y039005D01*
X029385D01*
X029512Y038903D02*
Y039005D01*
X029588D01*
X029613Y038979D01*
Y038903D01*
X029689Y03903D02*
Y039005D01*
X029664D01*
X029715D01*
X029689D01*
Y038929D01*
X029715Y038903D01*
X029867D02*
X029816D01*
X029791Y038929D01*
Y038979D01*
X029816Y039005D01*
X029867D01*
X029893Y038979D01*
Y038954D01*
X029791D01*
X030045Y039056D02*
Y038903D01*
X029969D01*
X029943Y038929D01*
Y038979D01*
X029969Y039005D01*
X030045D01*
X030248Y038903D02*
X030324D01*
X03035Y038929D01*
X030324Y038954D01*
X030273D01*
X030248Y038979D01*
X030273Y039005D01*
X03035D01*
X0304Y038903D02*
X030451D01*
X030426D01*
Y039005D01*
X0304D01*
X030527Y038903D02*
X030578D01*
X030553D01*
Y039056D01*
X030527D01*
X030654Y038903D02*
Y039056D01*
Y038954D02*
X030731Y039005D01*
X030654Y038954D02*
X030731Y038903D01*
X030807D02*
X030883D01*
X030908Y038929D01*
X030883Y038954D01*
X030832D01*
X030807Y038979D01*
X030832Y039005D01*
X030908D01*
X031061D02*
X030984D01*
X030959Y038979D01*
Y038929D01*
X030984Y038903D01*
X031061D01*
X031111Y039005D02*
Y038903D01*
Y038954D01*
X031137Y038979D01*
X031162Y039005D01*
X031188D01*
X03134Y038903D02*
X031289D01*
X031264Y038929D01*
Y038979D01*
X031289Y039005D01*
X03134D01*
X031365Y038979D01*
Y038954D01*
X031264D01*
X031492Y038903D02*
X031442D01*
X031416Y038929D01*
Y038979D01*
X031442Y039005D01*
X031492D01*
X031518Y038979D01*
Y038954D01*
X031416D01*
X031568Y038903D02*
Y039005D01*
X031645D01*
X03167Y038979D01*
Y038903D01*
X031899D02*
X031949D01*
X031975Y038929D01*
Y038979D01*
X031949Y039005D01*
X031899D01*
X031873Y038979D01*
Y038929D01*
X031899Y038903D01*
X032026D02*
Y039005D01*
X032102D01*
X032127Y038979D01*
Y038903D01*
X032356Y03903D02*
Y039005D01*
X03233D01*
X032381D01*
X032356D01*
Y038929D01*
X032381Y038903D01*
X032483D02*
X032533D01*
X032559Y038929D01*
Y038979D01*
X032533Y039005D01*
X032483D01*
X032457Y038979D01*
Y038929D01*
X032483Y038903D01*
X03261Y038853D02*
Y039005D01*
X032686D01*
X032711Y038979D01*
Y038929D01*
X032686Y038903D01*
X03261D01*
X03294Y039005D02*
X03299D01*
X033016Y038979D01*
Y038903D01*
X03294D01*
X032914Y038929D01*
X03294Y038954D01*
X033016D01*
X033067Y038903D02*
Y039005D01*
X033143D01*
X033168Y038979D01*
Y038903D01*
X033321Y039056D02*
Y038903D01*
X033244D01*
X033219Y038929D01*
Y038979D01*
X033244Y039005D01*
X033321D01*
X033524Y039056D02*
Y038903D01*
X0336D01*
X033625Y038929D01*
Y038954D01*
Y038979D01*
X0336Y039005D01*
X033524D01*
X033701Y038903D02*
X033752D01*
X033778Y038929D01*
Y038979D01*
X033752Y039005D01*
X033701D01*
X033676Y038979D01*
Y038929D01*
X033701Y038903D01*
X033854Y03903D02*
Y039005D01*
X033828D01*
X033879D01*
X033854D01*
Y038929D01*
X033879Y038903D01*
X033981Y03903D02*
Y039005D01*
X033955D01*
X034006D01*
X033981D01*
Y038929D01*
X034006Y038903D01*
X034108D02*
X034158D01*
X034184Y038929D01*
Y038979D01*
X034158Y039005D01*
X034108D01*
X034082Y038979D01*
Y038929D01*
X034108Y038903D01*
X034235D02*
Y039005D01*
X03426D01*
X034285Y038979D01*
Y038903D01*
Y038979D01*
X034311Y039005D01*
X034336Y038979D01*
Y038903D01*
X034539D02*
X03459D01*
X034565D01*
Y039056D01*
X034539D01*
X034692Y039005D02*
X034742D01*
X034768Y038979D01*
Y038903D01*
X034692D01*
X034666Y038929D01*
X034692Y038954D01*
X034768D01*
X034819Y039005D02*
Y038929D01*
X034844Y038903D01*
X03492D01*
Y038878D01*
X034895Y038853D01*
X034869D01*
X03492Y038903D02*
Y039005D01*
X035047Y038903D02*
X034996D01*
X034971Y038929D01*
Y038979D01*
X034996Y039005D01*
X035047D01*
X035073Y038979D01*
Y038954D01*
X034971D01*
X035123Y039005D02*
Y038903D01*
Y038954D01*
X035149Y038979D01*
X035174Y039005D01*
X035199D01*
X035276Y038903D02*
X035352D01*
X035377Y038929D01*
X035352Y038954D01*
X035301D01*
X035276Y038979D01*
X035301Y039005D01*
X035377D01*
X035453Y038878D02*
X035479Y038903D01*
Y038929D01*
X035453D01*
Y038903D01*
X035479D01*
X035453Y038878D01*
X035428Y038853D01*
X035834Y039005D02*
X035758D01*
X035733Y038979D01*
Y038929D01*
X035758Y038903D01*
X035834D01*
X03591D02*
X035961D01*
X035987Y038929D01*
Y038979D01*
X035961Y039005D01*
X03591D01*
X035885Y038979D01*
Y038929D01*
X03591Y038903D01*
X036037D02*
X036088D01*
X036063D01*
Y039056D01*
X036037D01*
X03619Y038903D02*
X036241D01*
X036266Y038929D01*
Y038979D01*
X036241Y039005D01*
X03619D01*
X036164Y038979D01*
Y038929D01*
X03619Y038903D01*
X036317Y039005D02*
Y038903D01*
Y038954D01*
X036342Y038979D01*
X036368Y039005D01*
X036393D01*
X036621D02*
Y038929D01*
X036647Y038903D01*
X036672Y038929D01*
X036698Y038903D01*
X036723Y038929D01*
Y039005D01*
X036774Y039056D02*
Y038903D01*
Y038979D01*
X036799Y039005D01*
X03685D01*
X036875Y038979D01*
Y038903D01*
X036926D02*
X036977D01*
X036952D01*
Y039005D01*
X036926D01*
X037078Y03903D02*
Y039005D01*
X037053D01*
X037104D01*
X037078D01*
Y038929D01*
X037104Y038903D01*
X037256D02*
X037205D01*
X03718Y038929D01*
Y038979D01*
X037205Y039005D01*
X037256D01*
X037282Y038979D01*
Y038954D01*
X03718D01*
X037332Y038903D02*
Y038929D01*
X037358D01*
Y038903D01*
X037332D01*
X037866Y03903D02*
X03784Y039056D01*
X037789D01*
X037764Y03903D01*
Y038929D01*
X037789Y038903D01*
X03784D01*
X037866Y038929D01*
X037916Y038903D02*
X037967D01*
X037942D01*
Y039056D01*
X037916D01*
X038043Y038903D02*
X038094D01*
X038069D01*
Y039005D01*
X038043D01*
X03817Y038853D02*
Y039005D01*
X038247D01*
X038272Y038979D01*
Y038929D01*
X038247Y038903D01*
X03817D01*
X0385D02*
X038551D01*
X038577Y038929D01*
Y038979D01*
X038551Y039005D01*
X0385D01*
X038475Y038979D01*
Y038929D01*
X0385Y038903D01*
X038627D02*
Y039005D01*
X038704D01*
X038729Y038979D01*
Y038903D01*
X038932Y038853D02*
Y039005D01*
X039008D01*
X039034Y038979D01*
Y038929D01*
X039008Y038903D01*
X038932D01*
X03911Y039005D02*
X039161D01*
X039186Y038979D01*
Y038903D01*
X03911D01*
X039084Y038929D01*
X03911Y038954D01*
X039186D01*
X039338Y039056D02*
Y038903D01*
X039262D01*
X039237Y038929D01*
Y038979D01*
X039262Y039005D01*
X039338D01*
X039389Y038903D02*
X039465D01*
X039491Y038929D01*
X039465Y038954D01*
X039415D01*
X039389Y038979D01*
X039415Y039005D01*
X039491D01*
X039541Y038903D02*
Y038929D01*
X039567D01*
Y038903D01*
X039541D01*
X025015Y037709D02*
X025066D01*
X02504D01*
Y037861D01*
X025015Y037836D01*
X025142D02*
X025167Y037861D01*
X025218D01*
X025243Y037836D01*
Y037734D01*
X025218Y037709D01*
X025167D01*
X025142Y037734D01*
Y037836D01*
X025294Y037709D02*
Y037734D01*
X02532D01*
Y037709D01*
X025294D01*
X025573D02*
Y03781D01*
X025624Y037861D01*
X025675Y03781D01*
Y037709D01*
Y037785D01*
X025573D01*
X025726Y037709D02*
X025777D01*
X025751D01*
Y037861D01*
X025726D01*
X025853Y037709D02*
X025904D01*
X025878D01*
Y037861D01*
X025853D01*
X026132D02*
X026234D01*
X026183D01*
Y037709D01*
X026361D02*
X02631D01*
X026284Y037734D01*
Y037785D01*
X02631Y03781D01*
X026361D01*
X026386Y037785D01*
Y03776D01*
X026284D01*
X026437Y037709D02*
X026513D01*
X026538Y037734D01*
X026513Y03776D01*
X026462D01*
X026437Y037785D01*
X026462Y03781D01*
X026538D01*
X026614Y037836D02*
Y03781D01*
X026589D01*
X02664D01*
X026614D01*
Y037734D01*
X02664Y037709D01*
X026716D02*
X026818Y03781D01*
X02697Y037734D02*
Y037836D01*
X026945Y037861D01*
X026894D01*
X026868Y037836D01*
Y037734D01*
X026894Y037709D01*
X026945D01*
X026919Y03776D02*
X02697Y037709D01*
X026945D02*
X02697Y037734D01*
X027021Y037709D02*
Y03781D01*
X027072Y037861D01*
X027122Y03781D01*
Y037709D01*
Y037785D01*
X027021D01*
X027173Y037709D02*
X027275Y03781D01*
X027427Y037734D02*
Y037836D01*
X027402Y037861D01*
X027351D01*
X027325Y037836D01*
Y037734D01*
X027351Y037709D01*
X027402D01*
X027376Y03776D02*
X027427Y037709D01*
X027402D02*
X027427Y037734D01*
X027579Y037836D02*
X027554Y037861D01*
X027503D01*
X027478Y037836D01*
Y037734D01*
X027503Y037709D01*
X027554D01*
X027579Y037734D01*
X027783Y037709D02*
Y03781D01*
X027808D01*
X027833Y037785D01*
Y037709D01*
Y037785D01*
X027859Y03781D01*
X027884Y037785D01*
Y037709D01*
X02796Y03781D02*
X028011D01*
X028036Y037785D01*
Y037709D01*
X02796D01*
X027935Y037734D01*
X02796Y03776D01*
X028036D01*
X028087Y03781D02*
Y037709D01*
Y03776D01*
X028113Y037785D01*
X028138Y03781D01*
X028163D01*
X02824Y037709D02*
Y037861D01*
Y03776D02*
X028316Y03781D01*
X02824Y03776D02*
X028316Y037709D01*
X028392D02*
X028443D01*
X028417D01*
Y03781D01*
X028392D01*
X028519Y037709D02*
Y03781D01*
X028595D01*
X02862Y037785D01*
Y037709D01*
X028722Y037658D02*
X028747D01*
X028773Y037683D01*
Y03781D01*
X028697D01*
X028671Y037785D01*
Y037734D01*
X028697Y037709D01*
X028773D01*
X028824D02*
X0289D01*
X028925Y037734D01*
X0289Y03776D01*
X028849D01*
X028824Y037785D01*
X028849Y03781D01*
X028925D01*
X029001Y037683D02*
X029027Y037709D01*
Y037734D01*
X029001D01*
Y037709D01*
X029027D01*
X029001Y037683D01*
X028976Y037658D01*
X029281Y037709D02*
X029331D01*
X029306D01*
Y03781D01*
X029281D01*
X029433Y037709D02*
Y037836D01*
Y037785D01*
X029408D01*
X029458D01*
X029433D01*
Y037836D01*
X029458Y037861D01*
X029687Y037658D02*
Y03781D01*
X029763D01*
X029788Y037785D01*
Y037734D01*
X029763Y037709D01*
X029687D01*
X029839Y03781D02*
Y037709D01*
Y03776D01*
X029865Y037785D01*
X02989Y03781D01*
X029915D01*
X030068Y037709D02*
X030017D01*
X029992Y037734D01*
Y037785D01*
X030017Y03781D01*
X030068D01*
X030093Y037785D01*
Y03776D01*
X029992D01*
X030144Y037709D02*
X03022D01*
X030246Y037734D01*
X03022Y03776D01*
X030169D01*
X030144Y037785D01*
X030169Y03781D01*
X030246D01*
X030372Y037709D02*
X030322D01*
X030296Y037734D01*
Y037785D01*
X030322Y03781D01*
X030372D01*
X030398Y037785D01*
Y03776D01*
X030296D01*
X030449Y037709D02*
Y03781D01*
X030525D01*
X03055Y037785D01*
Y037709D01*
X030626Y037836D02*
Y03781D01*
X030601D01*
X030652D01*
X030626D01*
Y037734D01*
X030652Y037709D01*
X030753Y037683D02*
X030779Y037709D01*
Y037734D01*
X030753D01*
Y037709D01*
X030779D01*
X030753Y037683D01*
X030728Y037658D01*
X031058Y03781D02*
X031109D01*
X031134Y037785D01*
Y037709D01*
X031058D01*
X031033Y037734D01*
X031058Y03776D01*
X031134D01*
X031185Y03781D02*
Y037709D01*
Y03776D01*
X03121Y037785D01*
X031236Y03781D01*
X031261D01*
X031414Y037709D02*
X031363D01*
X031337Y037734D01*
Y037785D01*
X031363Y03781D01*
X031414D01*
X031439Y037785D01*
Y03776D01*
X031337D01*
X031667Y037836D02*
Y03781D01*
X031642D01*
X031693D01*
X031667D01*
Y037734D01*
X031693Y037709D01*
X031794D02*
X031845D01*
X031871Y037734D01*
Y037785D01*
X031845Y03781D01*
X031794D01*
X031769Y037785D01*
Y037734D01*
X031794Y037709D01*
X032074Y037861D02*
Y037709D01*
X03215D01*
X032175Y037734D01*
Y03776D01*
Y037785D01*
X03215Y03781D01*
X032074D01*
X032302Y037709D02*
X032251D01*
X032226Y037734D01*
Y037785D01*
X032251Y03781D01*
X032302D01*
X032328Y037785D01*
Y03776D01*
X032226D01*
X032531Y037709D02*
Y03781D01*
X032556D01*
X032582Y037785D01*
Y037709D01*
Y037785D01*
X032607Y03781D01*
X032632Y037785D01*
Y037709D01*
X032709Y03781D02*
X032759D01*
X032785Y037785D01*
Y037709D01*
X032709D01*
X032683Y037734D01*
X032709Y03776D01*
X032785D01*
X032937Y037861D02*
Y037709D01*
X032861D01*
X032835Y037734D01*
Y037785D01*
X032861Y03781D01*
X032937D01*
X033064Y037709D02*
X033013D01*
X032988Y037734D01*
Y037785D01*
X033013Y03781D01*
X033064D01*
X033089Y037785D01*
Y03776D01*
X032988D01*
X033318Y037709D02*
X033369D01*
X033394Y037734D01*
Y037785D01*
X033369Y03781D01*
X033318D01*
X033293Y037785D01*
Y037734D01*
X033318Y037709D01*
X033445D02*
Y03781D01*
X033521D01*
X033546Y037785D01*
Y037709D01*
X03375Y037861D02*
Y037709D01*
X033826D01*
X033851Y037734D01*
Y03776D01*
Y037785D01*
X033826Y03781D01*
X03375D01*
X033927D02*
X033978D01*
X034004Y037785D01*
Y037709D01*
X033927D01*
X033902Y037734D01*
X033927Y03776D01*
X034004D01*
X034156Y03781D02*
X03408D01*
X034054Y037785D01*
Y037734D01*
X03408Y037709D01*
X034156D01*
X034207D02*
Y037861D01*
Y03776D02*
X034283Y03781D01*
X034207Y03776D02*
X034283Y037709D01*
X034511D02*
X034588D01*
X034613Y037734D01*
X034588Y03776D01*
X034537D01*
X034511Y037785D01*
X034537Y03781D01*
X034613D01*
X034664Y037709D02*
X034714D01*
X034689D01*
Y03781D01*
X034664D01*
X034892Y037861D02*
Y037709D01*
X034816D01*
X034791Y037734D01*
Y037785D01*
X034816Y03781D01*
X034892D01*
X035019Y037709D02*
X034968D01*
X034943Y037734D01*
Y037785D01*
X034968Y03781D01*
X035019D01*
X035045Y037785D01*
Y03776D01*
X034943D01*
X035273Y037709D02*
X035324D01*
X035349Y037734D01*
Y037785D01*
X035324Y03781D01*
X035273D01*
X035248Y037785D01*
Y037734D01*
X035273Y037709D01*
X035425D02*
Y037836D01*
Y037785D01*
X0354D01*
X035451D01*
X035425D01*
Y037836D01*
X035451Y037861D01*
X035679Y037709D02*
Y037861D01*
X035756D01*
X035781Y037836D01*
Y037785D01*
X035756Y03776D01*
X035679D01*
X035933Y037836D02*
X035908Y037861D01*
X035857D01*
X035832Y037836D01*
Y037734D01*
X035857Y037709D01*
X035908D01*
X035933Y037734D01*
X035984Y037861D02*
Y037709D01*
X03606D01*
X036086Y037734D01*
Y03776D01*
X03606Y037785D01*
X035984D01*
X03606D01*
X036086Y03781D01*
Y037836D01*
X03606Y037861D01*
X035984D01*
X025033Y037303D02*
X025084D01*
X025059D01*
Y037456D01*
X025033Y03743D01*
X02516Y037303D02*
X025211D01*
X025186D01*
Y037456D01*
X02516Y03743D01*
X025287Y037303D02*
Y037329D01*
X025313D01*
Y037303D01*
X025287D01*
X025567D02*
Y037405D01*
X025617Y037456D01*
X025668Y037405D01*
Y037303D01*
Y03738D01*
X025567D01*
X025719Y037303D02*
X02577D01*
X025744D01*
Y037456D01*
X025719D01*
X025846Y037303D02*
X025897D01*
X025871D01*
Y037456D01*
X025846D01*
X026125D02*
Y037303D01*
X026201D01*
X026227Y037329D01*
Y03743D01*
X026201Y037456D01*
X026125D01*
X026278Y037303D02*
X026328D01*
X026303D01*
Y037405D01*
X026278D01*
X026404Y037303D02*
Y037405D01*
X02643D01*
X026455Y03738D01*
Y037303D01*
Y03738D01*
X026481Y037405D01*
X026506Y03738D01*
Y037303D01*
X026633D02*
X026582D01*
X026557Y037329D01*
Y03738D01*
X026582Y037405D01*
X026633D01*
X026658Y03738D01*
Y037354D01*
X026557D01*
X026709Y037303D02*
Y037405D01*
X026785D01*
X026811Y03738D01*
Y037303D01*
X026862D02*
X026938D01*
X026963Y037329D01*
X026938Y037354D01*
X026887D01*
X026862Y03738D01*
X026887Y037405D01*
X026963D01*
X027014Y037303D02*
X027065D01*
X027039D01*
Y037405D01*
X027014D01*
X027166Y037303D02*
X027217D01*
X027242Y037329D01*
Y03738D01*
X027217Y037405D01*
X027166D01*
X027141Y03738D01*
Y037329D01*
X027166Y037303D01*
X027293D02*
Y037405D01*
X027369D01*
X027395Y03738D01*
Y037303D01*
X027446D02*
X027522D01*
X027547Y037329D01*
X027522Y037354D01*
X027471D01*
X027446Y03738D01*
X027471Y037405D01*
X027547D01*
X027776D02*
X027826D01*
X027852Y03738D01*
Y037303D01*
X027776D01*
X02775Y037329D01*
X027776Y037354D01*
X027852D01*
X027903Y037405D02*
Y037303D01*
Y037354D01*
X027928Y03738D01*
X027953Y037405D01*
X027979D01*
X028131Y037303D02*
X02808D01*
X028055Y037329D01*
Y03738D01*
X02808Y037405D01*
X028131D01*
X028157Y03738D01*
Y037354D01*
X028055D01*
X028385Y037405D02*
X028436D01*
X028461Y03738D01*
Y037303D01*
X028385D01*
X02836Y037329D01*
X028385Y037354D01*
X028461D01*
X028537Y037303D02*
Y03743D01*
Y03738D01*
X028512D01*
X028563D01*
X028537D01*
Y03743D01*
X028563Y037456D01*
X028664Y03743D02*
Y037405D01*
X028639D01*
X02869D01*
X028664D01*
Y037329D01*
X02869Y037303D01*
X028842D02*
X028791D01*
X028766Y037329D01*
Y03738D01*
X028791Y037405D01*
X028842D01*
X028867Y03738D01*
Y037354D01*
X028766D01*
X028918Y037405D02*
Y037303D01*
Y037354D01*
X028944Y03738D01*
X028969Y037405D01*
X028994D01*
X029223Y037253D02*
Y037405D01*
X029299D01*
X029325Y03738D01*
Y037329D01*
X029299Y037303D01*
X029223D01*
X029375D02*
X029426D01*
X029401D01*
Y037456D01*
X029375D01*
X029528Y037405D02*
X029578D01*
X029604Y03738D01*
Y037303D01*
X029528D01*
X029502Y037329D01*
X029528Y037354D01*
X029604D01*
X02968Y03743D02*
Y037405D01*
X029655D01*
X029705D01*
X02968D01*
Y037329D01*
X029705Y037303D01*
X029782D02*
X029832D01*
X029807D01*
Y037405D01*
X029782D01*
X029909Y037303D02*
Y037405D01*
X029985D01*
X03001Y03738D01*
Y037303D01*
X030112Y037253D02*
X030137D01*
X030162Y037278D01*
Y037405D01*
X030086D01*
X030061Y03738D01*
Y037329D01*
X030086Y037303D01*
X030162D01*
X030213D02*
X030315Y037405D01*
X030391Y037303D02*
Y03743D01*
Y03738D01*
X030366D01*
X030416D01*
X030391D01*
Y03743D01*
X030416Y037456D01*
X030493Y037303D02*
X030543D01*
X030518D01*
Y037405D01*
X030493D01*
X03062Y037303D02*
Y037405D01*
X030696D01*
X030721Y03738D01*
Y037303D01*
X030772D02*
X030823D01*
X030797D01*
Y037405D01*
X030772D01*
X030899Y037303D02*
X030975D01*
X031Y037329D01*
X030975Y037354D01*
X030924D01*
X030899Y03738D01*
X030924Y037405D01*
X031D01*
X031051Y037456D02*
Y037303D01*
Y03738D01*
X031077Y037405D01*
X031127D01*
X031153Y03738D01*
Y037303D01*
X031204D02*
X031254D01*
X031229D01*
Y037405D01*
X031204D01*
X03133Y037303D02*
Y037405D01*
X031407D01*
X031432Y03738D01*
Y037303D01*
X031534Y037253D02*
X031559D01*
X031584Y037278D01*
Y037405D01*
X031508D01*
X031483Y03738D01*
Y037329D01*
X031508Y037303D01*
X031584D01*
X024988Y036929D02*
X025039D01*
X025014D01*
Y037081D01*
X024988Y037056D01*
X025217Y036929D02*
X025115D01*
X025217Y037031D01*
Y037056D01*
X025191Y037081D01*
X02514D01*
X025115Y037056D01*
X025267Y036929D02*
Y036955D01*
X025293D01*
Y036929D01*
X025267D01*
X025547D02*
Y037031D01*
X025598Y037081D01*
X025648Y037031D01*
Y036929D01*
Y037005D01*
X025547D01*
X025699Y036929D02*
X02575D01*
X025724D01*
Y037081D01*
X025699D01*
X025826Y036929D02*
X025877D01*
X025851D01*
Y037081D01*
X025826D01*
X026207Y037031D02*
X026131D01*
X026105Y037005D01*
Y036955D01*
X026131Y036929D01*
X026207D01*
X026283D02*
X026334D01*
X026359Y036955D01*
Y037005D01*
X026334Y037031D01*
X026283D01*
X026258Y037005D01*
Y036955D01*
X026283Y036929D01*
X02641D02*
Y037031D01*
X026435D01*
X026461Y037005D01*
Y036929D01*
Y037005D01*
X026486Y037031D01*
X026512Y037005D01*
Y036929D01*
X026562Y036878D02*
Y037031D01*
X026639D01*
X026664Y037005D01*
Y036955D01*
X026639Y036929D01*
X026562D01*
X02674D02*
X026791D01*
X026816Y036955D01*
Y037005D01*
X026791Y037031D01*
X02674D01*
X026715Y037005D01*
Y036955D01*
X02674Y036929D01*
X026867D02*
Y037031D01*
X026943D01*
X026969Y037005D01*
Y036929D01*
X027096D02*
X027045D01*
X027019Y036955D01*
Y037005D01*
X027045Y037031D01*
X027096D01*
X027121Y037005D01*
Y03698D01*
X027019D01*
X027172Y036929D02*
Y037031D01*
X027248D01*
X027273Y037005D01*
Y036929D01*
X02735Y037056D02*
Y037031D01*
X027324D01*
X027375D01*
X02735D01*
Y036955D01*
X027375Y036929D01*
X027451D02*
X027527D01*
X027553Y036955D01*
X027527Y03698D01*
X027477D01*
X027451Y037005D01*
X027477Y037031D01*
X027553D01*
X027756Y036929D02*
Y037031D01*
X027781D01*
X027807Y037005D01*
Y036929D01*
Y037005D01*
X027832Y037031D01*
X027857Y037005D01*
Y036929D01*
X027908Y037031D02*
Y036955D01*
X027934Y036929D01*
X02801D01*
Y037031D01*
X028061Y036929D02*
X028137D01*
X028162Y036955D01*
X028137Y03698D01*
X028086D01*
X028061Y037005D01*
X028086Y037031D01*
X028162D01*
X028238Y037056D02*
Y037031D01*
X028213D01*
X028264D01*
X028238D01*
Y036955D01*
X028264Y036929D01*
X028492Y037081D02*
Y036929D01*
X028568D01*
X028594Y036955D01*
Y03698D01*
Y037005D01*
X028568Y037031D01*
X028492D01*
X028721Y036929D02*
X02867D01*
X028645Y036955D01*
Y037005D01*
X02867Y037031D01*
X028721D01*
X028746Y037005D01*
Y03698D01*
X028645D01*
X028949Y036878D02*
Y037031D01*
X029025D01*
X029051Y037005D01*
Y036955D01*
X029025Y036929D01*
X028949D01*
X029102D02*
X029152D01*
X029127D01*
Y037081D01*
X029102D01*
X029254Y037031D02*
X029305D01*
X02933Y037005D01*
Y036929D01*
X029254D01*
X029229Y036955D01*
X029254Y03698D01*
X02933D01*
X029482Y037031D02*
X029406D01*
X029381Y037005D01*
Y036955D01*
X029406Y036929D01*
X029482D01*
X029609D02*
X029559D01*
X029533Y036955D01*
Y037005D01*
X029559Y037031D01*
X029609D01*
X029635Y037005D01*
Y03698D01*
X029533D01*
X029787Y037081D02*
Y036929D01*
X029711D01*
X029686Y036955D01*
Y037005D01*
X029711Y037031D01*
X029787D01*
X02999D02*
Y036955D01*
X030016Y036929D01*
X030041Y036955D01*
X030066Y036929D01*
X030092Y036955D01*
Y037031D01*
X030143Y036929D02*
X030193D01*
X030168D01*
Y037031D01*
X030143D01*
X030295Y037056D02*
Y037031D01*
X03027D01*
X03032D01*
X030295D01*
Y036955D01*
X03032Y036929D01*
X030397Y037081D02*
Y036929D01*
Y037005D01*
X030422Y037031D01*
X030473D01*
X030498Y037005D01*
Y036929D01*
X030549D02*
X0306D01*
X030574D01*
Y037031D01*
X030549D01*
X030676Y036929D02*
Y037031D01*
X030752D01*
X030777Y037005D01*
Y036929D01*
X030981Y037005D02*
X031082D01*
X031031Y037056D02*
Y036955D01*
X031133Y036929D02*
X031234Y037031D01*
X031285Y037005D02*
X031387D01*
X03159Y037056D02*
X031615Y037081D01*
X031666D01*
X031692Y037056D01*
Y036955D01*
X031666Y036929D01*
X031615D01*
X03159Y036955D01*
Y037056D01*
X031742Y036929D02*
Y036955D01*
X031768D01*
Y036929D01*
X031742D01*
X031869D02*
X03192D01*
X031895D01*
Y037081D01*
X031869Y037056D01*
X031996D02*
X032022Y037081D01*
X032072D01*
X032098Y037056D01*
Y036955D01*
X032072Y036929D01*
X032022D01*
X031996Y036955D01*
Y037056D01*
X032149Y036929D02*
Y037031D01*
X032174D01*
X032199Y037005D01*
Y036929D01*
Y037005D01*
X032225Y037031D01*
X03225Y037005D01*
Y036929D01*
X032301D02*
Y037031D01*
X032326D01*
X032352Y037005D01*
Y036929D01*
Y037005D01*
X032377Y037031D01*
X032403Y037005D01*
Y036929D01*
X039366Y029561D02*
X039131D01*
Y029385D01*
X039248D01*
X039131D01*
Y029209D01*
X039483D02*
X039601D01*
X039542D01*
Y029561D01*
X039483D01*
X039953Y029209D02*
X039835D01*
X039777Y029268D01*
Y029385D01*
X039835Y029444D01*
X039953D01*
X040012Y029385D01*
Y029326D01*
X039777D01*
X040129Y029444D02*
X040364Y029209D01*
X040246Y029326D01*
X040364Y029444D01*
X040129Y029209D01*
X040481Y029385D02*
X040716D01*
X04101Y029561D02*
X040892D01*
X040834Y029503D01*
Y029268D01*
X040892Y029209D01*
X04101D01*
X041068Y029268D01*
Y029503D01*
X04101Y029561D01*
X041186Y029209D02*
Y029444D01*
X041362D01*
X041421Y029385D01*
Y029209D01*
X041538D02*
X041656D01*
X041597D01*
Y029561D01*
X041538D01*
X041832Y029444D02*
Y029268D01*
X04189Y029209D01*
X042067D01*
Y02915D01*
X042008Y029092D01*
X041949D01*
X042067Y029209D02*
Y029444D01*
X039331Y027126D02*
Y027278D01*
X039381Y027228D01*
X039432Y027278D01*
Y027126D01*
X039559D02*
X039508D01*
X039483Y027152D01*
Y027202D01*
X039508Y027228D01*
X039559D01*
X039585Y027202D01*
Y027177D01*
X039483D01*
X039661Y027253D02*
Y027228D01*
X039635D01*
X039686D01*
X039661D01*
Y027152D01*
X039686Y027126D01*
X039788Y027228D02*
X039839D01*
X039864Y027202D01*
Y027126D01*
X039788D01*
X039762Y027152D01*
X039788Y027177D01*
X039864D01*
X039915Y027126D02*
X039965D01*
X03994D01*
Y027278D01*
X039915D01*
X040194Y027126D02*
X040245D01*
X040219D01*
Y027278D01*
X040194D01*
X040346Y027228D02*
X040397D01*
X040423Y027202D01*
Y027126D01*
X040346D01*
X040321Y027152D01*
X040346Y027177D01*
X040423D01*
X040473Y027228D02*
Y027152D01*
X040499Y027126D01*
X040575D01*
Y027101D01*
X040549Y027075D01*
X040524D01*
X040575Y027126D02*
Y027228D01*
X040702Y027126D02*
X040651D01*
X040626Y027152D01*
Y027202D01*
X040651Y027228D01*
X040702D01*
X040727Y027202D01*
Y027177D01*
X040626D01*
X040778Y027228D02*
Y027126D01*
Y027177D01*
X040803Y027202D01*
X040829Y027228D01*
X040854D01*
X041134Y027126D02*
X041083Y027177D01*
Y027228D01*
X041134Y027278D01*
X04121Y027126D02*
Y027152D01*
X041235D01*
Y027126D01*
X04121D01*
X041337Y027253D02*
X041362Y027278D01*
X041413D01*
X041438Y027253D01*
Y027152D01*
X041413Y027126D01*
X041362D01*
X041337Y027152D01*
Y027253D01*
X041489D02*
X041514Y027278D01*
X041565D01*
X041591Y027253D01*
Y027228D01*
X041565Y027202D01*
X04154D01*
X041565D01*
X041591Y027177D01*
Y027152D01*
X041565Y027126D01*
X041514D01*
X041489Y027152D01*
X041743Y027278D02*
X041641D01*
Y027202D01*
X041692Y027228D01*
X041718D01*
X041743Y027202D01*
Y027152D01*
X041718Y027126D01*
X041667D01*
X041641Y027152D01*
X041794Y027126D02*
Y027228D01*
X041819D01*
X041844Y027202D01*
Y027126D01*
Y027202D01*
X04187Y027228D01*
X041895Y027202D01*
Y027126D01*
X041946D02*
Y027228D01*
X041971D01*
X041997Y027202D01*
Y027126D01*
Y027202D01*
X042022Y027228D01*
X042048Y027202D01*
Y027126D01*
X042098D02*
X042149Y027177D01*
Y027228D01*
X042098Y027278D01*
X039432Y026755D02*
X039407Y02678D01*
X039356D01*
X039331Y026755D01*
Y026654D01*
X039356Y026628D01*
X039407D01*
X039432Y026654D01*
X039508Y026628D02*
X039559D01*
X039585Y026654D01*
Y026704D01*
X039559Y02673D01*
X039508D01*
X039483Y026704D01*
Y026654D01*
X039508Y026628D01*
X039635Y02673D02*
X039686Y026628D01*
X039737Y02673D01*
X039864Y026628D02*
X039813D01*
X039788Y026654D01*
Y026704D01*
X039813Y02673D01*
X039864D01*
X039889Y026704D01*
Y026679D01*
X039788D01*
X03994Y02673D02*
Y026628D01*
Y026679D01*
X039965Y026704D01*
X039991Y02673D01*
X040016D01*
X040092Y026628D02*
X040143D01*
X040118D01*
Y02678D01*
X040092D01*
X040245Y02673D02*
X040296D01*
X040321Y026704D01*
Y026628D01*
X040245D01*
X040219Y026654D01*
X040245Y026679D01*
X040321D01*
X040372Y02673D02*
Y026654D01*
X040397Y026628D01*
X040473D01*
Y026603D01*
X040448Y026577D01*
X040423D01*
X040473Y026628D02*
Y02673D01*
X04088Y026628D02*
X040829Y026679D01*
Y02673D01*
X04088Y02678D01*
X040956Y026628D02*
Y026654D01*
X040981D01*
Y026628D01*
X040956D01*
X041083Y026755D02*
X041108Y02678D01*
X041159D01*
X041184Y026755D01*
Y026654D01*
X041159Y026628D01*
X041108D01*
X041083Y026654D01*
Y026755D01*
X041235Y026628D02*
X041286D01*
X04126D01*
Y02678D01*
X041235Y026755D01*
X041464Y02678D02*
X041362D01*
Y026704D01*
X041413Y02673D01*
X041438D01*
X041464Y026704D01*
Y026654D01*
X041438Y026628D01*
X041387D01*
X041362Y026654D01*
X041514Y026628D02*
Y02673D01*
X04154D01*
X041565Y026704D01*
Y026628D01*
Y026704D01*
X041591Y02673D01*
X041616Y026704D01*
Y026628D01*
X041667D02*
Y02673D01*
X041692D01*
X041718Y026704D01*
Y026628D01*
Y026704D01*
X041743Y02673D01*
X041768Y026704D01*
Y026628D01*
X041819D02*
X04187Y026679D01*
Y02673D01*
X041819Y02678D01*
X039427Y027795D02*
X039402Y02782D01*
X039351D01*
X039326Y027795D01*
Y027693D01*
X039351Y027668D01*
X039402D01*
X039427Y027693D01*
X039504Y027668D02*
X039554D01*
X03958Y027693D01*
Y027744D01*
X039554Y02777D01*
X039504D01*
X039478Y027744D01*
Y027693D01*
X039504Y027668D01*
X039631Y02777D02*
X039681Y027668D01*
X039732Y02777D01*
X039859Y027668D02*
X039808D01*
X039783Y027693D01*
Y027744D01*
X039808Y02777D01*
X039859D01*
X039885Y027744D01*
Y027719D01*
X039783D01*
X039935Y02777D02*
Y027668D01*
Y027719D01*
X039961Y027744D01*
X039986Y02777D01*
X040011D01*
X040088Y027668D02*
X040138D01*
X040113D01*
Y02782D01*
X040088D01*
X04024Y02777D02*
X040291D01*
X040316Y027744D01*
Y027668D01*
X04024D01*
X040215Y027693D01*
X04024Y027719D01*
X040316D01*
X040367Y02777D02*
Y027693D01*
X040392Y027668D01*
X040469D01*
Y027643D01*
X040443Y027617D01*
X040418D01*
X040469Y027668D02*
Y02777D01*
X040875Y027668D02*
X040824Y027719D01*
Y02777D01*
X040875Y02782D01*
X040951Y027668D02*
Y027693D01*
X040976D01*
Y027668D01*
X040951D01*
X041078Y027795D02*
X041103Y02782D01*
X041154D01*
X041179Y027795D01*
Y027693D01*
X041154Y027668D01*
X041103D01*
X041078Y027693D01*
Y027795D01*
X041332Y027668D02*
X04123D01*
X041332Y02777D01*
Y027795D01*
X041306Y02782D01*
X041256D01*
X04123Y027795D01*
X041484Y02782D02*
X041383D01*
Y027744D01*
X041433Y02777D01*
X041459D01*
X041484Y027744D01*
Y027693D01*
X041459Y027668D01*
X041408D01*
X041383Y027693D01*
X041535Y027668D02*
Y02777D01*
X04156D01*
X041586Y027744D01*
Y027668D01*
Y027744D01*
X041611Y02777D01*
X041637Y027744D01*
Y027668D01*
X041687D02*
Y02777D01*
X041713D01*
X041738Y027744D01*
Y027668D01*
Y027744D01*
X041763Y02777D01*
X041789Y027744D01*
Y027668D01*
X04184D02*
X04189Y027719D01*
Y02777D01*
X04184Y02782D01*
X045175Y027598D02*
X045233Y027656D01*
X045351D01*
X04541Y027598D01*
Y027363D01*
X045351Y027304D01*
X045233D01*
X045175Y027363D01*
Y027598D01*
X045527Y027304D02*
Y027363D01*
X045586D01*
Y027304D01*
X045527D01*
X045821D02*
X045938D01*
X045879D01*
Y027656D01*
X045821Y027598D01*
X046466Y02748D02*
X046701D01*
X046584Y027598D02*
Y027363D01*
X046819Y027304D02*
X047054Y027539D01*
X047171Y02748D02*
X047406D01*
X047876Y027598D02*
X047934Y027656D01*
X048052D01*
X04811Y027598D01*
Y027363D01*
X048052Y027304D01*
X047934D01*
X047876Y027363D01*
Y027598D01*
X048228Y027304D02*
Y027363D01*
X048287D01*
Y027304D01*
X048228D01*
X048521Y027598D02*
X04858Y027656D01*
X048698D01*
X048756Y027598D01*
Y027363D01*
X048698Y027304D01*
X04858D01*
X048521Y027363D01*
Y027598D01*
X048874D02*
X048932Y027656D01*
X04905D01*
X049109Y027598D01*
Y027539D01*
X04905Y02748D01*
X048991D01*
X04905D01*
X049109Y027422D01*
Y027363D01*
X04905Y027304D01*
X048932D01*
X048874Y027363D01*
X049578Y027304D02*
Y027539D01*
X049637D01*
X049696Y02748D01*
Y027304D01*
Y02748D01*
X049754Y027539D01*
X049813Y02748D01*
Y027304D01*
X049931D02*
Y027539D01*
X049989D01*
X050048Y02748D01*
Y027304D01*
Y02748D01*
X050107Y027539D01*
X050165Y02748D01*
Y027304D01*
X039427Y028345D02*
X039402Y02837D01*
X039351D01*
X039326Y028345D01*
Y028244D01*
X039351Y028218D01*
X039402D01*
X039427Y028244D01*
X039504Y028218D02*
X039554D01*
X03958Y028244D01*
Y028294D01*
X039554Y02832D01*
X039504D01*
X039478Y028294D01*
Y028244D01*
X039504Y028218D01*
X039631Y02832D02*
X039681Y028218D01*
X039732Y02832D01*
X039859Y028218D02*
X039808D01*
X039783Y028244D01*
Y028294D01*
X039808Y02832D01*
X039859D01*
X039885Y028294D01*
Y028269D01*
X039783D01*
X039935Y02832D02*
Y028218D01*
Y028269D01*
X039961Y028294D01*
X039986Y02832D01*
X040011D01*
X040088Y028218D02*
X040138D01*
X040113D01*
Y02837D01*
X040088D01*
X04024Y02832D02*
X040291D01*
X040316Y028294D01*
Y028218D01*
X04024D01*
X040215Y028244D01*
X04024Y028269D01*
X040316D01*
X040367Y02832D02*
Y028244D01*
X040392Y028218D01*
X040469D01*
Y028193D01*
X040443Y028167D01*
X040418D01*
X040469Y028218D02*
Y02832D01*
X040875Y028218D02*
X040824Y028269D01*
Y02832D01*
X040875Y02837D01*
X040951Y028218D02*
Y028244D01*
X040976D01*
Y028218D01*
X040951D01*
X041078Y028345D02*
X041103Y02837D01*
X041154D01*
X041179Y028345D01*
Y028244D01*
X041154Y028218D01*
X041103D01*
X041078Y028244D01*
Y028345D01*
X04123Y028218D02*
X041281D01*
X041256D01*
Y02837D01*
X04123Y028345D01*
X041459Y028218D02*
X041357D01*
X041459Y02832D01*
Y028345D01*
X041433Y02837D01*
X041383D01*
X041357Y028345D01*
X041611Y02837D02*
X04151D01*
Y028294D01*
X04156Y02832D01*
X041586D01*
X041611Y028294D01*
Y028244D01*
X041586Y028218D01*
X041535D01*
X04151Y028244D01*
X041662Y028218D02*
Y02832D01*
X041687D01*
X041713Y028294D01*
Y028218D01*
Y028294D01*
X041738Y02832D01*
X041763Y028294D01*
Y028218D01*
X041814D02*
Y02832D01*
X04184D01*
X041865Y028294D01*
Y028218D01*
Y028294D01*
X04189Y02832D01*
X041916Y028294D01*
Y028218D01*
X041967D02*
X042017Y028269D01*
Y02832D01*
X041967Y02837D01*
X060947Y017826D02*
X060981Y017859D01*
X061047D01*
X061081Y017826D01*
Y017693D01*
X061047Y017659D01*
X060981D01*
X060947Y017693D01*
Y017826D01*
X061147Y017659D02*
X061214D01*
X061181D01*
Y017859D01*
X061147Y017826D01*
D26*
X042076Y016673D02*
X042109Y016761D01*
X042076Y016673D02*
X042141D01*
X042109Y016761D02*
X042141Y016673D01*
X042109Y042796D02*
X042122Y042902D01*
X042091D02*
X042109Y042796D01*
X042076Y042902D02*
X042141D01*
X042109Y042796D02*
X042141Y042902D01*
X042076D02*
X042109Y042796D01*
X057111D02*
Y043011D01*
X052111Y042796D02*
Y043011D01*
X04711Y042796D02*
Y043011D01*
X042109Y042796D02*
Y043011D01*
X037109Y042796D02*
Y043011D01*
X032108Y042796D02*
Y043011D01*
X027107Y042796D02*
Y043011D01*
Y016545D02*
Y016761D01*
X032108Y016545D02*
Y016761D01*
X037109Y016545D02*
Y016761D01*
X042109Y016545D02*
Y016761D01*
X04711Y016545D02*
Y016761D01*
X052111Y016545D02*
Y016761D01*
X057111Y016545D02*
Y016761D01*
X0473Y021358D02*
X050809D01*
X053073Y020321D02*
Y02175D01*
X050809Y021036D02*
X053073D01*
X050809Y020321D02*
X055105D01*
X053073Y021036D02*
X055105D01*
X059665Y016761D02*
Y017301D01*
X06066D02*
Y018589D01*
X057196Y016761D02*
Y017301D01*
X05611D02*
Y018589D01*
X055105Y020818D02*
X062112D01*
X055105Y018589D02*
X062112D01*
X055105Y017301D02*
X062112D01*
X055105Y016761D02*
Y02175D01*
X050809Y016761D02*
Y02175D01*
X0473D02*
X062112D01*
X0473Y016761D02*
Y02175D01*
X02179Y036287D02*
X022107D01*
X02179Y029778D02*
X022107D01*
X021937Y029839D02*
X022107Y029778D01*
X021937Y029721D02*
X022107Y029778D01*
X021937Y029721D02*
Y029839D01*
Y029801D02*
X022107Y029778D01*
X021937Y029752D02*
X022107Y029778D01*
X02179Y023269D02*
X022107D01*
X062112Y023259D02*
X06243D01*
X062112Y036276D02*
X06243D01*
X062112Y016761D02*
Y042796D01*
X022107Y016761D02*
X062112D01*
X022107D02*
Y042796D01*
X062112D01*
X043464Y028572D02*
X046163D01*
X044998Y026031D02*
Y028509D01*
X043459Y025926D02*
X046158D01*
X055386Y019154D02*
Y019366D01*
Y019281D01*
X055344D01*
X055428D01*
X055386D01*
Y019366D01*
X055428Y019408D01*
X055598Y019154D02*
X055682D01*
X055725Y019196D01*
Y019281D01*
X055682Y019323D01*
X055598D01*
X055555Y019281D01*
Y019196D01*
X055598Y019154D01*
X055809Y019323D02*
Y019154D01*
Y019239D01*
X055852Y019281D01*
X055894Y019323D01*
X055936D01*
X056317Y019069D02*
Y019323D01*
X056444D01*
X056486Y019281D01*
Y019196D01*
X056444Y019154D01*
X056317D01*
X056571D02*
X056656D01*
X056613D01*
Y019323D01*
X056571D01*
X056783Y019154D02*
X056867D01*
X056825D01*
Y019408D01*
X056783D01*
X056994Y019154D02*
X057079D01*
X057037D01*
Y019408D01*
X056994D01*
X050944Y020754D02*
Y0205D01*
X051071D01*
X051114Y020542D01*
Y020584D01*
X051071Y020627D01*
X050944D01*
X051071D01*
X051114Y020669D01*
Y020711D01*
X051071Y020754D01*
X050944D01*
X051325Y0205D02*
X05124D01*
X051198Y020542D01*
Y020627D01*
X05124Y020669D01*
X051325D01*
X051367Y020627D01*
Y020584D01*
X051198D01*
X051452Y0205D02*
Y020669D01*
X051579D01*
X051621Y020627D01*
Y0205D01*
X051706D02*
X051875Y020669D01*
X05196Y020754D02*
Y0205D01*
X052087D01*
X052129Y020542D01*
Y020711D01*
X052087Y020754D01*
X05196D01*
X052214Y020669D02*
Y020542D01*
X052256Y0205D01*
X052383D01*
Y020458D01*
X052341Y020415D01*
X052298D01*
X052383Y0205D02*
Y020669D01*
X052468Y0205D02*
Y020754D01*
Y020584D02*
X052595Y020669D01*
X052468Y020584D02*
X052595Y0205D01*
X052849D02*
X052764D01*
X052722Y020542D01*
Y020627D01*
X052764Y020669D01*
X052849D01*
X052891Y020627D01*
Y020584D01*
X052722D01*
X055307Y019991D02*
Y019737D01*
X055434D01*
X055476Y01978D01*
Y019822D01*
X055434Y019864D01*
X055307D01*
X055434D01*
X055476Y019907D01*
Y019949D01*
X055434Y019991D01*
X055307D01*
X055603Y019907D02*
X055688D01*
X05573Y019864D01*
Y019737D01*
X055603D01*
X055561Y01978D01*
X055603Y019822D01*
X05573D01*
X055857Y019949D02*
Y019907D01*
X055815D01*
X055899D01*
X055857D01*
Y01978D01*
X055899Y019737D01*
X056069Y019949D02*
Y019907D01*
X056026D01*
X056111D01*
X056069D01*
Y01978D01*
X056111Y019737D01*
X056365D02*
X05628D01*
X056238Y01978D01*
Y019864D01*
X05628Y019907D01*
X056365D01*
X056407Y019864D01*
Y019822D01*
X056238D01*
X056492Y019907D02*
Y019737D01*
Y019822D01*
X056534Y019864D01*
X056576Y019907D01*
X056619D01*
X056746D02*
Y01978D01*
X056788Y019737D01*
X056915D01*
Y019695D01*
X056873Y019653D01*
X05683D01*
X056915Y019737D02*
Y019907D01*
X057296Y019737D02*
Y019949D01*
Y019864D01*
X057253D01*
X057338D01*
X057296D01*
Y019949D01*
X057338Y019991D01*
X057465Y019737D02*
X05755D01*
X057507D01*
Y019991D01*
X057465D01*
X057804Y019737D02*
X057719D01*
X057677Y01978D01*
Y019864D01*
X057719Y019907D01*
X057804D01*
X057846Y019864D01*
Y019822D01*
X057677D01*
X057931Y019907D02*
X0581Y019737D01*
X058015Y019822D01*
X0581Y019907D01*
X057931Y019737D01*
X058608Y019907D02*
X058481D01*
X058438Y019864D01*
Y01978D01*
X058481Y019737D01*
X058608D01*
X058735D02*
X058819D01*
X058862Y01978D01*
Y019864D01*
X058819Y019907D01*
X058735D01*
X058692Y019864D01*
Y01978D01*
X058735Y019737D01*
X058946D02*
Y019907D01*
X059073D01*
X059116Y019864D01*
Y019737D01*
X0592D02*
Y019907D01*
X059327D01*
X059369Y019864D01*
Y019737D01*
X059581D02*
X059496D01*
X059454Y01978D01*
Y019864D01*
X059496Y019907D01*
X059581D01*
X059623Y019864D01*
Y019822D01*
X059454D01*
X059877Y019907D02*
X05975D01*
X059708Y019864D01*
Y01978D01*
X05975Y019737D01*
X059877D01*
X060004Y019949D02*
Y019907D01*
X059962D01*
X060047D01*
X060004D01*
Y01978D01*
X060047Y019737D01*
X060216D02*
X0603D01*
X060343Y01978D01*
Y019864D01*
X0603Y019907D01*
X060216D01*
X060174Y019864D01*
Y01978D01*
X060216Y019737D01*
X060427Y019907D02*
Y019737D01*
Y019822D01*
X06047Y019864D01*
X060512Y019907D01*
X060554D01*
X053214Y02096D02*
Y02086D01*
X053264D01*
X053281Y020876D01*
Y020943D01*
X053264Y02096D01*
X053214D01*
X053314Y02086D02*
Y020926D01*
X053348Y02096D01*
X053381Y020926D01*
Y02086D01*
Y02091D01*
X053314D01*
X053414Y02096D02*
X053481D01*
X053448D01*
Y02086D01*
X053581Y02096D02*
X053514D01*
Y02086D01*
X053581D01*
X053514Y02091D02*
X053547D01*
X04957Y018661D02*
X04962D01*
X049595D01*
Y018811D01*
X04957Y018786D01*
X049695Y018661D02*
Y018686D01*
X04972D01*
Y018661D01*
X049695D01*
X04982Y018786D02*
X049845Y018811D01*
X049894D01*
X049919Y018786D01*
Y018686D01*
X049894Y018661D01*
X049845D01*
X04982Y018686D01*
Y018786D01*
X049969D02*
X049994Y018811D01*
X050044D01*
X050069Y018786D01*
Y018686D01*
X050044Y018661D01*
X049994D01*
X049969Y018686D01*
Y018786D01*
X047827Y018663D02*
Y018763D01*
X047877Y018813D01*
X047927Y018763D01*
Y018663D01*
Y018738D01*
X047827D01*
X047977Y018663D02*
Y018813D01*
X048077Y018663D01*
Y018813D01*
X048227Y018788D02*
X048202Y018813D01*
X048152D01*
X048127Y018788D01*
Y018688D01*
X048152Y018663D01*
X048202D01*
X048227Y018688D01*
Y018738D01*
X048177D01*
X048277Y018813D02*
Y018663D01*
X048377D01*
X048527Y018813D02*
X048427D01*
Y018663D01*
X048527D01*
X048427Y018738D02*
X048477D01*
X048677Y018788D02*
X048652Y018813D01*
X048602D01*
X048577Y018788D01*
Y018763D01*
X048602Y018738D01*
X048652D01*
X048677Y018713D01*
Y018688D01*
X048652Y018663D01*
X048602D01*
X048577Y018688D01*
X04957Y019245D02*
X049595Y01927D01*
X049645D01*
X04967Y019245D01*
Y019145D01*
X049645Y01912D01*
X049595D01*
X04957Y019145D01*
Y019245D01*
X04972Y01912D02*
Y019145D01*
X049745D01*
Y01912D01*
X04972D01*
X049944D02*
X049845D01*
X049944Y01922D01*
Y019245D01*
X049919Y01927D01*
X04987D01*
X049845Y019245D01*
X049994D02*
X050019Y01927D01*
X050069D01*
X050094Y019245D01*
Y019145D01*
X050069Y01912D01*
X050019D01*
X049994Y019145D01*
Y019245D01*
X04957Y019589D02*
X049595Y019614D01*
X049645D01*
X04967Y019589D01*
Y019489D01*
X049645Y019464D01*
X049595D01*
X04957Y019489D01*
Y019589D01*
X04972Y019464D02*
Y019489D01*
X049745D01*
Y019464D01*
X04972D01*
X049944D02*
X049845D01*
X049944Y019564D01*
Y019589D01*
X049919Y019614D01*
X04987D01*
X049845Y019589D01*
X049994D02*
X050019Y019614D01*
X050069D01*
X050094Y019589D01*
Y019489D01*
X050069Y019464D01*
X050019D01*
X049994Y019489D01*
Y019589D01*
X04957Y019897D02*
X049595Y019922D01*
X049645D01*
X04967Y019897D01*
Y019797D01*
X049645Y019772D01*
X049595D01*
X04957Y019797D01*
Y019897D01*
X04972Y019772D02*
Y019797D01*
X049745D01*
Y019772D01*
X04972D01*
X049845D02*
X049894D01*
X04987D01*
Y019922D01*
X049845Y019897D01*
X050069Y019922D02*
X049969D01*
Y019847D01*
X050019Y019872D01*
X050044D01*
X050069Y019847D01*
Y019797D01*
X050044Y019772D01*
X049994D01*
X049969Y019797D01*
X04957Y020194D02*
X049595Y020219D01*
X049645D01*
X04967Y020194D01*
Y020094D01*
X049645Y020069D01*
X049595D01*
X04957Y020094D01*
Y020194D01*
X04972Y020069D02*
Y020094D01*
X049745D01*
Y020069D01*
X04972D01*
X049845D02*
X049894D01*
X04987D01*
Y020219D01*
X049845Y020194D01*
X049969D02*
X049994Y020219D01*
X050044D01*
X050069Y020194D01*
Y020094D01*
X050044Y020069D01*
X049994D01*
X049969Y020094D01*
Y020194D01*
X04957Y020496D02*
X049595Y020521D01*
X049645D01*
X04967Y020496D01*
Y020396D01*
X049645Y020371D01*
X049595D01*
X04957Y020396D01*
Y020496D01*
X04972Y020371D02*
Y020396D01*
X049745D01*
Y020371D01*
X04972D01*
X049845D02*
X049894D01*
X04987D01*
Y020521D01*
X049845Y020496D01*
X049969D02*
X049994Y020521D01*
X050044D01*
X050069Y020496D01*
Y020396D01*
X050044Y020371D01*
X049994D01*
X049969Y020396D01*
Y020496D01*
X047706Y01912D02*
X047606D01*
X047706Y01922D01*
Y019245D01*
X047681Y01927D01*
X047631D01*
X047606Y019245D01*
X047756D02*
X047781Y01927D01*
X047831D01*
X047856Y019245D01*
Y019145D01*
X047831Y01912D01*
X047781D01*
X047756Y019145D01*
Y019245D01*
X047906D02*
X047931Y01927D01*
X047981D01*
X048006Y019245D01*
Y019145D01*
X047981Y01912D01*
X047931D01*
X047906Y019145D01*
Y019245D01*
X048206Y01912D02*
X048281Y019195D01*
X048206Y01927D01*
X048481Y019195D02*
X048581D01*
X047606Y019464D02*
X047656D01*
X047631D01*
Y019614D01*
X047606Y019589D01*
X047731D02*
X047756Y019614D01*
X047806D01*
X047831Y019589D01*
Y019489D01*
X047806Y019464D01*
X047756D01*
X047731Y019489D01*
Y019589D01*
X047881D02*
X047906Y019614D01*
X047956D01*
X047981Y019589D01*
Y019489D01*
X047956Y019464D01*
X047906D01*
X047881Y019489D01*
Y019589D01*
X048181Y019464D02*
X048256Y019539D01*
X048181Y019614D01*
X048456Y019539D02*
X048556D01*
X048831Y019464D02*
X048756Y019539D01*
X048831Y019614D01*
X049156Y019464D02*
X049056D01*
X049156Y019564D01*
Y019589D01*
X049131Y019614D01*
X049081D01*
X049056Y019589D01*
X049206D02*
X049231Y019614D01*
X049281D01*
X049306Y019589D01*
Y019489D01*
X049281Y019464D01*
X049231D01*
X049206Y019489D01*
Y019589D01*
X049356D02*
X049381Y019614D01*
X049431D01*
X049456Y019589D01*
Y019489D01*
X049431Y019464D01*
X049381D01*
X049356Y019489D01*
Y019589D01*
X047817Y019922D02*
X047717D01*
Y019847D01*
X047767Y019872D01*
X047792D01*
X047817Y019847D01*
Y019797D01*
X047792Y019772D01*
X047742D01*
X047717Y019797D01*
X047867Y019897D02*
X047892Y019922D01*
X047942D01*
X047967Y019897D01*
Y019797D01*
X047942Y019772D01*
X047892D01*
X047867Y019797D01*
Y019897D01*
X048167Y019772D02*
X048242Y019847D01*
X048167Y019922D01*
X048442Y019847D02*
X048542D01*
X048817Y019772D02*
X048742Y019847D01*
X048817Y019922D01*
X049042Y019772D02*
X049092D01*
X049067D01*
Y019922D01*
X049042Y019897D01*
X049167D02*
X049192Y019922D01*
X049242D01*
X049267Y019897D01*
Y019797D01*
X049242Y019772D01*
X049192D01*
X049167Y019797D01*
Y019897D01*
X049317D02*
X049342Y019922D01*
X049392D01*
X049417Y019897D01*
Y019797D01*
X049392Y019772D01*
X049342D01*
X049317Y019797D01*
Y019897D01*
X04771Y020069D02*
X04776D01*
X047735D01*
Y020219D01*
X04771Y020194D01*
X047835D02*
X04786Y020219D01*
X04791D01*
X047935Y020194D01*
Y020094D01*
X04791Y020069D01*
X04786D01*
X047835Y020094D01*
Y020194D01*
X048135Y020069D02*
X04821Y020144D01*
X048135Y020219D01*
X04841Y020144D02*
X04851D01*
X048784Y020069D02*
X048709Y020144D01*
X048784Y020219D01*
X049109D02*
X049009D01*
Y020144D01*
X049059Y020169D01*
X049084D01*
X049109Y020144D01*
Y020094D01*
X049084Y020069D01*
X049034D01*
X049009Y020094D01*
X049159Y020194D02*
X049184Y020219D01*
X049234D01*
X049259Y020194D01*
Y020094D01*
X049234Y020069D01*
X049184D01*
X049159Y020094D01*
Y020194D01*
X047921Y020371D02*
X047821D01*
X047921Y020471D01*
Y020496D01*
X047896Y020521D01*
X047846D01*
X047821Y020496D01*
X048121Y020371D02*
X048196Y020446D01*
X048121Y020521D01*
X048395Y020446D02*
X048495D01*
X04877Y020371D02*
X048695Y020446D01*
X04877Y020521D01*
X048995Y020371D02*
X049045D01*
X04902D01*
Y020521D01*
X048995Y020496D01*
X04912D02*
X049145Y020521D01*
X049195D01*
X04922Y020496D01*
Y020396D01*
X049195Y020371D01*
X049145D01*
X04912Y020396D01*
Y020496D01*
X047828Y020777D02*
X047853Y020802D01*
X047903D01*
X047928Y020777D01*
Y020677D01*
X047903Y020652D01*
X047853D01*
X047828Y020677D01*
Y020777D01*
X048128Y020652D02*
X048203Y020727D01*
X048128Y020802D01*
X048403Y020727D02*
X048503D01*
X048778Y020652D02*
X048703Y020727D01*
X048778Y020802D01*
X049102Y020652D02*
X049002D01*
X049102Y020752D01*
Y020777D01*
X049077Y020802D01*
X049027D01*
X049002Y020777D01*
X04957Y020788D02*
X049595Y020813D01*
X049645D01*
X04967Y020788D01*
Y020688D01*
X049645Y020663D01*
X049595D01*
X04957Y020688D01*
Y020788D01*
X04972Y020663D02*
Y020688D01*
X049745D01*
Y020663D01*
X04972D01*
X049845D02*
X049894D01*
X04987D01*
Y020813D01*
X049845Y020788D01*
X049969D02*
X049994Y020813D01*
X050044D01*
X050069Y020788D01*
Y020688D01*
X050044Y020663D01*
X049994D01*
X049969Y020688D01*
Y020788D01*
X059865Y017047D02*
X059831Y017081D01*
X059763D01*
X059729Y017047D01*
Y017013D01*
X059763Y016979D01*
X059831D01*
X059865Y016945D01*
Y016911D01*
X059831Y016877D01*
X059763D01*
X059729Y016911D01*
X059933Y017081D02*
Y016877D01*
Y016979D01*
X060069D01*
Y017081D01*
Y016877D01*
X060273Y017081D02*
X060137D01*
Y016877D01*
X060273D01*
X060137Y016979D02*
X060205D01*
X060477Y017081D02*
X060341D01*
Y016877D01*
X060477D01*
X060341Y016979D02*
X060409D01*
X060545Y017081D02*
X060681D01*
X060613D01*
Y016877D01*
X060953D02*
X061021D01*
X060987D01*
Y017081D01*
X060953Y017047D01*
X061429Y017081D02*
X061361D01*
X061327Y017047D01*
Y016911D01*
X061361Y016877D01*
X061429D01*
X061463Y016911D01*
Y017047D01*
X061429Y017081D01*
X061667D02*
X061531D01*
Y016979D01*
X061599D01*
X061531D01*
Y016877D01*
X061939D02*
X062007D01*
X061973D01*
Y017081D01*
X061939Y017047D01*
X048362Y021482D02*
Y02166D01*
X048421Y021601D01*
X04848Y02166D01*
Y021482D01*
X048658Y02166D02*
X048539D01*
Y021482D01*
X048658D01*
X048539Y021571D02*
X048599D01*
X048717Y02166D02*
X048836D01*
X048776D01*
Y021482D01*
X048895D02*
Y02166D01*
X048984D01*
X049013Y02163D01*
Y021571D01*
X048984Y021542D01*
X048895D01*
X048954D02*
X049013Y021482D01*
X049073Y02166D02*
X049132D01*
X049102D01*
Y021482D01*
X049073D01*
X049132D01*
X049339Y02163D02*
X04931Y02166D01*
X04925D01*
X049221Y02163D01*
Y021512D01*
X04925Y021482D01*
X04931D01*
X049339Y021512D01*
X05534Y017047D02*
X055306Y017081D01*
X055238D01*
X055204Y017047D01*
Y017013D01*
X055238Y016979D01*
X055306D01*
X05534Y016945D01*
Y016911D01*
X055306Y016877D01*
X055238D01*
X055204Y016911D01*
X055544Y017047D02*
X05551Y017081D01*
X055442D01*
X055408Y017047D01*
Y016911D01*
X055442Y016877D01*
X05551D01*
X055544Y016911D01*
X055612Y016877D02*
Y017013D01*
X05568Y017081D01*
X055748Y017013D01*
Y016877D01*
Y016979D01*
X055612D01*
X055816Y017081D02*
Y016877D01*
X055952D01*
X056156Y017081D02*
X05602D01*
Y016877D01*
X056156D01*
X05602Y016979D02*
X056088D01*
X056224Y017013D02*
X056258D01*
Y016979D01*
X056224D01*
Y017013D01*
Y016911D02*
X056258D01*
Y016877D01*
X056224D01*
Y016911D01*
X056598Y016877D02*
X056666D01*
X056632D01*
Y017081D01*
X056598Y017047D01*
X056768Y017013D02*
X056802D01*
Y016979D01*
X056768D01*
Y017013D01*
Y016911D02*
X056802D01*
Y016877D01*
X056768D01*
Y016911D01*
X056938Y016877D02*
X057006D01*
X056972D01*
Y017081D01*
X056938Y017047D01*
X057329Y017061D02*
Y016857D01*
X057397Y016925D01*
X057465Y016857D01*
Y017061D01*
X057669D02*
X057533D01*
Y016857D01*
X057669D01*
X057533Y016959D02*
X057601D01*
X057737Y017061D02*
X057805D01*
X057771D01*
Y016857D01*
X057737D01*
X057805D01*
X058043Y017027D02*
X058009Y017061D01*
X057941D01*
X057907Y017027D01*
Y016891D01*
X057941Y016857D01*
X058009D01*
X058043Y016891D01*
Y016959D01*
X057975D01*
X058111Y017061D02*
Y016857D01*
Y016959D01*
X058247D01*
Y017061D01*
Y016857D01*
X058315Y017061D02*
X058451D01*
X058383D01*
Y016857D01*
X058519Y016993D02*
X058553D01*
Y016959D01*
X058519D01*
Y016993D01*
Y016891D02*
X058553D01*
Y016857D01*
X058519D01*
Y016891D01*
X060929Y01821D02*
Y018464D01*
X061056D01*
X061099Y018421D01*
Y018337D01*
X061056Y018294D01*
X060929D01*
X061014D02*
X061099Y01821D01*
X061352Y018464D02*
X061183D01*
Y01821D01*
X061352D01*
X061183Y018337D02*
X061268D01*
X061437Y018464D02*
Y018294D01*
X061522Y01821D01*
X061606Y018294D01*
Y018464D01*
X056334Y018494D02*
Y01824D01*
X056461D01*
X056504Y018282D01*
Y018451D01*
X056461Y018494D01*
X056334D01*
X056588D02*
Y01824D01*
X056673Y018324D01*
X056757Y01824D01*
Y018494D01*
X057011Y018451D02*
X056969Y018494D01*
X056884D01*
X056842Y018451D01*
Y018282D01*
X056884Y01824D01*
X056969D01*
X057011Y018282D01*
Y018367D01*
X056927D01*
X057096Y01824D02*
Y018282D01*
X057138D01*
Y01824D01*
X057096D01*
X057815D02*
Y018494D01*
X057985Y01824D01*
Y018494D01*
X058196D02*
X058112D01*
X058069Y018451D01*
Y018282D01*
X058112Y01824D01*
X058196D01*
X058239Y018282D01*
Y018451D01*
X058196Y018494D01*
X058323Y01824D02*
Y018282D01*
X058366D01*
Y01824D01*
X058323D01*
X055337Y018092D02*
Y017457D01*
X055654D01*
X05576Y017563D01*
Y017669D01*
X055654Y017775D01*
X055337D01*
X055654D01*
X05576Y017881D01*
Y017986D01*
X055654Y018092D01*
X055337D01*
X055324Y018431D02*
X055281Y018474D01*
X055197D01*
X055154Y018431D01*
Y018389D01*
X055197Y018347D01*
X055281D01*
X055324Y018304D01*
Y018262D01*
X055281Y01822D01*
X055197D01*
X055154Y018262D01*
X055408Y018474D02*
X055493D01*
X05545D01*
Y01822D01*
X055408D01*
X055493D01*
X05562Y018474D02*
X055789D01*
Y018431D01*
X05562Y018262D01*
Y01822D01*
X055789D01*
X056043Y018474D02*
X055874D01*
Y01822D01*
X056043D01*
X055874Y018347D02*
X055958D01*
X055297Y020611D02*
X055466D01*
X055381D01*
Y020357D01*
X055551Y020611D02*
X055635D01*
X055593D01*
Y020357D01*
X055551D01*
X055635D01*
X055762Y020611D02*
X055932D01*
X055847D01*
Y020357D01*
X056016Y020611D02*
Y020357D01*
X056185D01*
X056439Y020611D02*
X05627D01*
Y020357D01*
X056439D01*
X05627Y020484D02*
X056355D01*
X056524Y020527D02*
X056566D01*
Y020484D01*
X056524D01*
Y020527D01*
Y0204D02*
X056566D01*
Y020357D01*
X056524D01*
Y0204D01*
X053199Y02167D02*
Y02157D01*
X053249D01*
X053266Y021586D01*
Y021653D01*
X053249Y02167D01*
X053199D01*
X053299Y02157D02*
Y021636D01*
X053333Y02167D01*
X053366Y021636D01*
Y02157D01*
Y02162D01*
X053299D01*
X053399Y02167D02*
X053466D01*
X053433D01*
Y02157D01*
X053566Y02167D02*
X053499D01*
Y02157D01*
X053566D01*
X053499Y02162D02*
X053532D01*
X050959Y020975D02*
Y020875D01*
X051009D01*
X051026Y020891D01*
Y020958D01*
X051009Y020975D01*
X050959D01*
X051126D02*
X051059D01*
Y020875D01*
X051126D01*
X051059Y020925D02*
X051093D01*
X051226Y020958D02*
X051209Y020975D01*
X051176D01*
X051159Y020958D01*
Y020941D01*
X051176Y020925D01*
X051209D01*
X051226Y020908D01*
Y020891D01*
X051209Y020875D01*
X051176D01*
X051159Y020891D01*
X051259Y020975D02*
X051292D01*
X051276D01*
Y020875D01*
X051259D01*
X051292D01*
X051409Y020958D02*
X051392Y020975D01*
X051359D01*
X051342Y020958D01*
Y020891D01*
X051359Y020875D01*
X051392D01*
X051409Y020891D01*
Y020925D01*
X051376D01*
X051442Y020875D02*
Y020975D01*
X051509Y020875D01*
Y020975D01*
X051609D02*
X051542D01*
Y020875D01*
X051609D01*
X051542Y020925D02*
X051576D01*
X051642Y020875D02*
Y020975D01*
X051692D01*
X051709Y020958D01*
Y020925D01*
X051692Y020908D01*
X051642D01*
X051676D02*
X051709Y020875D01*
X050974Y02164D02*
Y02154D01*
X051024D01*
X051041Y021556D01*
Y021623D01*
X051024Y02164D01*
X050974D01*
X051074Y02154D02*
Y02164D01*
X051124D01*
X051141Y021623D01*
Y02159D01*
X051124Y021573D01*
X051074D01*
X051108D02*
X051141Y02154D01*
X051174D02*
Y021606D01*
X051208Y02164D01*
X051241Y021606D01*
Y02154D01*
Y02159D01*
X051174D01*
X051341Y02164D02*
X051274D01*
Y02159D01*
X051307D01*
X051274D01*
Y02154D01*
X051374Y02164D02*
X051441D01*
X051407D01*
Y02154D01*
X051541Y02164D02*
X051474D01*
Y02154D01*
X051541D01*
X051474Y02159D02*
X051507D01*
X051574Y02154D02*
Y02164D01*
X051624D01*
X051641Y021623D01*
Y02159D01*
X051624Y021573D01*
X051574D01*
X051607D02*
X051641Y02154D01*
X047445Y021033D02*
X047511D01*
X047478D01*
Y020933D01*
X047595Y021033D02*
X047561D01*
X047545Y021016D01*
Y020949D01*
X047561Y020933D01*
X047595D01*
X047611Y020949D01*
Y021016D01*
X047595Y021033D01*
X047645D02*
Y020933D01*
X047711D01*
X047811Y021033D02*
X047744D01*
Y020933D01*
X047811D01*
X047744Y020983D02*
X047778D01*
X047844Y020933D02*
Y021033D01*
X047894D01*
X047911Y021016D01*
Y020983D01*
X047894Y020966D01*
X047844D01*
X047878D02*
X047911Y020933D01*
X047944D02*
Y020999D01*
X047978Y021033D01*
X048011Y020999D01*
Y020933D01*
Y020983D01*
X047944D01*
X048044Y020933D02*
Y021033D01*
X048111Y020933D01*
Y021033D01*
X048211Y021016D02*
X048194Y021033D01*
X048161D01*
X048144Y021016D01*
Y020949D01*
X048161Y020933D01*
X048194D01*
X048211Y020949D01*
X048311Y021033D02*
X048244D01*
Y020933D01*
X048311D01*
X048244Y020983D02*
X048278D01*
X048411Y021016D02*
X048394Y021033D01*
X048361D01*
X048344Y021016D01*
Y020999D01*
X048361Y020983D01*
X048394D01*
X048411Y020966D01*
Y020949D01*
X048394Y020933D01*
X048361D01*
X048344Y020949D01*
X048444Y020999D02*
X048461D01*
Y020983D01*
X048444D01*
Y020999D01*
Y020949D02*
X048461D01*
Y020933D01*
X048444D01*
Y020949D01*
X047445Y02128D02*
Y02118D01*
X047495D01*
X047511Y021196D01*
Y021263D01*
X047495Y02128D01*
X047445D01*
X047545D02*
X047578D01*
X047561D01*
Y02118D01*
X047545D01*
X047578D01*
X047628D02*
Y02128D01*
X047661Y021246D01*
X047694Y02128D01*
Y02118D01*
X047794Y02128D02*
X047728D01*
Y02118D01*
X047794D01*
X047728Y02123D02*
X047761D01*
X047828Y02118D02*
Y02128D01*
X047894Y02118D01*
Y02128D01*
X047994Y021263D02*
X047978Y02128D01*
X047944D01*
X047928Y021263D01*
Y021246D01*
X047944Y02123D01*
X047978D01*
X047994Y021213D01*
Y021196D01*
X047978Y02118D01*
X047944D01*
X047928Y021196D01*
X048028Y02128D02*
X048061D01*
X048044D01*
Y02118D01*
X048028D01*
X048061D01*
X048161Y02128D02*
X048128D01*
X048111Y021263D01*
Y021196D01*
X048128Y02118D01*
X048161D01*
X048178Y021196D01*
Y021263D01*
X048161Y02128D01*
X048211Y02118D02*
Y02128D01*
X048278Y02118D01*
Y02128D01*
X048378Y021263D02*
X048361Y02128D01*
X048328D01*
X048311Y021263D01*
Y021246D01*
X048328Y02123D01*
X048361D01*
X048378Y021213D01*
Y021196D01*
X048361Y02118D01*
X048328D01*
X048311Y021196D01*
X048511Y02118D02*
Y021246D01*
X048544Y02128D01*
X048578Y021246D01*
Y02118D01*
Y02123D01*
X048511D01*
X048611Y02118D02*
Y02128D01*
X048661D01*
X048678Y021263D01*
Y02123D01*
X048661Y021213D01*
X048611D01*
X048644D02*
X048678Y02118D01*
X048777Y02128D02*
X048711D01*
Y02118D01*
X048777D01*
X048711Y02123D02*
X048744D01*
X048911Y02128D02*
X048944D01*
X048927D01*
Y02118D01*
X048911D01*
X048944D01*
X048994D02*
Y02128D01*
X049061Y02118D01*
Y02128D01*
X049194Y02118D02*
Y02128D01*
X049227Y021246D01*
X049261Y02128D01*
Y02118D01*
X049294Y02128D02*
X049327D01*
X049311D01*
Y02118D01*
X049294D01*
X049327D01*
X049377Y02128D02*
Y02118D01*
X049444D01*
X049477Y02128D02*
Y02118D01*
X049544D01*
X049577Y02128D02*
X049611D01*
X049594D01*
Y02118D01*
X049577D01*
X049611D01*
X049661D02*
Y02128D01*
X049694Y021246D01*
X049727Y02128D01*
Y02118D01*
X049827Y02128D02*
X04976D01*
Y02118D01*
X049827D01*
X04976Y02123D02*
X049794D01*
X04986Y02128D02*
X049927D01*
X049894D01*
Y02118D01*
X050027Y02128D02*
X04996D01*
Y02118D01*
X050027D01*
X04996Y02123D02*
X049994D01*
X05006Y02118D02*
Y02128D01*
X05011D01*
X050127Y021263D01*
Y02123D01*
X05011Y021213D01*
X05006D01*
X050094D02*
X050127Y02118D01*
X050227Y021263D02*
X05021Y02128D01*
X050177D01*
X05016Y021263D01*
Y021246D01*
X050177Y02123D01*
X05021D01*
X050227Y021213D01*
Y021196D01*
X05021Y02118D01*
X050177D01*
X05016Y021196D01*
X050969Y019985D02*
Y020135D01*
X051044D01*
X051069Y02011D01*
Y02006D01*
X051044Y020035D01*
X050969D01*
X051119Y019985D02*
Y020135D01*
X051194D01*
X051219Y02011D01*
Y02006D01*
X051194Y020035D01*
X051119D01*
X051169D02*
X051219Y019985D01*
X051344Y020135D02*
X051294D01*
X051269Y02011D01*
Y02001D01*
X051294Y019985D01*
X051344D01*
X051369Y02001D01*
Y02011D01*
X051344Y020135D01*
X051419Y019985D02*
Y020135D01*
X051494D01*
X051519Y02011D01*
Y02006D01*
X051494Y020035D01*
X051419D01*
X051569Y019985D02*
Y020135D01*
X051644D01*
X051669Y02011D01*
Y02006D01*
X051644Y020035D01*
X051569D01*
X051619D02*
X051669Y019985D01*
X051719Y020135D02*
X051769D01*
X051744D01*
Y019985D01*
X051719D01*
X051769D01*
X051944Y020135D02*
X051844D01*
Y019985D01*
X051944D01*
X051844Y02006D02*
X051894D01*
X051994Y020135D02*
X052094D01*
X052044D01*
Y019985D01*
X052144D02*
Y020085D01*
X052194Y020135D01*
X052244Y020085D01*
Y019985D01*
Y02006D01*
X052144D01*
X052294Y019985D02*
Y020135D01*
X052369D01*
X052394Y02011D01*
Y02006D01*
X052369Y020035D01*
X052294D01*
X052344D02*
X052394Y019985D01*
X052444Y020135D02*
Y02011D01*
X052494Y02006D01*
X052544Y02011D01*
Y020135D01*
X052494Y02006D02*
Y019985D01*
X052744D02*
Y020085D01*
X052794Y020135D01*
X052844Y020085D01*
Y019985D01*
Y02006D01*
X052744D01*
X052894Y019985D02*
Y020135D01*
X052994Y019985D01*
Y020135D01*
X053044D02*
Y019985D01*
X053119D01*
X053144Y02001D01*
Y02011D01*
X053119Y020135D01*
X053044D01*
X053443Y02011D02*
X053418Y020135D01*
X053368D01*
X053343Y02011D01*
Y02001D01*
X053368Y019985D01*
X053418D01*
X053443Y02001D01*
X053568Y020135D02*
X053518D01*
X053493Y02011D01*
Y02001D01*
X053518Y019985D01*
X053568D01*
X053593Y02001D01*
Y02011D01*
X053568Y020135D01*
X053643Y019985D02*
Y020135D01*
X053743Y019985D01*
Y020135D01*
X053893D02*
X053793D01*
Y02006D01*
X053843D01*
X053793D01*
Y019985D01*
X053943Y020135D02*
X053993D01*
X053968D01*
Y019985D01*
X053943D01*
X053993D01*
X054068Y020135D02*
Y019985D01*
X054143D01*
X054168Y02001D01*
Y02011D01*
X054143Y020135D01*
X054068D01*
X054318D02*
X054218D01*
Y019985D01*
X054318D01*
X054218Y02006D02*
X054268D01*
X054368Y019985D02*
Y020135D01*
X054468Y019985D01*
Y020135D01*
X054518D02*
X054618D01*
X054568D01*
Y019985D01*
X054668Y020135D02*
X054718D01*
X054693D01*
Y019985D01*
X054668D01*
X054718D01*
X054793D02*
Y020085D01*
X054843Y020135D01*
X054893Y020085D01*
Y019985D01*
Y02006D01*
X054793D01*
X054943Y020135D02*
Y019985D01*
X055043D01*
X050982Y017771D02*
X051032D01*
X051007D01*
Y017621D01*
X050982D01*
X051032D01*
X051107D02*
Y017771D01*
X051207Y017621D01*
Y017771D01*
X051357Y017746D02*
X051332Y017771D01*
X051282D01*
X051257Y017746D01*
Y017646D01*
X051282Y017621D01*
X051332D01*
X051357Y017646D01*
X051557Y017771D02*
X051607D01*
X051582D01*
Y017621D01*
X051557D01*
X051607D01*
X051782Y017746D02*
X051757Y017771D01*
X051707D01*
X051682Y017746D01*
Y017721D01*
X051707Y017696D01*
X051757D01*
X051782Y017671D01*
Y017646D01*
X051757Y017621D01*
X051707D01*
X051682Y017646D01*
X051982Y017621D02*
Y017771D01*
X052057D01*
X052082Y017746D01*
Y017696D01*
X052057Y017671D01*
X051982D01*
X052132Y017621D02*
Y017771D01*
X052207D01*
X052232Y017746D01*
Y017696D01*
X052207Y017671D01*
X052132D01*
X052182D02*
X052232Y017621D01*
X052357Y017771D02*
X052307D01*
X052282Y017746D01*
Y017646D01*
X052307Y017621D01*
X052357D01*
X052382Y017646D01*
Y017746D01*
X052357Y017771D01*
X052432D02*
Y017621D01*
Y017696D01*
X052532D01*
Y017771D01*
Y017621D01*
X052582Y017771D02*
X052632D01*
X052607D01*
Y017621D01*
X052582D01*
X052632D01*
X052707Y017771D02*
Y017621D01*
X052782D01*
X052807Y017646D01*
Y017671D01*
X052782Y017696D01*
X052707D01*
X052782D01*
X052807Y017721D01*
Y017746D01*
X052782Y017771D01*
X052707D01*
X052857D02*
X052907D01*
X052882D01*
Y017621D01*
X052857D01*
X052907D01*
X052982Y017771D02*
X053082D01*
X053032D01*
Y017621D01*
X053232Y017771D02*
X053132D01*
Y017621D01*
X053232D01*
X053132Y017696D02*
X053182D01*
X053282Y017771D02*
Y017621D01*
X053357D01*
X053382Y017646D01*
Y017746D01*
X053357Y017771D01*
X053282D01*
X053432Y017621D02*
Y017646D01*
X053457D01*
Y017621D01*
X053432D01*
X050982Y018046D02*
Y017896D01*
X051032Y017946D01*
X051082Y017896D01*
Y018046D01*
X051132Y017896D02*
Y018046D01*
X051207D01*
X051232Y018021D01*
Y017971D01*
X051207Y017946D01*
X051132D01*
X051182D02*
X051232Y017896D01*
X051282Y018046D02*
X051332D01*
X051307D01*
Y017896D01*
X051282D01*
X051332D01*
X051407Y018046D02*
X051507D01*
X051457D01*
Y017896D01*
X051557Y018046D02*
X051657D01*
X051607D01*
Y017896D01*
X051807Y018046D02*
X051707D01*
Y017896D01*
X051807D01*
X051707Y017971D02*
X051757D01*
X051857Y017896D02*
Y018046D01*
X051957Y017896D01*
Y018046D01*
X052157Y017896D02*
Y018046D01*
X052232D01*
X052257Y018021D01*
Y017971D01*
X052232Y017946D01*
X052157D01*
X052407Y018046D02*
X052307D01*
Y017896D01*
X052407D01*
X052307Y017971D02*
X052357D01*
X052457Y017896D02*
Y018046D01*
X052532D01*
X052557Y018021D01*
Y017971D01*
X052532Y017946D01*
X052457D01*
X052507D02*
X052557Y017896D01*
X052607D02*
Y018046D01*
X052657Y017996D01*
X052707Y018046D01*
Y017896D01*
X052757Y018046D02*
X052807D01*
X052782D01*
Y017896D01*
X052757D01*
X052807D01*
X052982Y018021D02*
X052957Y018046D01*
X052907D01*
X052882Y018021D01*
Y017996D01*
X052907Y017971D01*
X052957D01*
X052982Y017946D01*
Y017921D01*
X052957Y017896D01*
X052907D01*
X052882Y017921D01*
X053132Y018021D02*
X053107Y018046D01*
X053057D01*
X053032Y018021D01*
Y017996D01*
X053057Y017971D01*
X053107D01*
X053132Y017946D01*
Y017921D01*
X053107Y017896D01*
X053057D01*
X053032Y017921D01*
X053182Y018046D02*
X053232D01*
X053207D01*
Y017896D01*
X053182D01*
X053232D01*
X053382Y018046D02*
X053332D01*
X053307Y018021D01*
Y017921D01*
X053332Y017896D01*
X053382D01*
X053407Y017921D01*
Y018021D01*
X053382Y018046D01*
X053457Y017896D02*
Y018046D01*
X053557Y017896D01*
Y018046D01*
X053832D02*
X053782D01*
X053757Y018021D01*
Y017921D01*
X053782Y017896D01*
X053832D01*
X053857Y017921D01*
Y018021D01*
X053832Y018046D01*
X054007D02*
X053907D01*
Y017971D01*
X053957D01*
X053907D01*
Y017896D01*
X054206Y018046D02*
Y017896D01*
Y017971D01*
X054306D01*
Y018046D01*
Y017896D01*
X054456Y018046D02*
X054356D01*
Y017896D01*
X054456D01*
X054356Y017971D02*
X054406D01*
X054506Y018046D02*
Y017896D01*
X054606D01*
X054656Y018046D02*
Y017896D01*
X054756D01*
X054881Y018046D02*
X054831D01*
X054806Y018021D01*
Y017921D01*
X054831Y017896D01*
X054881D01*
X054906Y017921D01*
Y018021D01*
X054881Y018046D01*
X050982Y018171D02*
Y018271D01*
X051032Y018321D01*
X051082Y018271D01*
Y018171D01*
Y018246D01*
X050982D01*
X051232Y018296D02*
X051207Y018321D01*
X051157D01*
X051132Y018296D01*
Y018271D01*
X051157Y018246D01*
X051207D01*
X051232Y018221D01*
Y018196D01*
X051207Y018171D01*
X051157D01*
X051132Y018196D01*
X051432Y018171D02*
Y018271D01*
X051482Y018321D01*
X051532Y018271D01*
Y018171D01*
Y018246D01*
X051432D01*
X051732Y018321D02*
Y018171D01*
X051782Y018221D01*
X051832Y018171D01*
Y018321D01*
X051882D02*
Y018171D01*
Y018246D01*
X051982D01*
Y018321D01*
Y018171D01*
X052107Y018321D02*
X052057D01*
X052032Y018296D01*
Y018196D01*
X052057Y018171D01*
X052107D01*
X052132Y018196D01*
Y018296D01*
X052107Y018321D01*
X052182D02*
Y018171D01*
X052282D01*
X052432Y018321D02*
X052332D01*
Y018171D01*
X052432D01*
X052332Y018246D02*
X052382D01*
X052482Y018321D02*
Y018171D01*
X052532Y018221D01*
X052582Y018171D01*
Y018321D01*
X052632D02*
X052682D01*
X052657D01*
Y018171D01*
X052632D01*
X052682D01*
X052757Y018321D02*
X052857D01*
X052807D01*
Y018171D01*
X052907Y018321D02*
Y018171D01*
Y018246D01*
X053007D01*
Y018321D01*
Y018171D01*
X053132Y018321D02*
X053082D01*
X053057Y018296D01*
Y018196D01*
X053082Y018171D01*
X053132D01*
X053157Y018196D01*
Y018296D01*
X053132Y018321D01*
X053207D02*
Y018196D01*
X053232Y018171D01*
X053282D01*
X053307Y018196D01*
Y018321D01*
X053357D02*
X053457D01*
X053407D01*
Y018171D01*
X053657Y018321D02*
X053757D01*
X053707D01*
Y018171D01*
X053807Y018321D02*
Y018171D01*
Y018246D01*
X053907D01*
Y018321D01*
Y018171D01*
X054056Y018321D02*
X053957D01*
Y018171D01*
X054056D01*
X053957Y018246D02*
X054007D01*
X050982Y018446D02*
Y018546D01*
X051032Y018596D01*
X051082Y018546D01*
Y018446D01*
Y018521D01*
X050982D01*
X051132Y018446D02*
Y018596D01*
X051232Y018446D01*
Y018596D01*
X051282D02*
Y018571D01*
X051332Y018521D01*
X051382Y018571D01*
Y018596D01*
X051332Y018521D02*
Y018446D01*
X051582D02*
Y018596D01*
X051657D01*
X051682Y018571D01*
Y018521D01*
X051657Y018496D01*
X051582D01*
X051632D02*
X051682Y018446D01*
X051832Y018596D02*
X051732D01*
Y018446D01*
X051832D01*
X051732Y018521D02*
X051782D01*
X051882Y018446D02*
Y018596D01*
X051957D01*
X051982Y018571D01*
Y018521D01*
X051957Y018496D01*
X051882D01*
X052032Y018446D02*
Y018596D01*
X052107D01*
X052132Y018571D01*
Y018521D01*
X052107Y018496D01*
X052032D01*
X052082D02*
X052132Y018446D01*
X052257Y018596D02*
X052207D01*
X052182Y018571D01*
Y018471D01*
X052207Y018446D01*
X052257D01*
X052282Y018471D01*
Y018571D01*
X052257Y018596D01*
X052332D02*
Y018446D01*
X052407D01*
X052432Y018471D01*
Y018571D01*
X052407Y018596D01*
X052332D01*
X052482D02*
Y018471D01*
X052507Y018446D01*
X052557D01*
X052582Y018471D01*
Y018596D01*
X052732Y018571D02*
X052707Y018596D01*
X052657D01*
X052632Y018571D01*
Y018471D01*
X052657Y018446D01*
X052707D01*
X052732Y018471D01*
X052782Y018596D02*
X052882D01*
X052832D01*
Y018446D01*
X052932Y018596D02*
X052982D01*
X052957D01*
Y018446D01*
X052932D01*
X052982D01*
X053132Y018596D02*
X053082D01*
X053057Y018571D01*
Y018471D01*
X053082Y018446D01*
X053132D01*
X053157Y018471D01*
Y018571D01*
X053132Y018596D01*
X053207Y018446D02*
Y018596D01*
X053307Y018446D01*
Y018596D01*
X053507D02*
X053557D01*
X053532D01*
Y018446D01*
X053507D01*
X053557D01*
X053632D02*
Y018596D01*
X053732Y018446D01*
Y018596D01*
X053932Y018446D02*
Y018596D01*
X054007D01*
X054031Y018571D01*
Y018521D01*
X054007Y018496D01*
X053932D01*
X054081Y018446D02*
Y018546D01*
X054131Y018596D01*
X054181Y018546D01*
Y018446D01*
Y018521D01*
X054081D01*
X054231Y018446D02*
Y018596D01*
X054306D01*
X054331Y018571D01*
Y018521D01*
X054306Y018496D01*
X054231D01*
X054281D02*
X054331Y018446D01*
X054381Y018596D02*
X054481D01*
X054431D01*
Y018446D01*
X054756Y018596D02*
X054706D01*
X054681Y018571D01*
Y018471D01*
X054706Y018446D01*
X054756D01*
X054781Y018471D01*
Y018571D01*
X054756Y018596D01*
X054831Y018446D02*
Y018596D01*
X054906D01*
X054931Y018571D01*
Y018521D01*
X054906Y018496D01*
X054831D01*
X054881D02*
X054931Y018446D01*
X050982Y018996D02*
Y019146D01*
X051057D01*
X051082Y019121D01*
Y019071D01*
X051057Y019046D01*
X050982D01*
X051132Y018996D02*
Y019146D01*
X051207D01*
X051232Y019121D01*
Y019071D01*
X051207Y019046D01*
X051132D01*
X051182D02*
X051232Y018996D01*
X051357Y019146D02*
X051307D01*
X051282Y019121D01*
Y019021D01*
X051307Y018996D01*
X051357D01*
X051382Y019021D01*
Y019121D01*
X051357Y019146D01*
X051432Y018996D02*
Y019146D01*
X051507D01*
X051532Y019121D01*
Y019071D01*
X051507Y019046D01*
X051432D01*
X051682Y019146D02*
X051582D01*
Y018996D01*
X051682D01*
X051582Y019071D02*
X051632D01*
X051732Y018996D02*
Y019146D01*
X051807D01*
X051832Y019121D01*
Y019071D01*
X051807Y019046D01*
X051732D01*
X051782D02*
X051832Y018996D01*
X051882Y019146D02*
X051982D01*
X051932D01*
Y018996D01*
X052032Y019146D02*
Y019121D01*
X052082Y019071D01*
X052132Y019121D01*
Y019146D01*
X052082Y019071D02*
Y018996D01*
X052407Y019146D02*
X052357D01*
X052332Y019121D01*
Y019021D01*
X052357Y018996D01*
X052407D01*
X052432Y019021D01*
Y019121D01*
X052407Y019146D01*
X052582D02*
X052482D01*
Y019071D01*
X052532D01*
X052482D01*
Y018996D01*
X052782Y019146D02*
Y018996D01*
Y019071D01*
X052882D01*
Y019146D01*
Y018996D01*
X053032Y019146D02*
X052932D01*
Y018996D01*
X053032D01*
X052932Y019071D02*
X052982D01*
X053082Y019146D02*
Y018996D01*
X053182D01*
X053232Y019146D02*
Y018996D01*
X053332D01*
X053457Y019146D02*
X053407D01*
X053382Y019121D01*
Y019021D01*
X053407Y018996D01*
X053457D01*
X053482Y019021D01*
Y019121D01*
X053457Y019146D01*
X053682D02*
X053732D01*
X053707D01*
Y018996D01*
X053682D01*
X053732D01*
X053807D02*
Y019146D01*
X053907Y018996D01*
Y019146D01*
X054056Y019121D02*
X054031Y019146D01*
X053982D01*
X053957Y019121D01*
Y019021D01*
X053982Y018996D01*
X054031D01*
X054056Y019021D01*
X054106Y018996D02*
Y019021D01*
X054131D01*
Y018996D01*
X054106D01*
X050982Y019421D02*
X051082D01*
X051032D01*
Y019271D01*
X051132Y019421D02*
Y019271D01*
Y019346D01*
X051232D01*
Y019421D01*
Y019271D01*
X051282Y019421D02*
X051332D01*
X051307D01*
Y019271D01*
X051282D01*
X051332D01*
X051507Y019396D02*
X051482Y019421D01*
X051432D01*
X051407Y019396D01*
Y019371D01*
X051432Y019346D01*
X051482D01*
X051507Y019321D01*
Y019296D01*
X051482Y019271D01*
X051432D01*
X051407Y019296D01*
X051707Y019421D02*
Y019271D01*
X051782D01*
X051807Y019296D01*
Y019396D01*
X051782Y019421D01*
X051707D01*
X051857Y019271D02*
Y019421D01*
X051932D01*
X051957Y019396D01*
Y019346D01*
X051932Y019321D01*
X051857D01*
X051907D02*
X051957Y019271D01*
X052007D02*
Y019371D01*
X052057Y019421D01*
X052107Y019371D01*
Y019271D01*
Y019346D01*
X052007D01*
X052157Y019421D02*
Y019271D01*
X052207Y019321D01*
X052257Y019271D01*
Y019421D01*
X052307D02*
X052357D01*
X052332D01*
Y019271D01*
X052307D01*
X052357D01*
X052432D02*
Y019421D01*
X052532Y019271D01*
Y019421D01*
X052682Y019396D02*
X052657Y019421D01*
X052607D01*
X052582Y019396D01*
Y019296D01*
X052607Y019271D01*
X052657D01*
X052682Y019296D01*
Y019346D01*
X052632D01*
X052882Y019421D02*
X052932D01*
X052907D01*
Y019271D01*
X052882D01*
X052932D01*
X053107Y019396D02*
X053082Y019421D01*
X053032D01*
X053007Y019396D01*
Y019371D01*
X053032Y019346D01*
X053082D01*
X053107Y019321D01*
Y019296D01*
X053082Y019271D01*
X053032D01*
X053007Y019296D01*
X053307Y019421D02*
X053407D01*
X053357D01*
Y019271D01*
X053457Y019421D02*
Y019271D01*
Y019346D01*
X053557D01*
Y019421D01*
Y019271D01*
X053707Y019421D02*
X053607D01*
Y019271D01*
X053707D01*
X053607Y019346D02*
X053657D01*
X054007Y019396D02*
X053982Y019421D01*
X053932D01*
X053907Y019396D01*
Y019371D01*
X053932Y019346D01*
X053982D01*
X054007Y019321D01*
Y019296D01*
X053982Y019271D01*
X053932D01*
X053907Y019296D01*
X054131Y019421D02*
X054081D01*
X054056Y019396D01*
Y019296D01*
X054081Y019271D01*
X054131D01*
X054156Y019296D01*
Y019396D01*
X054131Y019421D01*
X054206D02*
Y019271D01*
X054306D01*
X054456Y019421D02*
X054356D01*
Y019271D01*
X054456D01*
X054356Y019346D02*
X054406D01*
X050982Y019696D02*
X051082D01*
X051032D01*
Y019546D01*
X051132Y019696D02*
Y019546D01*
Y019621D01*
X051232D01*
Y019696D01*
Y019546D01*
X051382Y019696D02*
X051282D01*
Y019546D01*
X051382D01*
X051282Y019621D02*
X051332D01*
X051582Y019696D02*
X051632D01*
X051607D01*
Y019546D01*
X051582D01*
X051632D01*
X051707D02*
Y019696D01*
X051807Y019546D01*
Y019696D01*
X051957D02*
X051857D01*
Y019621D01*
X051907D01*
X051857D01*
Y019546D01*
X052082Y019696D02*
X052032D01*
X052007Y019671D01*
Y019571D01*
X052032Y019546D01*
X052082D01*
X052107Y019571D01*
Y019671D01*
X052082Y019696D01*
X052157Y019546D02*
Y019696D01*
X052232D01*
X052257Y019671D01*
Y019621D01*
X052232Y019596D01*
X052157D01*
X052207D02*
X052257Y019546D01*
X052307D02*
Y019696D01*
X052357Y019646D01*
X052407Y019696D01*
Y019546D01*
X052457D02*
Y019646D01*
X052507Y019696D01*
X052557Y019646D01*
Y019546D01*
Y019621D01*
X052457D01*
X052607Y019696D02*
X052707D01*
X052657D01*
Y019546D01*
X052757Y019696D02*
X052807D01*
X052782D01*
Y019546D01*
X052757D01*
X052807D01*
X052957Y019696D02*
X052907D01*
X052882Y019671D01*
Y019571D01*
X052907Y019546D01*
X052957D01*
X052982Y019571D01*
Y019671D01*
X052957Y019696D01*
X053032Y019546D02*
Y019696D01*
X053132Y019546D01*
Y019696D01*
X053432Y019671D02*
X053407Y019696D01*
X053357D01*
X053332Y019671D01*
Y019571D01*
X053357Y019546D01*
X053407D01*
X053432Y019571D01*
X053557Y019696D02*
X053507D01*
X053482Y019671D01*
Y019571D01*
X053507Y019546D01*
X053557D01*
X053582Y019571D01*
Y019671D01*
X053557Y019696D01*
X053632Y019546D02*
Y019696D01*
X053732Y019546D01*
Y019696D01*
X053782D02*
X053882D01*
X053832D01*
Y019546D01*
X053932D02*
Y019646D01*
X053982Y019696D01*
X054031Y019646D01*
Y019546D01*
Y019621D01*
X053932D01*
X054081Y019696D02*
X054131D01*
X054106D01*
Y019546D01*
X054081D01*
X054131D01*
X054206D02*
Y019696D01*
X054306Y019546D01*
Y019696D01*
X054456D02*
X054356D01*
Y019546D01*
X054456D01*
X054356Y019621D02*
X054406D01*
X054506Y019696D02*
Y019546D01*
X054581D01*
X054606Y019571D01*
Y019671D01*
X054581Y019696D01*
X054506D01*
X054806D02*
X054856D01*
X054831D01*
Y019546D01*
X054806D01*
X054856D01*
X054931D02*
Y019696D01*
X055031Y019546D01*
Y019696D01*
X059702Y04327D02*
X059782D01*
X059742D01*
Y043508D01*
X059702Y043469D01*
X054714Y043286D02*
X054555D01*
X054714Y043445D01*
Y043484D01*
X054674Y043524D01*
X054595D01*
X054555Y043484D01*
X049556Y043467D02*
X049596Y043507D01*
X049675D01*
X049715Y043467D01*
Y043428D01*
X049675Y043388D01*
X049635D01*
X049675D01*
X049715Y043348D01*
Y043309D01*
X049675Y043269D01*
X049596D01*
X049556Y043309D01*
X044675Y043285D02*
Y043523D01*
X044556Y043404D01*
X044715D01*
X039671Y043527D02*
X039513D01*
Y043408D01*
X039592Y043447D01*
X039632D01*
X039671Y043408D01*
Y043328D01*
X039632Y043289D01*
X039552D01*
X039513Y043328D01*
X034642Y043525D02*
X034563Y043486D01*
X034483Y043406D01*
Y043327D01*
X034523Y043287D01*
X034602D01*
X034642Y043327D01*
Y043367D01*
X034602Y043406D01*
X034483D01*
X029536Y043505D02*
X029695D01*
Y043465D01*
X029536Y043307D01*
Y043267D01*
X02435Y043472D02*
X02439Y043512D01*
X024469D01*
X024509Y043472D01*
Y043433D01*
X024469Y043393D01*
X024509Y043353D01*
Y043314D01*
X024469Y043274D01*
X02439D01*
X02435Y043314D01*
Y043353D01*
X02439Y043393D01*
X02435Y043433D01*
Y043472D01*
X02439Y043393D02*
X024469D01*
X02436Y016503D02*
X024399Y016543D01*
X024479D01*
X024518Y016503D01*
Y016463D01*
X024479Y016423D01*
X024518Y016384D01*
Y016344D01*
X024479Y016304D01*
X024399D01*
X02436Y016344D01*
Y016384D01*
X024399Y016423D01*
X02436Y016463D01*
Y016503D01*
X024399Y016423D02*
X024479D01*
X029518Y016543D02*
X029676D01*
Y016504D01*
X029518Y016345D01*
Y016305D01*
X034658Y016544D02*
X034579Y016505D01*
X0345Y016425D01*
Y016346D01*
X034539Y016306D01*
X034619D01*
X034658Y016346D01*
Y016386D01*
X034619Y016425D01*
X0345D01*
X039653Y016536D02*
X039494D01*
Y016417D01*
X039573Y016457D01*
X039613D01*
X039653Y016417D01*
Y016338D01*
X039613Y016298D01*
X039534D01*
X039494Y016338D01*
X04446Y016324D02*
Y016562D01*
X044341Y016443D01*
X0445D01*
X049384Y016499D02*
X049424Y016539D01*
X049503D01*
X049543Y016499D01*
Y01646D01*
X049503Y01642D01*
X049463D01*
X049503D01*
X049543Y01638D01*
Y016341D01*
X049503Y016301D01*
X049424D01*
X049384Y016341D01*
X054555Y016303D02*
X054397D01*
X054555Y016462D01*
Y016501D01*
X054516Y016541D01*
X054436D01*
X054397Y016501D01*
X059619Y016275D02*
X059698D01*
X059659D01*
Y016513D01*
X059619Y016473D01*
X021605Y040022D02*
Y039784D01*
X021724D01*
X021764Y039824D01*
Y039983D01*
X021724Y040022D01*
X021605D01*
X021761Y033513D02*
X021721Y033552D01*
X021642D01*
X021602Y033513D01*
Y033354D01*
X021642Y033314D01*
X021721D01*
X021761Y033354D01*
X0216Y027159D02*
Y026921D01*
X021719D01*
X021759Y026961D01*
Y027D01*
X021719Y02704D01*
X0216D01*
X021719D01*
X021759Y02708D01*
Y027119D01*
X021719Y027159D01*
X0216D01*
X021599Y020222D02*
Y020381D01*
X021678Y02046D01*
X021758Y020381D01*
Y020222D01*
Y020341D01*
X021599D01*
X062456Y027123D02*
Y026885D01*
X062575D01*
X062615Y026925D01*
Y026964D01*
X062575Y027004D01*
X062456D01*
X062575D01*
X062615Y027044D01*
Y027083D01*
X062575Y027123D01*
X062456D01*
X062512Y033499D02*
X062473Y033539D01*
X062393D01*
X062354Y033499D01*
Y033341D01*
X062393Y033301D01*
X062473D01*
X062512Y033341D01*
X062405Y040107D02*
Y039869D01*
X062524D01*
X062563Y039909D01*
Y040068D01*
X062524Y040107D01*
X062405D01*
D27*
X057691Y021295D02*
X057691Y021306D01*
X05769Y021283D02*
X057691Y021295D01*
X057689Y021272D02*
X05769Y021283D01*
X057687Y021261D02*
X057689Y021272D01*
X057685Y021249D02*
X057687Y021261D01*
X057682Y021238D02*
X057685Y021249D01*
X057679Y021227D02*
X057682Y021238D01*
X057674Y021215D02*
X057679Y021227D01*
X057568Y021139D02*
X057576Y02114D01*
X057563Y021138D02*
X057568Y021139D01*
X057558Y021138D02*
X057563Y021138D01*
X057554Y021138D02*
X057558Y021138D01*
X057551Y021137D02*
X057554Y021138D01*
X057548Y021137D02*
X057551Y021137D01*
X057545Y021137D02*
X057548Y021137D01*
X057543Y021137D02*
X057545Y021137D01*
X057541Y021137D02*
X057543Y021137D01*
X057539Y021137D02*
X057541Y021137D01*
X057537Y021137D02*
X057539Y021137D01*
X057535Y021137D02*
X057537Y021137D01*
X057534Y021137D02*
X057535Y021137D01*
X057533Y021137D02*
X057534Y021137D01*
X057532Y021137D02*
X057533Y021137D01*
X057531Y021137D02*
X057532Y021137D01*
X057529Y021137D02*
X057531Y021137D01*
X057529Y021137D02*
X057529Y021137D01*
X057528Y021137D02*
X057529Y021137D01*
X057527Y021137D02*
X057528Y021137D01*
X057526Y021137D02*
X057527Y021137D01*
X057526Y021137D02*
X057526Y021137D01*
X057525Y021137D02*
X057526Y021137D01*
X057525Y021137D02*
X057525Y021137D01*
X057525Y021137D02*
X057525D01*
X057524Y021137D02*
X057525Y021137D01*
X057524Y021137D02*
X057524D01*
X057523Y021137D02*
X057524Y021137D01*
X057523Y021137D02*
X057523D01*
X057523D02*
X057523D01*
X057522D02*
X057523D01*
X057522D02*
X057522D01*
X057522D02*
X057522D01*
X057521D02*
X057522D01*
X057521D02*
X057521D01*
X05752D02*
X057521D01*
X05752Y021137D02*
X05752Y021137D01*
X05752Y021137D02*
X05752D01*
X057519Y021137D02*
X05752Y021137D01*
X057519Y021137D02*
X057519D01*
X057518Y021137D02*
X057519Y021137D01*
X057517Y021137D02*
X057518Y021137D01*
X057517Y021137D02*
X057517Y021137D01*
X057516Y021137D02*
X057517Y021137D01*
X057515Y021137D02*
X057516Y021137D01*
X057514Y021137D02*
X057515Y021137D01*
X057513Y021137D02*
X057514Y021137D01*
X057512Y021137D02*
X057513Y021137D01*
X05751Y021137D02*
X057512Y021137D01*
X057509Y021137D02*
X05751Y021137D01*
X057507Y021137D02*
X057509Y021137D01*
X057506Y021137D02*
X057507Y021137D01*
X057503Y021137D02*
X057506Y021137D01*
X057501Y021137D02*
X057503Y021137D01*
X057498Y021137D02*
X057501Y021137D01*
X057495Y021137D02*
X057498Y021137D01*
X057492Y021137D02*
X057495Y021137D01*
X057488Y021138D02*
X057492Y021137D01*
X057483Y021138D02*
X057488Y021138D01*
X057477Y021139D02*
X057483Y021138D01*
X057469Y02114D02*
X057477Y021139D01*
X057367Y021222D02*
X057372Y021211D01*
X057363Y021233D02*
X057367Y021222D01*
X05736Y021243D02*
X057363Y021233D01*
X057358Y021253D02*
X05736Y021243D01*
X057356Y021262D02*
X057358Y021253D01*
X057355Y021273D02*
X057356Y021262D01*
X057354Y021283D02*
X057355Y021273D01*
X057353Y021294D02*
X057354Y021283D01*
X059147Y021054D02*
X05915Y021055D01*
X059138Y02105D02*
X059147Y021054D01*
X059132Y021049D02*
X059138Y02105D01*
X059127Y021047D02*
X059132Y021049D01*
X059123Y021046D02*
X059127Y021047D01*
X059116Y021045D02*
X059123Y021046D01*
X059112Y021045D02*
X059116Y021045D01*
X059109Y021044D02*
X059112Y021045D01*
X059106Y021044D02*
X059109Y021044D01*
X059104Y021044D02*
X059106Y021044D01*
X059102Y021044D02*
X059104Y021044D01*
X059101Y021044D02*
X059102Y021044D01*
X059099Y021044D02*
X059101Y021044D01*
X059098Y021044D02*
X059099Y021044D01*
X059096Y021044D02*
X059098Y021044D01*
X059095Y021044D02*
X059096Y021044D01*
X059094Y021044D02*
X059095Y021044D01*
X059093Y021044D02*
X059094Y021044D01*
X059092Y021044D02*
X059093Y021044D01*
X059091Y021044D02*
X059092Y021044D01*
X05909Y021044D02*
X059091Y021044D01*
X059089Y021044D02*
X05909Y021044D01*
X059089Y021044D02*
X059089Y021044D01*
X059088Y021044D02*
X059089Y021044D01*
X059087Y021044D02*
X059088Y021044D01*
X059087Y021044D02*
X059087Y021044D01*
X059086Y021044D02*
X059087Y021044D01*
X059086Y021044D02*
X059086Y021044D01*
X059085Y021044D02*
X059086Y021044D01*
X059085Y021044D02*
X059085Y021044D01*
X059085Y021044D02*
X059085Y021044D01*
X059084Y021044D02*
X059085Y021044D01*
X059084Y021044D02*
X059084Y021044D01*
X059084Y021044D02*
X059084D01*
X059083Y021044D02*
X059084Y021044D01*
X059083Y021044D02*
X059083D01*
X059083Y021044D02*
X059083Y021044D01*
X059083Y021044D02*
X059083D01*
X059083D02*
X059083D01*
X059082D02*
X059083D01*
X059082D02*
X059082D01*
X059082D02*
X059082D01*
X059082D02*
X059082D01*
X059082D02*
X059082D01*
X059082D02*
X059082D01*
X059082D02*
X059082D01*
X059081D02*
X059082D01*
X059081D02*
X059081D01*
X059081D02*
X059081D01*
X059081D02*
X059081D01*
X059081D02*
X059081D01*
X059081D02*
X059081D01*
X05908D02*
X059081D01*
X05908Y021044D02*
X05908Y021044D01*
X05908Y021044D02*
X05908D01*
X05908Y021044D02*
X05908Y021044D01*
X059079Y021044D02*
X05908Y021044D01*
X059079Y021044D02*
X059079Y021044D01*
X059079Y021044D02*
X059079Y021044D01*
X059078Y021044D02*
X059079Y021044D01*
X059078Y021044D02*
X059078Y021044D01*
X059078Y021044D02*
X059078Y021044D01*
X059077Y021044D02*
X059078Y021044D01*
X059076Y021044D02*
X059077Y021044D01*
X059076Y021044D02*
X059076Y021044D01*
X059075Y021044D02*
X059076Y021044D01*
X059074Y021044D02*
X059075Y021044D01*
X059073Y021044D02*
X059074Y021044D01*
X059072Y021044D02*
X059073Y021044D01*
X05907Y021044D02*
X059072Y021044D01*
X059068Y021044D02*
X05907Y021044D01*
X059066Y021044D02*
X059068Y021044D01*
X059063Y021044D02*
X059066Y021044D01*
X059033Y021054D02*
X059036Y021053D01*
X059029Y021057D02*
X059033Y021054D01*
X059006Y021087D02*
X059008Y021083D01*
X059004Y021092D02*
X059006Y021087D01*
X059003Y021097D02*
X059004Y021092D01*
X059002Y021102D02*
X059003Y021097D01*
X059001Y021106D02*
X059002Y021102D01*
X059Y021111D02*
X059001Y021106D01*
X059Y021116D02*
X059Y021111D01*
X059Y021121D02*
X059Y021116D01*
X059084Y021141D02*
X059084Y021139D01*
X059085Y021137D01*
X059085Y021136D01*
X059085Y021134D01*
X059085Y021133D01*
X059086Y021132D01*
X059086Y02113D01*
X059093Y021122D02*
X059094Y021121D01*
X059101Y021119D02*
X059102Y021119D01*
X059103Y021119D01*
X059103Y021119D01*
X059104Y021119D01*
X059104Y021119D01*
X059105Y021119D01*
X059105Y021119D01*
X059105Y021119D01*
X059106Y021119D01*
X059106Y021119D01*
X059106Y021119D01*
X059106Y021119D01*
X059106Y021119D01*
X059106Y021119D01*
X059107Y021119D01*
X059107Y021119D01*
X059107Y021119D01*
X059107Y021119D01*
X059107Y021119D01*
X059107D01*
X059107Y021119D01*
X059107D01*
X059107D01*
X059107D01*
X059107D01*
X059107D01*
X059107D01*
X059107D01*
X059107D01*
X059108D01*
X059108D01*
X059108D01*
X059108D01*
X059108D01*
X059108D01*
X059108D01*
X059108D01*
X059108D01*
X059108D01*
X059108D01*
X059108D01*
X059108D01*
X059108Y021119D01*
X059108D01*
X059108D01*
X059109Y021119D01*
X059109Y021119D01*
X059109D01*
X059109Y021119D01*
X059109Y021119D01*
X059109Y021119D01*
X05911Y021119D01*
X05911Y021119D01*
X05911Y021119D01*
X05911Y021119D01*
X059111Y021119D01*
X059111Y021119D01*
X059111Y021119D01*
X059112Y021119D01*
X059113Y021119D01*
X059118Y021119D01*
X059119Y021119D01*
X059119Y021119D01*
X05912Y021119D01*
X059121Y021119D01*
X059122Y02112D01*
X059123Y02112D01*
X059123Y02112D01*
X059124Y02112D01*
X059125Y02112D01*
X059126Y02112D01*
X059127Y021121D01*
X059129Y021121D01*
X05913Y021121D01*
X059131Y021121D01*
X059132Y021122D01*
X059134Y021122D01*
X058964Y021053D02*
X058967Y021055D01*
X058955Y02105D02*
X058964Y021053D01*
X058949Y021049D02*
X058955Y02105D01*
X058944Y021047D02*
X058949Y021049D01*
X05894Y021046D02*
X058944Y021047D01*
X058933Y021045D02*
X05894Y021046D01*
X058929Y021045D02*
X058933Y021045D01*
X058926Y021044D02*
X058929Y021045D01*
X058924Y021044D02*
X058926Y021044D01*
X058922Y021044D02*
X058924Y021044D01*
X05892Y021044D02*
X058922Y021044D01*
X058918Y021044D02*
X05892Y021044D01*
X058916Y021044D02*
X058918Y021044D01*
X058915Y021044D02*
X058916Y021044D01*
X058914Y021044D02*
X058915Y021044D01*
X058912Y021044D02*
X058914Y021044D01*
X058911Y021044D02*
X058912Y021044D01*
X05891Y021044D02*
X058911Y021044D01*
X058909Y021044D02*
X05891Y021044D01*
X058908Y021044D02*
X058909Y021044D01*
X058907Y021044D02*
X058908Y021044D01*
X058906Y021044D02*
X058907Y021044D01*
X058906Y021044D02*
X058906Y021044D01*
X058905Y021044D02*
X058906Y021044D01*
X058905Y021044D02*
X058905Y021044D01*
X058904Y021044D02*
X058905Y021044D01*
X058903Y021044D02*
X058904Y021044D01*
X058903Y021044D02*
X058903Y021044D01*
X058903Y021044D02*
X058903Y021044D01*
X058902Y021044D02*
X058903Y021044D01*
X058902Y021044D02*
X058902Y021044D01*
X058901Y021044D02*
X058902Y021044D01*
X058901Y021044D02*
X058901Y021044D01*
X058901Y021044D02*
X058901D01*
X058901Y021044D02*
X058901Y021044D01*
X0589Y021044D02*
X058901D01*
X0589Y021044D02*
X0589Y021044D01*
X0589Y021044D02*
X0589D01*
X0589D02*
X0589D01*
X0589D02*
X0589D01*
X058899D02*
X0589D01*
X058899D02*
X058899D01*
X058899D02*
X058899D01*
X058899D02*
X058899D01*
X058899D02*
X058899D01*
X058899D02*
X058899D01*
X058898D02*
X058899D01*
X058898D02*
X058898D01*
X058898D02*
X058898D01*
X058898D02*
X058898D01*
X058898D02*
X058898D01*
X058898D02*
X058898D01*
X058898D02*
X058898D01*
X058897Y021044D02*
X058898Y021044D01*
X058897Y021044D02*
X058897D01*
X058897Y021044D02*
X058897Y021044D01*
X058897Y021044D02*
X058897Y021044D01*
X058896Y021044D02*
X058897Y021044D01*
X058896Y021044D02*
X058896Y021044D01*
X058896Y021044D02*
X058896Y021044D01*
X058895Y021044D02*
X058896Y021044D01*
X058895Y021044D02*
X058895Y021044D01*
X058894Y021044D02*
X058895Y021044D01*
X058894Y021044D02*
X058894Y021044D01*
X058893Y021044D02*
X058894Y021044D01*
X058892Y021044D02*
X058893Y021044D01*
X058891Y021044D02*
X058892Y021044D01*
X05889Y021044D02*
X058891Y021044D01*
X058889Y021044D02*
X05889Y021044D01*
X058887Y021044D02*
X058889Y021044D01*
X058885Y021044D02*
X058887Y021044D01*
X058883Y021044D02*
X058885Y021044D01*
X05888Y021044D02*
X058883Y021044D01*
X05885Y021054D02*
X058853Y021053D01*
X058846Y021057D02*
X05885Y021054D01*
X058823Y021087D02*
X058825Y021083D01*
X058821Y021092D02*
X058823Y021087D01*
X05882Y021097D02*
X058821Y021092D01*
X058819Y021102D02*
X05882Y021097D01*
X058818Y021106D02*
X058819Y021102D01*
X058818Y021111D02*
X058818Y021106D01*
X058817Y021116D02*
X058818Y021111D01*
X058817Y021121D02*
X058817Y021116D01*
X058901Y021142D02*
X058902Y02114D01*
X058902Y021139D01*
X058902Y021137D01*
X058902Y021136D01*
X058902Y021134D01*
X058903Y021133D01*
X058903Y021131D01*
X058904Y02113D01*
X05891Y021122D02*
X058911Y021122D01*
X058918Y021119D02*
X058919Y021119D01*
X05892Y021119D01*
X058921Y021119D01*
X058921Y021119D01*
X058922Y021119D01*
X058922Y021119D01*
X058922Y021119D01*
X058923Y021119D01*
X058923Y021119D01*
X058923Y021119D01*
X058923Y021119D01*
X058923Y021119D01*
X058923Y021119D01*
X058924Y021119D01*
X058924Y021119D01*
X058924Y021119D01*
X058924Y021119D01*
X058924Y021119D01*
X058924Y021119D01*
X058924D01*
X058924Y021119D01*
X058924D01*
X058924D01*
X058924D01*
X058924D01*
X058924D01*
X058925D01*
X058925D01*
X058925D01*
X058925D01*
X058925D01*
X058925D01*
X058925D01*
X058925D01*
X058925D01*
X058925D01*
X058925D01*
X058925D01*
X058925D01*
X058925D01*
X058925D01*
X058925D01*
X058925Y021119D01*
X058925D01*
X058926D01*
X058926Y021119D01*
X058926Y021119D01*
X058926Y021119D01*
X058926Y021119D01*
X058926Y021119D01*
X058927Y021119D01*
X058927Y021119D01*
X058927Y021119D01*
X058927Y021119D01*
X058928Y021119D01*
X058928Y021119D01*
X058928Y021119D01*
X058929Y021119D01*
X058929Y021119D01*
X05893Y021119D01*
X058935Y021119D01*
X058936Y021119D01*
X058936Y021119D01*
X058937Y021119D01*
X058938Y021119D01*
X058939Y021119D01*
X05894Y02112D01*
X05894Y02112D01*
X058941Y02112D01*
X058942Y02112D01*
X058943Y02112D01*
X058944Y021121D01*
X058946Y021121D01*
X058947Y021121D01*
X058948Y021121D01*
X058949Y021122D01*
X058951Y021122D01*
X058566Y02126D02*
X058571Y02126D01*
X058562Y02126D02*
X058566Y02126D01*
X058557Y02126D02*
X058562Y02126D01*
X058554Y02126D02*
X058557Y02126D01*
X05855Y02126D02*
X058554Y02126D01*
X058547Y02126D02*
X05855Y02126D01*
X058543Y021261D02*
X058547Y02126D01*
X05854Y021261D02*
X058543Y021261D01*
X058538Y021261D02*
X05854Y021261D01*
X058535Y021261D02*
X058538Y021261D01*
X058533Y021261D02*
X058535Y021261D01*
X05853Y021261D02*
X058533Y021261D01*
X058528Y021261D02*
X05853Y021261D01*
X058526Y021262D02*
X058528Y021261D01*
X058525Y021262D02*
X058526Y021262D01*
X058523Y021262D02*
X058525Y021262D01*
X058521Y021262D02*
X058523Y021262D01*
X05852Y021262D02*
X058521Y021262D01*
X058519Y021262D02*
X05852Y021262D01*
X058517Y021263D02*
X058519Y021262D01*
X058516Y021263D02*
X058517Y021263D01*
X058516Y021263D02*
X058516Y021264D01*
X058516Y021266D01*
X058517Y021269D01*
X058517Y021272D01*
X058518Y021275D01*
X058519Y02128D01*
X058527Y021305D02*
X058531Y021315D01*
X058534Y021321D01*
X058536Y021325D01*
X058539Y021329D01*
X058541Y021333D01*
X058543Y021336D01*
X058546Y021339D01*
X058548Y021342D01*
X058573Y021358D02*
X058578Y02136D01*
X058582Y021361D01*
X058585Y021361D01*
X058588Y021362D01*
X058591Y021362D01*
X058594Y021362D01*
X058596Y021363D01*
X058598Y021363D01*
X0586Y021363D01*
X058602Y021363D01*
X058604Y021363D01*
X058605Y021363D01*
X058607Y021363D01*
X058608Y021363D01*
X058609Y021363D01*
X05861Y021363D01*
X058611Y021363D01*
X058612Y021363D01*
X058613Y021363D01*
X058614Y021363D01*
X058614Y021363D01*
X058615Y021363D01*
X058615Y021363D01*
X058616Y021363D01*
X058616Y021363D01*
X058617Y021363D01*
X058617D01*
X058618D01*
X058618D01*
X058619D01*
X058619Y021363D01*
X05862D01*
X05862D01*
X058621Y021363D01*
X058621Y021363D01*
X058622Y021363D01*
X058622Y021363D01*
X058623Y021363D01*
X058623Y021363D01*
X058624Y021363D01*
X058625Y021363D01*
X058626Y021363D01*
X058627Y021363D01*
X058628Y021363D01*
X058629Y021363D01*
X058631Y021363D01*
X058632Y021363D01*
X058633Y021363D01*
X058635Y021363D01*
X058637Y021363D01*
X058639Y021363D01*
X05864Y021363D01*
X058642Y021363D01*
X058644Y021363D01*
X058646Y021363D01*
X058648Y021363D01*
X05865Y021363D01*
X058652Y021363D01*
X058654Y021363D01*
X058656Y021362D01*
X058658Y021362D01*
X05866Y021362D01*
X058662Y021362D01*
X058664Y021362D01*
X058666Y021361D01*
X058667Y021361D01*
X058669Y021361D01*
X05867Y02136D01*
X058671Y02136D01*
X058672Y02136D01*
X058673Y021359D01*
X058675Y021359D01*
X058676Y021359D01*
X058677Y021358D01*
X058679Y021357D01*
X05869Y021347D02*
X05869Y021345D01*
X058691Y021344D01*
X058692Y021343D01*
X058692Y021341D01*
X058692Y02134D01*
X058692Y021339D01*
X058693Y021339D01*
X058693Y021338D01*
X058693Y021337D01*
X058693Y021337D01*
X058694Y021329D02*
X058694Y021327D01*
X058694Y021325D01*
X058694Y021324D01*
X058695Y021323D01*
X058695Y021322D01*
X058695Y021321D01*
X058695Y021321D01*
X058695Y02132D01*
X058695Y02132D01*
X058695Y021319D01*
X058695Y021319D01*
X058695Y021318D01*
X058695Y021318D01*
X058695Y021317D01*
X058695Y021317D01*
X058695Y021317D01*
X058695Y021316D01*
X058695Y021316D01*
X058695Y021316D01*
X058695Y021316D01*
Y021316D02*
Y021316D01*
Y021316D02*
X058695Y021315D01*
Y021315D02*
Y021315D01*
Y021315D02*
X058695Y021315D01*
Y021315D02*
Y021315D01*
Y021315D02*
Y021315D01*
Y021315D02*
Y021315D01*
Y021314D02*
Y021315D01*
Y021314D02*
Y021314D01*
Y021314D02*
Y021314D01*
Y021314D02*
Y021314D01*
Y021314D02*
Y021314D01*
Y021314D02*
Y021314D01*
Y021313D02*
Y021314D01*
X058695Y021313D02*
X058695Y021313D01*
X058695Y021313D02*
Y021313D01*
X058695Y021313D02*
X058695Y021313D01*
X058695Y021313D02*
X058695Y021313D01*
X058695Y021312D02*
X058695Y021313D01*
X058695Y021312D02*
X058695Y021312D01*
X058695Y021312D02*
X058695Y021312D01*
X058695Y021311D02*
X058695Y021312D01*
X058695Y021311D02*
X058695Y021311D01*
X058695Y02131D02*
X058695Y021311D01*
X058695Y02131D02*
X058695Y02131D01*
X058695Y021309D02*
X058695Y02131D01*
X058695Y021308D02*
X058695Y021309D01*
X058695Y021307D02*
X058695Y021308D01*
X058694Y021306D02*
X058695Y021307D01*
X058694Y021304D02*
X058694Y021306D01*
X058694Y021301D02*
X058694Y021304D01*
X05869Y021285D02*
X05869Y021285D01*
X05869Y021284D02*
X05869Y021285D01*
X05869Y021284D02*
X05869Y021284D01*
X058689Y021283D02*
X05869Y021284D01*
X058689Y021283D02*
X058689Y021283D01*
X058689Y021282D02*
X058689Y021283D01*
X058688Y021281D02*
X058689Y021282D01*
X058683Y021275D02*
X058684Y021276D01*
X058682Y021274D02*
X058683Y021275D01*
X058681Y021273D02*
X058682Y021274D01*
X058679Y021273D02*
X058681Y021273D01*
X058678Y021272D02*
X058679Y021273D01*
X058677Y021271D02*
X058678Y021272D01*
X058675Y021271D02*
X058677Y021271D01*
X058674Y02127D02*
X058675Y021271D01*
X058672Y021269D02*
X058674Y02127D01*
X05867Y021269D02*
X058672Y021269D01*
X058668Y021268D02*
X05867Y021269D01*
X058666Y021268D02*
X058668Y021268D01*
X058664Y021267D02*
X058666Y021268D01*
X058662Y021267D02*
X058664Y021267D01*
X058659Y021266D02*
X058662Y021267D01*
X058657Y021265D02*
X058659Y021266D01*
X058654Y021265D02*
X058657Y021265D01*
X058651Y021264D02*
X058654Y021265D01*
X058648Y021264D02*
X058651Y021264D01*
X058644Y021264D02*
X058648Y021264D01*
X058641Y021263D02*
X058644Y021264D01*
X058637Y021263D02*
X058641Y021263D01*
X058633Y021262D02*
X058637Y021263D01*
X058629Y021262D02*
X058633Y021262D01*
X058625Y021262D02*
X058629Y021262D01*
X058621Y021261D02*
X058625Y021262D01*
X058616Y021261D02*
X058621Y021261D01*
X058611Y021261D02*
X058616Y021261D01*
X058606Y021261D02*
X058611Y021261D01*
X058601Y021261D02*
X058606Y021261D01*
X058595Y02126D02*
X058601Y021261D01*
X05859Y02126D02*
X058595Y02126D01*
X058582Y02126D02*
X05859Y02126D01*
X058571Y02126D02*
X058582Y02126D01*
X058751Y021136D02*
X058755Y021138D01*
X058747Y021134D02*
X058751Y021136D01*
X058724Y021126D02*
X058747Y021134D01*
X058715Y021123D02*
X058724Y021126D01*
X058708Y021121D02*
X058715Y021123D01*
X058703Y02112D02*
X058708Y021121D01*
X058678Y021116D02*
X058683Y021117D01*
X058674Y021116D02*
X058678Y021116D01*
X05867Y021116D02*
X058674Y021116D01*
X058667Y021115D02*
X05867Y021116D01*
X058665Y021115D02*
X058667Y021115D01*
X058662Y021115D02*
X058665Y021115D01*
X058659Y021115D02*
X058662Y021115D01*
X058657Y021115D02*
X058659Y021115D01*
X058655Y021115D02*
X058657Y021115D01*
X058654Y021115D02*
X058655Y021115D01*
X058652Y021115D02*
X058654Y021115D01*
X058651Y021115D02*
X058652Y021115D01*
X058649Y021115D02*
X058651Y021115D01*
X058648Y021115D02*
X058649Y021115D01*
X058646Y021115D02*
X058648Y021115D01*
X058645Y021115D02*
X058646Y021115D01*
X058643Y021115D02*
X058645Y021115D01*
X058642Y021115D02*
X058643Y021115D01*
X05864Y021115D02*
X058642Y021115D01*
X058638Y021115D02*
X05864Y021115D01*
X058637Y021115D02*
X058638Y021115D01*
X058635Y021115D02*
X058637D01*
X058633Y021115D02*
X058635Y021115D01*
X058632Y021115D02*
X058633Y021115D01*
X05863Y021115D02*
X058632Y021115D01*
X058628Y021115D02*
X05863Y021115D01*
X058626Y021115D02*
X058628Y021115D01*
X058624Y021115D02*
X058626Y021115D01*
X058623Y021115D02*
X058624Y021115D01*
X058621Y021115D02*
X058623Y021115D01*
X058617Y021115D02*
X058621Y021115D01*
X058613Y021115D02*
X058617Y021115D01*
X05861Y021115D02*
X058613Y021115D01*
X058606Y021115D02*
X05861Y021115D01*
X058602Y021116D02*
X058606Y021115D01*
X058598Y021116D02*
X058602Y021116D01*
X058594Y021116D02*
X058598Y021116D01*
X058591Y021117D02*
X058594Y021116D01*
X058587Y021117D02*
X058591Y021117D01*
X058583Y021117D02*
X058587Y021117D01*
X05858Y021118D02*
X058583Y021117D01*
X058576Y021119D02*
X05858Y021118D01*
X058573Y021119D02*
X058576Y021119D01*
X058569Y02112D02*
X058573Y021119D01*
X058566Y021121D02*
X058569Y02112D01*
X058563Y021122D02*
X058566Y021121D01*
X05856Y021123D02*
X058563Y021122D01*
X058557Y021124D02*
X05856Y021123D01*
X058534Y021145D02*
X058537Y021141D01*
X058532Y021148D02*
X058534Y021145D01*
X058531Y021152D02*
X058532Y021148D01*
X05853Y021155D02*
X058531Y021152D01*
X058529Y021157D02*
X05853Y021155D01*
X058528Y021159D02*
X058529Y021157D01*
X058527Y021161D02*
X058528Y021159D01*
X058527Y021163D02*
X058527Y021161D01*
X058527Y021164D02*
X058527Y021163D01*
X058526Y021165D02*
X058527Y021164D01*
X058526Y021166D02*
X058526Y021165D01*
X058526Y021167D02*
X058526Y021166D01*
X058525Y021168D02*
X058526Y021167D01*
X058525Y02117D02*
X058525Y021168D01*
X058525Y021172D02*
X058525Y02117D01*
X058524Y021173D02*
X058525Y021172D01*
X058524Y021175D02*
X058524Y021173D01*
X058523Y021177D02*
X058524Y021175D01*
X058523Y021178D02*
X058523Y021177D01*
X058523Y02118D02*
X058523Y021178D01*
X058522Y021181D02*
X058523Y02118D01*
X058522Y021182D02*
X058522Y021181D01*
X058522Y021184D02*
X058522Y021182D01*
X058522Y021185D02*
X058522Y021184D01*
X058521Y021186D02*
X058522Y021185D01*
X058521Y021187D02*
X058521Y021186D01*
X058521Y021188D02*
X058521Y021187D01*
X058521Y021189D02*
X058521Y021188D01*
X058521Y02119D02*
X058521Y021189D01*
X058521Y021191D02*
X058521Y02119D01*
X058521Y021192D02*
X058521Y021191D01*
X058521Y021193D02*
X058521Y021194D01*
X058521Y021194D01*
X058521Y021194D01*
X058521Y021195D01*
X058521Y021195D01*
X058521Y021195D01*
X058521Y021195D01*
X058521Y021196D01*
X058521Y021196D01*
X058522Y021196D01*
X058524Y021199D02*
X058524Y021199D01*
X058524Y021199D01*
X058525Y021199D01*
X058525Y021199D01*
X058525Y021199D01*
X058525Y021199D01*
X058526Y021199D01*
X058526Y021199D01*
X058526Y021199D01*
X058526Y021199D01*
X058527Y021199D01*
X058527Y021199D01*
X058527Y021199D01*
X058528Y021199D01*
X058528Y021199D01*
X058528Y021199D01*
X058529Y021199D01*
X058529Y021199D01*
X058529Y021199D01*
X05853Y021199D01*
X05853Y021199D01*
X05853Y021199D01*
X058531Y021199D01*
X058531Y021199D01*
X058531Y021199D01*
X058532Y021199D01*
X058533Y021199D01*
X058534Y021199D01*
X058541Y021199D01*
X058544Y021199D01*
X058546Y021199D01*
X058547Y021199D01*
X058549Y021199D01*
X05855Y021199D01*
X058551Y021199D01*
X058552Y021199D01*
X058553Y021198D01*
X058553Y021198D01*
X058554Y021198D01*
X058554Y021198D01*
X058555Y021198D01*
X058558Y021198D01*
X058559Y021198D01*
X05856Y021198D01*
X058561Y021198D01*
X058561Y021198D01*
X058562Y021198D01*
X058562Y021198D01*
X058563Y021198D01*
X058563Y021198D01*
X058564Y021198D01*
X058565Y021198D01*
X058565Y021198D01*
X058566Y021198D01*
X058567Y021198D01*
X058568Y021198D01*
X058568Y021198D01*
X058569Y021198D01*
X05857Y021198D01*
X058571Y021198D01*
X058572Y021198D01*
X058573Y021198D01*
X058574Y021198D01*
X058575Y021198D01*
X058577Y021198D01*
X058578Y021198D01*
X058579Y021198D01*
X058581Y021198D01*
X058582D01*
X058583Y021198D01*
X058585D01*
X058587D01*
X058588D01*
X05859D01*
X058592Y021198D01*
X058594Y021198D01*
X058596Y021198D01*
X058598Y021198D01*
X0586Y021198D01*
X058604Y021198D01*
X058608Y021198D01*
X058613Y021198D01*
X05862Y021198D01*
X058628Y021199D01*
X058635Y021199D01*
X058643Y021199D01*
X058651Y021199D01*
X058659Y0212D01*
X058667Y0212D01*
X058672Y021201D01*
X058678Y021201D01*
X058683Y021202D01*
X058688Y021202D01*
X058693Y021203D01*
X058698Y021204D01*
X058702Y021204D01*
X058707Y021205D01*
X058713Y021207D01*
X058719Y021208D01*
X058725Y02121D01*
X05873Y021212D01*
X058735Y021214D01*
X05874Y021216D01*
X058744Y021218D01*
X058767Y021241D02*
X058769Y021245D01*
X05877Y021249D01*
X058772Y021254D01*
X058773Y021256D01*
X058773Y02126D01*
X058774Y021263D01*
X058775Y021266D01*
X058775Y021269D01*
X058776Y021272D01*
X058776Y021276D01*
X058776Y021279D01*
X058776Y021282D01*
X058777Y021286D01*
X058777Y021289D01*
X058777Y021293D01*
X058777Y021295D01*
X058777Y021296D01*
X058777Y021298D01*
X058777Y0213D01*
X058777Y021302D01*
X058777Y021303D01*
X058777Y021305D01*
X058777Y021307D01*
X058777Y021309D01*
X058777Y021311D01*
X058777Y021312D01*
Y021314D01*
Y021316D01*
X058777Y021318D02*
X058777Y021316D01*
X058777Y02132D02*
X058777Y021318D01*
X058777Y021321D02*
X058777Y02132D01*
X058777Y021323D02*
X058777Y021321D01*
X058777Y021325D02*
X058777Y021323D01*
X058777Y021327D02*
X058777Y021325D01*
X058777Y021329D02*
X058777Y021327D01*
X058777Y02133D02*
X058777Y021329D01*
X058777Y021334D02*
X058777Y02133D01*
X058777Y021337D02*
X058777Y021334D01*
X058777Y021341D02*
X058777Y021337D01*
X058777Y021344D02*
X058777Y021341D01*
X058776Y021348D02*
X058777Y021344D01*
X058776Y021351D02*
X058776Y021348D01*
X058776Y021355D02*
X058776Y021351D01*
X058775Y021358D02*
X058776Y021355D01*
X058775Y021361D02*
X058775Y021358D01*
X058774Y021366D02*
X058775Y021361D01*
X058773Y021371D02*
X058774Y021366D01*
X058772Y021376D02*
X058773Y021371D01*
X05877Y02138D02*
X058772Y021376D01*
X058736Y021418D02*
X058743Y021414D01*
X058729Y021422D02*
X058736Y021418D01*
X05872Y021426D02*
X058729Y021422D01*
X058701Y021432D02*
X058708Y02143D01*
X058696Y021433D02*
X058701Y021432D01*
X058691Y021434D02*
X058696Y021433D01*
X058685Y021435D02*
X058691Y021434D01*
X05868Y021436D02*
X058685Y021435D01*
X058674Y021436D02*
X05868Y021436D01*
X05867Y021436D02*
X058674Y021436D01*
X058667Y021437D02*
X05867Y021436D01*
X058663Y021437D02*
X058667Y021437D01*
X058659Y021437D02*
X058663Y021437D01*
X058655Y021437D02*
X058659Y021437D01*
X058651Y021437D02*
X058655Y021437D01*
X058647Y021437D02*
X058651Y021437D01*
X058643Y021437D02*
X058647Y021437D01*
X058641Y021438D02*
X058643Y021437D01*
X058639Y021438D02*
X058641Y021438D01*
X058637Y021438D02*
X058639Y021438D01*
X058635Y021438D02*
X058637Y021438D01*
X058633Y021438D02*
X058635Y021438D01*
X058631Y021438D02*
X058633Y021438D01*
X058629Y021438D02*
X058631Y021438D01*
X058627Y021438D02*
X058629Y021438D01*
X058625Y021438D02*
X058627Y021438D01*
X058623Y021438D02*
X058625Y021438D01*
X058621Y021438D02*
X058623Y021438D01*
X058619Y021438D02*
X058621D01*
X058617Y021438D02*
X058619Y021438D01*
X058615Y021438D02*
X058617Y021438D01*
X058613Y021438D02*
X058615Y021438D01*
X058611Y021438D02*
X058613Y021438D01*
X058609Y021438D02*
X058611Y021438D01*
X058607Y021438D02*
X058609Y021438D01*
X058604Y021438D02*
X058607Y021438D01*
X0586Y021437D02*
X058604Y021438D01*
X058596Y021437D02*
X0586Y021437D01*
X058592Y021437D02*
X058596Y021437D01*
X058588Y021437D02*
X058592Y021437D01*
X058583Y021437D02*
X058588Y021437D01*
X058577Y021436D02*
X058583Y021437D01*
X058571Y021436D02*
X058577Y021436D01*
X058562Y021435D02*
X058571Y021436D01*
X058553Y021433D02*
X058562Y021435D01*
X058543Y021431D02*
X058553Y021433D01*
X058439Y02134D02*
X058442Y021349D01*
X058437Y021333D02*
X058439Y02134D01*
X058435Y021326D02*
X058437Y021333D01*
X058433Y021319D02*
X058435Y021326D01*
X058432Y021311D02*
X058433Y021319D01*
X058431Y021306D02*
X058432Y021311D01*
X058431Y021301D02*
X058431Y021306D01*
X05843Y021296D02*
X058431Y021301D01*
X05843Y02129D02*
X05843Y021296D01*
X058429Y021285D02*
X05843Y02129D01*
X058429Y02128D02*
X058429Y021285D01*
X058429Y021274D02*
X058429Y02128D01*
X058429Y021269D02*
X058429Y021274D01*
X058428Y021266D02*
X058429Y021269D01*
X058428Y021263D02*
X058428Y021266D01*
X058428Y021261D02*
X058428Y021263D01*
X058428Y021258D02*
X058428Y021261D01*
X058428Y021255D02*
X058428Y021258D01*
X058428Y021253D02*
X058428Y021255D01*
X058428Y02125D02*
X058428Y021253D01*
X058428Y021247D02*
X058428Y02125D01*
X058428Y021244D02*
X058428Y021247D01*
X058428Y021241D02*
X058428Y021244D01*
X058428Y021239D02*
X058428Y021241D01*
X058428Y021233D02*
X058428Y02123D01*
X058428Y021228D01*
X058428Y021225D01*
X058428Y021222D01*
X058428Y021219D01*
X058428Y021216D01*
X058428Y021214D01*
X058428Y021211D01*
X058428Y021208D01*
X058429Y021203D01*
X058429Y021197D01*
X058429Y021192D01*
X058429Y021186D01*
X05843Y021181D01*
X05843Y021175D01*
X058431Y02117D01*
X058431Y021165D01*
X058432Y02116D01*
X058433Y021152D01*
X058435Y021145D01*
X058437Y021138D01*
X058439Y021131D01*
X058515Y021057D02*
X058529Y021053D01*
X058538Y021051D01*
X058547Y021049D01*
X058557Y021047D01*
X058564Y021046D01*
X058571Y021046D01*
X058577Y021045D01*
X058584Y021044D01*
X058591Y021044D01*
X058595Y021044D01*
X058599Y021044D01*
X058604Y021044D01*
X058608Y021044D01*
X05861Y021044D01*
X058612Y021044D01*
X058614Y021044D01*
X058616Y021044D01*
X058617Y021044D01*
X058619Y021044D01*
X058621Y021044D01*
X058623Y021044D01*
X058625D01*
X058627Y021044D01*
X058628Y021044D01*
X05863Y021044D01*
X058632Y021044D01*
X058633Y021044D01*
X058635Y021044D01*
X058637Y021044D01*
X058638Y021044D01*
X05864Y021044D01*
X058641Y021044D01*
X058643Y021044D01*
X058644Y021044D01*
X058647Y021044D01*
X05865Y021044D01*
X058653Y021044D01*
X058656Y021044D01*
X058658Y021044D01*
X058662Y021044D01*
X058666Y021044D01*
X058673Y021045D01*
X05869Y021046D01*
X058694Y021047D01*
X058715Y021051D02*
X058726Y021054D01*
X058733Y021056D01*
X058741Y021059D01*
X058747Y021061D01*
X058754Y021064D01*
X058761Y021067D01*
X058771Y021072D01*
X058114Y021248D02*
X058114Y021255D01*
X058114Y021261D01*
X058115Y021268D01*
X058115Y021274D01*
X058116Y021279D01*
X058116Y021285D01*
X058117Y02129D01*
X058118Y021295D01*
X058119Y021299D01*
X05812Y021304D01*
X058121Y021308D01*
X058122Y021312D01*
X058123Y021316D01*
X058125Y021319D01*
X058126Y021323D01*
X058128Y021327D01*
X05813Y02133D01*
X058132Y021335D01*
X058159Y021355D02*
X058163Y021357D01*
X058167Y021358D01*
X05817Y021359D01*
X058173Y021359D01*
X058176Y02136D01*
X058179Y02136D01*
X058181Y02136D01*
X058184Y021361D01*
X058186Y021361D01*
X058188Y021361D01*
X05819Y021361D01*
X058192Y021361D01*
X058193Y021361D01*
X058195Y021361D01*
X058196Y021361D01*
X058198Y021361D01*
X058199Y021361D01*
X0582Y021361D01*
X058201Y021361D01*
X058202Y021361D01*
X058203Y021361D01*
X058203Y021361D01*
X058204Y021361D01*
X058205Y021361D01*
X058205Y021361D01*
X058206Y021361D01*
X058206Y021361D01*
X058207Y021361D01*
X058207Y021361D01*
X058207D01*
X058208Y021361D01*
X058208D01*
X058208Y021361D01*
X058208D01*
X058209D01*
X058209D01*
X058209D01*
X05821D01*
X05821D01*
X05821D01*
X05821D01*
X058211D01*
X058211D01*
X058211Y021361D01*
X058211D01*
X058212D01*
X058212Y021361D01*
X058212Y021361D01*
X058213Y021361D01*
X058213Y021361D01*
X058214Y021361D01*
X058214Y021361D01*
X058215Y021361D01*
X058216Y021361D01*
X058217Y021361D01*
X058218Y021361D01*
X058219Y021361D01*
X05822Y021361D01*
X058221Y021361D01*
X058222Y021361D01*
X058224Y021361D01*
X058225Y021361D01*
X058227Y021361D01*
X058228Y021361D01*
X058231Y021361D01*
X058233Y021361D01*
X058235Y021361D01*
X058237Y02136D01*
X05824Y02136D01*
X058242Y02136D01*
X058245Y021359D01*
X058248Y021359D01*
X058252Y021358D01*
X058255Y021357D01*
X058259Y021356D01*
X058285Y021336D02*
X058287Y021332D01*
X058289Y021329D01*
X05829Y021326D01*
X058291Y021323D01*
X058292Y021319D01*
X058293Y021316D01*
X058294Y021313D01*
X058295Y021309D01*
X058296Y021306D01*
X058297Y021302D01*
X058297Y021298D01*
X058298Y021295D01*
X058298Y021291D01*
X058299Y021286D01*
X058299Y021282D01*
X058299Y021277D01*
X0583Y021272D01*
X0583Y021267D01*
X0583Y021262D01*
X058384Y02128D02*
X058385Y021274D01*
X058384Y02129D02*
X058384Y02128D01*
X058384Y021299D02*
X058384Y02129D01*
X058383Y021309D02*
X058384Y021299D01*
X058382Y021317D02*
X058383Y021309D01*
X058381Y021325D02*
X058382Y021317D01*
X05838Y021333D02*
X058381Y021325D01*
X058378Y021341D02*
X05838Y021333D01*
X058377Y021349D02*
X058378Y021341D01*
X058375Y021356D02*
X058377Y021349D01*
X058372Y021363D02*
X058375Y021356D01*
X05837Y02137D02*
X058372Y021363D01*
X058367Y021377D02*
X05837Y02137D01*
X058363Y021384D02*
X058367Y021377D01*
X058328Y02142D02*
X058334Y021416D01*
X05829Y021434D02*
X058297Y021433D01*
X058284Y021435D02*
X05829Y021434D01*
X058279Y021436D02*
X058284Y021435D01*
X058275Y021437D02*
X058279Y021436D01*
X058271Y021437D02*
X058275Y021437D01*
X058267Y021438D02*
X058271Y021437D01*
X058264Y021438D02*
X058267Y021438D01*
X058261Y021438D02*
X058264Y021438D01*
X058258Y021438D02*
X058261Y021438D01*
X058255Y021438D02*
X058258Y021438D01*
X058253Y021438D02*
X058255Y021438D01*
X058251Y021438D02*
X058253Y021438D01*
X058249Y021438D02*
X058251Y021438D01*
X058247Y021438D02*
X058249Y021438D01*
X058245Y021439D02*
X058247Y021438D01*
X058243Y021439D02*
X058245Y021439D01*
X058242Y021439D02*
X058243Y021439D01*
X05824Y021439D02*
X058242Y021439D01*
X058239Y021439D02*
X05824Y021439D01*
X058238Y021439D02*
X058239Y021439D01*
X058236Y021439D02*
X058238Y021439D01*
X058236Y021439D02*
X058236Y021439D01*
X058235Y021439D02*
X058236Y021439D01*
X058234Y021439D02*
X058235Y021439D01*
X058233Y021439D02*
X058234Y021439D01*
X058232Y021439D02*
X058233Y021439D01*
X058232Y021439D02*
X058232Y021439D01*
X058231Y021439D02*
X058232Y021439D01*
X05823Y021439D02*
X058231Y021439D01*
X05823Y021439D02*
X05823Y021439D01*
X058229Y021439D02*
X05823D01*
X058229Y021439D02*
X058229Y021439D01*
X058229Y021439D02*
X058229D01*
X058229D02*
X058229D01*
X058228Y021439D02*
X058229Y021439D01*
X058228Y021439D02*
X058228D01*
X058228D02*
X058228D01*
X058227D02*
X058228D01*
X058227D02*
X058227D01*
X058227D02*
X058227D01*
X058226D02*
X058227D01*
X058226D02*
X058226D01*
X058226D02*
X058226D01*
X058225D02*
X058226D01*
X058225D02*
X058225D01*
X058225Y021439D02*
X058225Y021439D01*
X058224Y021439D02*
X058225D01*
X058224Y021439D02*
X058224Y021439D01*
X058224Y021439D02*
X058224Y021439D01*
X058223Y021439D02*
X058224Y021439D01*
X058223Y021439D02*
X058223Y021439D01*
X058222Y021439D02*
X058223Y021439D01*
X058221Y021439D02*
X058222Y021439D01*
X058221Y021439D02*
X058221Y021439D01*
X05822Y021439D02*
X058221Y021439D01*
X058219Y021439D02*
X05822Y021439D01*
X058218Y021439D02*
X058219Y021439D01*
X058217Y021439D02*
X058218Y021439D01*
X058216Y021439D02*
X058217Y021439D01*
X058214Y021439D02*
X058216Y021439D01*
X058212Y021439D02*
X058214Y021439D01*
X05821Y021438D02*
X058212Y021439D01*
X058208Y021438D02*
X05821Y021438D01*
X058206Y021438D02*
X058208Y021438D01*
X058203Y021438D02*
X058206Y021438D01*
X0582Y021438D02*
X058203Y021438D01*
X058197Y021438D02*
X0582Y021438D01*
X058193Y021437D02*
X058197Y021438D01*
X058188Y021437D02*
X058193Y021437D01*
X058182Y021435D02*
X058188Y021437D01*
X058133Y021409D02*
X05814Y021415D01*
X058128Y021404D02*
X058133Y021409D01*
X058123Y021399D02*
X058128Y021404D01*
X058119Y021394D02*
X058123Y021399D01*
X058114Y021387D02*
X058119Y021394D01*
X05786Y021137D02*
Y021475D01*
X057522Y020968D02*
X057691D01*
X057184D02*
X057522D01*
X057184D02*
Y021475D01*
X057353Y021644D02*
X057691D01*
X057353Y021306D02*
X057691D01*
X059134Y021122D02*
X05915Y021055D01*
X059Y021127D02*
Y021558D01*
X059084D01*
Y021142D02*
Y021558D01*
X058951Y021122D02*
X058967Y021055D01*
X058817Y021127D02*
Y021558D01*
X058901D01*
Y021142D02*
Y021558D01*
X058755Y021138D02*
X058771Y021072D01*
X058029Y021054D02*
Y021536D01*
Y021054D02*
X058114D01*
Y021241D01*
X0583Y021054D02*
Y021262D01*
Y021054D02*
X058385D01*
Y021274D01*
X058114Y021387D02*
Y021579D01*
X058072D02*
X058114D01*
D28*
X033492Y033306D02*
Y033488D01*
X033583D01*
X033614Y033458D01*
Y033397D01*
X033583Y033367D01*
X033492D01*
X033674Y033306D02*
X033735D01*
X033705D01*
Y033488D01*
X033674D01*
X033857Y033428D02*
X033918D01*
X033949Y033397D01*
Y033306D01*
X033857D01*
X033827Y033336D01*
X033857Y033367D01*
X033949D01*
X03404Y033458D02*
Y033428D01*
X03401D01*
X034071D01*
X03404D01*
Y033336D01*
X034071Y033306D01*
X034253D02*
X034192D01*
X034162Y033336D01*
Y033397D01*
X034192Y033428D01*
X034253D01*
X034284Y033397D01*
Y033367D01*
X034162D01*
X034467Y033488D02*
Y033306D01*
X034375D01*
X034345Y033336D01*
Y033397D01*
X034375Y033428D01*
X034467D01*
X031628Y033488D02*
Y033306D01*
Y033397D01*
X03175D01*
Y033488D01*
Y033306D01*
X031841D02*
X031902D01*
X031933Y033336D01*
Y033397D01*
X031902Y033428D01*
X031841D01*
X031811Y033397D01*
Y033336D01*
X031841Y033306D01*
X031993D02*
X032054D01*
X032024D01*
Y033488D01*
X031993D01*
X032237Y033306D02*
X032176D01*
X032146Y033336D01*
Y033397D01*
X032176Y033428D01*
X032237D01*
X032268Y033397D01*
Y033367D01*
X032146D01*
X032511Y033488D02*
X032633D01*
X032572D01*
Y033306D01*
X032694Y033428D02*
Y033336D01*
X032725Y033306D01*
X032816D01*
Y033275D01*
X032786Y033245D01*
X032755D01*
X032816Y033306D02*
Y033428D01*
X032877Y033245D02*
Y033428D01*
X032968D01*
X032999Y033397D01*
Y033336D01*
X032968Y033306D01*
X032877D01*
X033151D02*
X03309D01*
X03306Y033336D01*
Y033397D01*
X03309Y033428D01*
X033151D01*
X033182Y033397D01*
Y033367D01*
X03306D01*
X028332Y033488D02*
X02821D01*
Y033397D01*
X028271D01*
X02821D01*
Y033306D01*
X028393D02*
X028454D01*
X028423D01*
Y033428D01*
X028393D01*
X028545Y033306D02*
Y033428D01*
X028637D01*
X028667Y033397D01*
Y033306D01*
X028728D02*
X028789D01*
X028758D01*
Y033428D01*
X028728D01*
X02888Y033306D02*
X028972D01*
X029002Y033336D01*
X028972Y033367D01*
X028911D01*
X02888Y033397D01*
X028911Y033428D01*
X029002D01*
X029063Y033488D02*
Y033306D01*
Y033397D01*
X029094Y033428D01*
X029155D01*
X029185Y033397D01*
Y033306D01*
X029337D02*
X029276D01*
X029246Y033336D01*
Y033397D01*
X029276Y033428D01*
X029337D01*
X029368Y033397D01*
Y033367D01*
X029246D01*
X029551Y033488D02*
Y033306D01*
X029459D01*
X029429Y033336D01*
Y033397D01*
X029459Y033428D01*
X029551D01*
X029794Y033488D02*
Y033306D01*
Y033397D01*
X029916D01*
Y033488D01*
Y033306D01*
X030008D02*
X030069D01*
X030099Y033336D01*
Y033397D01*
X030069Y033428D01*
X030008D01*
X029977Y033397D01*
Y033336D01*
X030008Y033306D01*
X03016D02*
X030221D01*
X030191D01*
Y033488D01*
X03016D01*
X030404Y033306D02*
X030343D01*
X030312Y033336D01*
Y033397D01*
X030343Y033428D01*
X030404D01*
X030434Y033397D01*
Y033367D01*
X030312D01*
X0308Y033458D02*
X030769Y033488D01*
X030709D01*
X030678Y033458D01*
Y033428D01*
X030709Y033397D01*
X030769D01*
X0308Y033367D01*
Y033336D01*
X030769Y033306D01*
X030709D01*
X030678Y033336D01*
X030861Y033306D02*
X030922D01*
X030891D01*
Y033428D01*
X030861D01*
X031013D02*
X031135D01*
X031013Y033306D01*
X031135D01*
X031287D02*
X031227D01*
X031196Y033336D01*
Y033397D01*
X031227Y033428D01*
X031287D01*
X031318Y033397D01*
Y033367D01*
X031196D01*
X026438Y033488D02*
Y033306D01*
Y033397D01*
X026559D01*
Y033488D01*
Y033306D01*
X02662D02*
X026681D01*
X026651D01*
Y033428D01*
X02662D01*
X026803Y033458D02*
Y033428D01*
X026773D01*
X026834D01*
X026803D01*
Y033336D01*
X026834Y033306D01*
X02723Y033458D02*
X027199Y033488D01*
X027138D01*
X027108Y033458D01*
Y033336D01*
X027138Y033306D01*
X027199D01*
X02723Y033336D01*
X027321Y033306D02*
X027382D01*
X027413Y033336D01*
Y033397D01*
X027382Y033428D01*
X027321D01*
X027291Y033397D01*
Y033336D01*
X027321Y033306D01*
X027474Y033428D02*
Y033336D01*
X027504Y033306D01*
X027595D01*
Y033428D01*
X027656Y033306D02*
Y033428D01*
X027748D01*
X027778Y033397D01*
Y033306D01*
X02787Y033458D02*
Y033428D01*
X027839D01*
X0279D01*
X02787D01*
Y033336D01*
X0279Y033306D01*
X025274Y033458D02*
X025244Y033488D01*
X025183D01*
X025153Y033458D01*
Y033428D01*
X025183Y033397D01*
X025244D01*
X025274Y033367D01*
Y033336D01*
X025244Y033306D01*
X025183D01*
X025153Y033336D01*
X025335Y033428D02*
Y033336D01*
X025366Y033306D01*
X025457D01*
Y033275D01*
X025427Y033245D01*
X025396D01*
X025457Y033306D02*
Y033428D01*
X025518Y033306D02*
Y033428D01*
X025549D01*
X025579Y033397D01*
Y033306D01*
Y033397D01*
X02561Y033428D01*
X02564Y033397D01*
Y033306D01*
X025701Y033488D02*
Y033306D01*
X025792D01*
X025823Y033336D01*
Y033367D01*
Y033397D01*
X025792Y033428D01*
X025701D01*
X025914Y033306D02*
X025975D01*
X026006Y033336D01*
Y033397D01*
X025975Y033428D01*
X025914D01*
X025884Y033397D01*
Y033336D01*
X025914Y033306D01*
X026067D02*
X026128D01*
X026097D01*
Y033488D01*
X026067D01*
M02*
